<svg width="545" height="435" viewBox="0 0 545 435" fill="none" xmlns="http://www.w3.org/2000/svg">
<path d="M310.337 32.1108H306.363V28H304.826V32.1108H300.852V33.7719H304.826V37.8828H306.363V33.7719H310.337V32.1108Z" fill="black"/>
<path d="M400.313 302.963C397.307 302.963 394.802 300.405 394.802 297.191C394.802 293.964 397.25 291.407 400.313 291.407C403.319 291.407 405.824 293.964 405.824 297.191C405.824 300.405 403.376 302.963 400.313 302.963ZM400.313 293.08C398.161 293.08 396.396 294.92 396.396 297.191C396.396 299.449 398.161 301.302 400.313 301.302C402.465 301.302 404.23 299.449 404.23 297.191C404.286 294.92 402.522 293.08 400.313 293.08Z" fill="black"/>
<path d="M16.2827 276.565C13.2653 276.565 10.7717 274.008 10.7717 270.793C10.7717 267.578 13.2084 265.009 16.2827 265.009C19.3456 265.009 21.7823 267.578 21.7823 270.793C21.7823 274.008 19.2887 276.565 16.2827 276.565ZM16.2827 266.622C14.1193 266.622 12.3658 268.463 12.3658 270.733C12.3658 272.992 14.1193 274.844 16.2827 274.844C18.4347 274.844 20.1996 272.992 20.1996 270.733C20.1996 268.463 18.4347 266.622 16.2827 266.622Z" fill="black"/>
<path d="M279.628 54.5558C276.611 54.5558 274.117 51.9984 274.117 48.7839C274.117 45.6171 276.554 43 279.628 43C282.691 43 285.128 45.5573 285.128 48.7839C285.128 51.9387 282.691 54.5558 279.628 54.5558ZM279.628 44.6133C277.465 44.6133 275.711 46.4536 275.711 48.7241C275.711 50.9827 277.465 52.8349 279.628 52.8349C281.78 52.8349 283.545 50.9827 283.545 48.7241C283.545 46.4536 281.837 44.6133 279.628 44.6133Z" fill="black"/>
<path d="M518.959 128.802C518.504 128.802 518.276 128.802 518.276 128.742L518.447 127.14C518.731 127.2 525.085 127.846 526.736 120.64C528.717 111.88 536.779 113.732 536.836 113.792L536.494 115.393C536.221 115.334 529.913 113.912 528.273 121.058C526.622 128.144 520.94 128.802 518.959 128.802Z" fill="black"/>
<path d="M22.9211 88.5298L21.3839 88.2311C21.4408 87.9323 22.4656 81.2522 15.5427 79.9496C7.19642 78.3364 7.59495 69.9354 7.59495 69.8757L9.17766 69.9952C9.17766 70.2939 8.83607 77.0218 15.8273 78.3364C24.2761 79.8899 22.9211 88.4103 22.9211 88.5298Z" fill="black"/>
<path d="M15.2575 384.235C15.2575 384.952 15.1209 385.634 14.8704 386.291C14.6085 386.948 14.2328 387.522 13.7545 388.024C13.2763 388.537 12.7298 388.92 12.1035 389.195C11.4772 389.47 10.8282 389.601 10.145 389.601C9.47324 389.601 8.81283 389.47 8.18657 389.195C7.56032 388.92 7.01377 388.537 6.53554 388.024C6.05731 387.522 5.68156 386.948 5.43106 386.291C5.16917 385.634 5.03253 384.952 5.03253 384.235C5.03253 383.53 5.16917 382.837 5.43106 382.18C5.68156 381.523 6.05731 380.949 6.53554 380.447C7.01377 379.945 7.56032 379.551 8.18657 379.288C8.81283 379.013 9.47324 378.87 10.145 378.87C10.8282 378.87 11.4772 379.013 12.1035 379.288C12.7298 379.551 13.2763 379.945 13.7545 380.447C14.2328 380.949 14.6085 381.523 14.8704 382.18C15.1209 382.837 15.2575 383.53 15.2575 384.235Z" fill="black"/>
<mask id="mask0_79_3166" style="mask-type:luminance" maskUnits="userSpaceOnUse" x="5" y="392" width="25" height="43">
<path d="M5.73846 392.469H29.0579V435H5.73846V392.469Z" fill="white"/>
</mask>
<g mask="url(#mask0_79_3166)">
<path d="M25.5281 433.864C11.0559 423.862 7.82218 396.508 7.70831 395.385L9.63262 395.146C9.68955 395.445 12.9233 422.667 26.6098 432.143L25.5281 433.864Z" fill="black"/>
</g>
<mask id="mask1_79_3166" style="mask-type:luminance" maskUnits="userSpaceOnUse" x="0" y="380" width="21" height="19">
<path d="M0 380.232H20.3134V398.588H0V380.232Z" fill="white"/>
</mask>
<g mask="url(#mask1_79_3166)">
<path d="M2.08371 383.758C2.08371 383.758 10.7716 381.439 17.8653 385.909C17.8653 385.909 17.296 398.241 9.29132 397.166C0.159406 395.971 2.08371 383.758 2.08371 383.758Z" fill="#FFC010"/>
</g>
<path d="M18.0362 423.982C18.0362 423.982 15.0871 416.238 16.8976 410.992C18.7194 405.746 22.2947 404.909 23.4903 405.567C24.6745 406.224 26.781 407.419 24.6745 412.187C22.6363 417.003 18.0362 423.982 18.0362 423.982Z" fill="black"/>
<mask id="mask2_79_3166" style="mask-type:luminance" maskUnits="userSpaceOnUse" x="23" y="349" width="56" height="86">
<path d="M23.2282 349.64H78.6118V434.999H23.2282V349.64Z" fill="white"/>
</mask>
<g mask="url(#mask2_79_3166)">
<path d="M38.3039 392.337C38.3039 392.337 40.8545 386.745 38.3039 379.467C35.7534 372.201 33.9885 349.735 49.2577 350.811C64.5269 351.886 65.6086 373.337 64.0714 384.295C62.5456 395.265 64.8115 402.77 67.3735 408.9C69.9241 415.043 78.0995 419.632 76.7901 433.279H25.0729C25.0729 433.338 22.5223 411.649 38.3039 392.337Z" fill="#FAFBFD"/>
<path d="M77.5871 434.163H24.3328L24.2303 433.458C24.2303 433.219 21.8391 411.231 37.6207 391.919C37.9054 391.214 39.7841 386.087 37.5638 379.826C35.6964 374.46 34.2162 361.542 39.1579 354.563C41.4807 351.289 44.8853 349.795 49.3146 350.094C53.687 350.392 57.2623 352.304 59.9267 355.818C65.4947 363.024 66.064 375.834 64.8115 384.534C63.3427 395.265 65.4947 402.531 68.0452 408.721C68.7854 410.454 69.9809 412.127 71.2904 413.848C74.4672 418.138 78.498 423.563 77.5301 433.517L77.5871 434.163ZM25.7561 432.502H76.1068C76.7331 423.683 73.2147 418.974 70.0948 414.804C68.7284 412.951 67.4304 411.231 66.6333 409.318C64.0714 403.188 61.6916 395.385 63.2857 384.235C64.4699 375.834 63.9575 363.621 58.6856 356.774C56.2945 353.667 53.1176 351.946 49.2007 351.707C45.3407 351.408 42.3916 352.723 40.399 355.519C35.8672 361.948 37.2791 374.34 38.9871 379.228C41.5946 386.685 39.044 392.457 38.9871 392.756L38.9302 392.875L38.8732 392.935C25.1298 409.737 25.5283 428.63 25.7561 432.502Z" fill="black"/>
</g>
<mask id="mask3_79_3166" style="mask-type:luminance" maskUnits="userSpaceOnUse" x="46" y="349" width="10" height="86">
<path d="M46.5478 349.64H55.2926V434.999H46.5478V349.64Z" fill="white"/>
</mask>
<g mask="url(#mask3_79_3166)">
<path d="M49.4287 350.691C49.4287 350.691 59.3691 376.91 49.4287 433.159V350.691Z" fill="#FAFBFD"/>
<path d="M50.2256 433.338L48.6885 433.04C58.515 377.687 48.8023 351.289 48.7454 350.99L50.2256 350.393C50.3395 350.691 52.7762 357.252 54.0287 370.768C55.1104 383.22 55.3382 404.192 50.2256 433.338Z" fill="black"/>
</g>
<path d="M52.8555 373.983L62.2493 362.666L63.4448 363.753L54.051 375.082L52.8555 373.983Z" fill="black"/>
<path d="M53.2199 382.742L63.684 370.254L64.8682 371.353L54.4155 383.841L53.2199 382.742Z" fill="black"/>
<path d="M35.742 395.409L36.9945 394.381L52.6736 415.246L51.4211 416.274L35.742 395.409Z" fill="black"/>
<path d="M32.5308 400.284L33.7719 399.233L51.6713 422.512L50.4302 423.563L32.5308 400.284Z" fill="black"/>
<mask id="mask4_79_3166" style="mask-type:luminance" maskUnits="userSpaceOnUse" x="157" y="0" width="71" height="93">
<path d="M157.315 0H227.273V92.4939H157.315V0Z" fill="white"/>
</mask>
<g mask="url(#mask4_79_3166)">
<path d="M225.178 34.739C225.178 16.2163 210.307 1.01576 192.829 0.0597506V0C192.544 0 192.26 0 191.975 0C191.69 0 191.406 0 191.121 0V0.0597506C173.643 1.01576 158.761 16.2163 158.761 34.739C158.761 43.7972 162.279 52.0189 167.961 58.221C178.744 71.2705 179.2 89.853 179.2 89.853H204.865C204.865 89.853 205.32 71.2705 216.103 58.221C221.66 52.0189 225.178 43.7972 225.178 34.739Z" fill="#FFC010"/>
</g>
<path d="M203.783 87.7736H179.996V107.551H182.604V110.467C182.604 113.514 184.995 116.012 187.887 116.012H196.233C199.126 116.012 201.517 113.514 201.517 110.467V107.551H203.84V87.7736H203.783Z" fill="#FAFBFD"/>
<path d="M196.234 116.788H187.887C184.54 116.788 181.818 113.932 181.818 110.407V108.328H179.2V86.9368H204.58V108.328H202.246V110.407C202.246 113.932 199.524 116.788 196.234 116.788ZM180.794 106.714H183.401V110.407C183.401 113.036 185.394 115.115 187.887 115.115H196.234C198.727 115.115 200.72 113.036 200.72 110.407V106.714H203.043V88.6098H180.794V106.714Z" fill="black"/>
<path d="M177.89 89.2552C177.89 88.0123 178.858 86.9368 180.111 86.9368H204.181C205.377 86.9368 206.39 87.9526 206.39 89.2552C206.39 90.5099 205.434 91.5854 204.181 91.5854H180.111C178.915 91.5854 177.89 90.5099 177.89 89.2552Z" fill="#FAFBFD"/>
<path d="M204.181 92.4222H180.11C178.459 92.4222 177.104 90.9882 177.104 89.2554C177.104 87.5346 178.459 86.1006 180.11 86.1006H204.181C205.821 86.1006 207.187 87.5346 207.187 89.2554C207.187 90.9882 205.821 92.4222 204.181 92.4222ZM180.11 87.7736C179.313 87.7736 178.687 88.4309 178.687 89.2554C178.687 90.0919 179.313 90.7492 180.11 90.7492H204.181C204.978 90.7492 205.593 90.0919 205.593 89.2554C205.593 88.4309 204.978 87.7736 204.181 87.7736H180.11Z" fill="black"/>
<path d="M177.89 97.7759C177.89 96.5331 178.858 95.4576 180.111 95.4576H204.181C205.377 95.4576 206.39 96.4733 206.39 97.7759C206.39 99.0306 205.434 100.106 204.181 100.106H180.111C178.915 100.106 177.89 99.0904 177.89 97.7759Z" fill="#FAFBFD"/>
<path d="M204.181 100.943H180.11C178.459 100.943 177.104 99.5089 177.104 97.7761C177.104 96.0553 178.459 94.6213 180.11 94.6213H204.181C205.821 94.6213 207.187 96.0553 207.187 97.7761C207.187 99.5089 205.821 100.943 204.181 100.943ZM180.11 96.2943C179.313 96.2943 178.687 96.9516 178.687 97.7761C178.687 98.6126 179.313 99.2699 180.11 99.2699H204.181C204.978 99.2699 205.593 98.6126 205.593 97.7761C205.593 96.9516 204.978 96.2943 204.181 96.2943H180.11Z" fill="black"/>
<path d="M177.89 106.237C177.89 104.994 178.858 103.918 180.111 103.918H204.181C205.377 103.918 206.39 104.934 206.39 106.237C206.39 107.491 205.434 108.567 204.181 108.567H180.111C178.915 108.567 177.89 107.491 177.89 106.237Z" fill="#FAFBFD"/>
<path d="M204.181 109.344H180.11C178.459 109.344 177.104 107.91 177.104 106.177C177.104 104.456 178.459 103.022 180.11 103.022H204.181C205.821 103.022 207.187 104.456 207.187 106.177C207.187 107.91 205.821 109.344 204.181 109.344ZM180.11 104.755C179.313 104.755 178.687 105.412 178.687 106.237C178.687 107.073 179.313 107.73 180.11 107.73H204.181C204.978 107.73 205.593 107.073 205.593 106.237C205.593 105.412 204.978 104.755 204.181 104.755H180.11Z" fill="black"/>
<path d="M197.589 348.899H214.794V382.037H197.589V348.899Z" fill="#FAFBFD"/>
<path d="M215.534 382.921H196.803V348.075H215.534V382.921ZM198.329 381.26H213.94V349.736H198.329V381.26Z" fill="black"/>
<path d="M223.31 324.772H240.515V382.156H223.31V324.772Z" fill="#FAFBFD"/>
<path d="M241.301 382.981H222.57V323.935H241.301V382.981ZM224.107 381.319H239.718V325.548H224.107V381.319Z" fill="black"/>
<path d="M252.881 299.748H270.086V382.156H252.881V299.748Z" fill="#FFC010"/>
<path d="M271.281 283.843L271.054 272.335H260.1V275.262H266.397L232.738 311.483L224.449 302.963L192.43 337.104L194.412 339.195L224.449 307.074L232.795 315.594L268.389 277.282L268.492 283.902L271.281 283.843Z" fill="#FFC010"/>
<mask id="mask5_79_3166" style="mask-type:luminance" maskUnits="userSpaceOnUse" x="320" y="267" width="16" height="168">
<path d="M320.55 267.041H335.125V434.999H320.55V267.041Z" fill="white"/>
</mask>
<g mask="url(#mask5_79_3166)">
<path d="M322.714 269.299H332.529V433.757H322.714V269.299Z" fill="black"/>
</g>
<path d="M391.056 200.359C391.056 202.857 390.953 205.33 390.748 207.816C390.543 210.29 390.236 212.739 389.826 215.189C389.404 217.627 388.892 220.041 388.289 222.419C387.674 224.797 386.956 227.139 386.148 229.434C385.34 231.74 384.44 233.987 383.449 236.174C382.447 238.372 381.366 240.499 380.193 242.567C379.02 244.634 377.756 246.63 376.424 248.554C375.08 250.478 373.668 252.318 372.177 254.087C370.674 255.843 369.114 257.504 367.486 259.094C365.846 260.671 364.161 262.153 362.396 263.527C360.642 264.914 358.832 266.192 356.976 267.363C355.109 268.534 353.196 269.598 351.249 270.554C349.301 271.498 347.309 272.335 345.293 273.064C343.267 273.781 341.229 274.39 339.156 274.868C337.084 275.358 334.989 275.728 332.894 275.967C330.787 276.206 328.681 276.338 326.574 276.338C324.456 276.338 322.35 276.206 320.255 275.967C318.148 275.728 316.065 275.358 313.992 274.868C311.92 274.39 309.87 273.781 307.855 273.064C305.828 272.335 303.847 271.498 301.888 270.554C299.941 269.598 298.04 268.534 296.172 267.363C294.305 266.192 292.495 264.914 290.741 263.527C288.988 262.153 287.291 260.671 285.663 259.094C284.023 257.504 282.463 255.843 280.972 254.087C279.48 252.318 278.057 250.478 276.724 248.554C275.381 246.63 274.128 244.634 272.955 242.567C271.783 240.499 270.69 238.372 269.699 236.174C268.697 233.987 267.797 231.74 266.989 229.434C266.181 227.139 265.475 224.797 264.86 222.419C264.245 220.041 263.732 217.627 263.323 215.189C262.913 212.739 262.605 210.29 262.389 207.816C262.184 205.33 262.081 202.857 262.081 200.359C262.081 197.873 262.184 195.4 262.389 192.914C262.605 190.44 262.913 187.979 263.323 185.541C263.732 183.103 264.245 180.689 264.86 178.311C265.475 175.933 266.181 173.591 266.989 171.296C267.797 168.99 268.697 166.743 269.699 164.556C270.69 162.358 271.783 160.23 272.955 158.163C274.128 156.084 275.381 154.088 276.724 152.164C278.057 150.252 279.48 148.4 280.972 146.643C282.463 144.887 284.023 143.214 285.663 141.636C287.291 140.059 288.988 138.577 290.741 137.203C292.495 135.816 294.305 134.538 296.172 133.367C298.04 132.195 299.941 131.132 301.888 130.176C303.847 129.232 305.828 128.383 307.855 127.666C309.87 126.949 311.92 126.34 313.992 125.85C316.065 125.372 318.148 125.002 320.255 124.763C322.35 124.512 324.456 124.392 326.574 124.392C328.681 124.392 330.787 124.512 332.894 124.763C334.989 125.002 337.084 125.372 339.156 125.85C341.229 126.34 343.267 126.949 345.293 127.666C347.309 128.383 349.301 129.232 351.249 130.176C353.196 131.132 355.109 132.195 356.976 133.367C358.832 134.538 360.642 135.816 362.396 137.203C364.161 138.577 365.846 140.059 367.486 141.636C369.114 143.214 370.674 144.887 372.177 146.643C373.668 148.4 375.08 150.252 376.424 152.164C377.756 154.088 379.02 156.084 380.193 158.163C381.366 160.23 382.447 162.358 383.449 164.556C384.44 166.743 385.34 168.99 386.148 171.296C386.956 173.591 387.674 175.933 388.289 178.311C388.892 180.689 389.404 183.103 389.826 185.541C390.236 187.979 390.543 190.44 390.748 192.914C390.953 195.4 391.056 197.873 391.056 200.359Z" fill="#FAFBFD"/>
<path d="M326.574 277.163C290.581 277.163 261.284 242.722 261.284 200.359C261.284 157.996 290.581 123.556 326.574 123.556C362.566 123.556 391.852 157.996 391.852 200.359C391.852 242.722 362.566 277.163 326.574 277.163ZM326.574 125.229C291.435 125.229 262.821 158.952 262.821 200.359C262.821 241.778 291.435 275.502 326.574 275.502C361.712 275.502 390.326 241.778 390.326 200.359C390.326 158.952 361.712 125.229 326.574 125.229Z" fill="black"/>
<path d="M370.514 200.777C370.514 202.606 370.435 204.434 370.287 206.251C370.139 208.067 369.911 209.872 369.615 211.664C369.307 213.457 368.943 215.225 368.488 216.97C368.043 218.715 367.531 220.435 366.95 222.12C366.358 223.805 365.698 225.454 364.981 227.068C364.252 228.681 363.466 230.246 362.612 231.764C361.77 233.282 360.847 234.752 359.879 236.162C358.912 237.572 357.875 238.922 356.794 240.213C355.712 241.503 354.573 242.734 353.389 243.894C352.205 245.053 350.975 246.14 349.7 247.156C348.425 248.172 347.104 249.104 345.749 249.964C344.405 250.825 343.016 251.601 341.604 252.306C340.181 252.999 338.735 253.621 337.266 254.147C335.809 254.684 334.317 255.127 332.814 255.485C331.311 255.832 329.796 256.107 328.271 256.286C326.745 256.465 325.208 256.549 323.671 256.549C322.145 256.549 320.608 256.465 319.082 256.286C317.556 256.107 316.042 255.832 314.539 255.485C313.036 255.127 311.544 254.684 310.087 254.147C308.618 253.621 307.172 252.999 305.748 252.306C304.336 251.601 302.947 250.825 301.604 249.964C300.249 249.104 298.928 248.172 297.653 247.156C296.377 246.14 295.148 245.053 293.963 243.894C292.779 242.734 291.641 241.503 290.559 240.213C289.477 238.922 288.441 237.572 287.473 236.162C286.505 234.752 285.583 233.282 284.74 231.764C283.886 230.246 283.101 228.681 282.372 227.068C281.655 225.454 280.994 223.805 280.402 222.12C279.821 220.435 279.309 218.715 278.854 216.97C278.41 215.225 278.045 213.457 277.738 211.664C277.442 209.872 277.214 208.067 277.066 206.251C276.918 204.434 276.838 202.606 276.838 200.777C276.838 198.949 276.918 197.133 277.066 195.316C277.214 193.5 277.442 191.695 277.738 189.903C278.045 188.11 278.41 186.342 278.854 184.597C279.309 182.84 279.821 181.131 280.402 179.435C280.994 177.75 281.655 176.1 282.372 174.487C283.101 172.886 283.886 171.32 284.74 169.803C285.583 168.273 286.505 166.815 287.473 165.405C288.441 163.995 289.477 162.633 290.559 161.342C291.641 160.051 292.779 158.833 293.963 157.673C295.148 156.514 296.377 155.427 297.653 154.411C298.928 153.395 300.249 152.463 301.604 151.591C302.947 150.73 304.336 149.954 305.748 149.26C307.172 148.555 308.618 147.946 310.087 147.408C311.544 146.882 313.036 146.44 314.539 146.082C316.042 145.723 317.556 145.46 319.082 145.281C320.608 145.102 322.145 145.006 323.671 145.006C325.208 145.006 326.745 145.102 328.271 145.281C329.796 145.46 331.311 145.723 332.814 146.082C334.317 146.44 335.809 146.882 337.266 147.408C338.735 147.946 340.181 148.555 341.604 149.26C343.016 149.954 344.405 150.73 345.749 151.591C347.104 152.463 348.425 153.395 349.7 154.411C350.975 155.427 352.205 156.514 353.389 157.673C354.573 158.833 355.712 160.051 356.794 161.342C357.875 162.633 358.912 163.995 359.879 165.405C360.847 166.815 361.77 168.273 362.612 169.803C363.466 171.32 364.252 172.886 364.981 174.487C365.698 176.1 366.358 177.75 366.95 179.435C367.531 181.131 368.043 182.84 368.488 184.597C368.943 186.342 369.307 188.11 369.615 189.903C369.911 191.695 370.139 193.5 370.287 195.316C370.435 197.133 370.514 198.949 370.514 200.777Z" fill="#FFC010"/>
<path d="M352.683 200.538C352.683 202.761 352.501 204.948 352.137 207.123C351.772 209.298 351.237 211.401 350.531 213.444C349.814 215.5 348.949 217.436 347.912 219.276C346.876 221.116 345.703 222.825 344.383 224.391C343.073 225.956 341.639 227.354 340.09 228.585C338.553 229.816 336.913 230.856 335.194 231.704C333.474 232.553 331.71 233.186 329.888 233.616C328.055 234.046 326.221 234.262 324.354 234.262C322.498 234.262 320.653 234.046 318.832 233.616C317.01 233.186 315.233 232.553 313.514 231.704C311.795 230.856 310.166 229.816 308.618 228.585C307.069 227.354 305.646 225.956 304.325 224.391C303.016 222.825 301.843 221.116 300.807 219.276C299.771 217.436 298.894 215.5 298.188 213.444C297.471 211.401 296.935 209.298 296.571 207.123C296.207 204.948 296.036 202.761 296.036 200.538C296.036 198.327 296.207 196.141 296.571 193.966C296.935 191.791 297.471 189.688 298.188 187.632C298.894 185.589 299.771 183.653 300.807 181.812C301.843 179.96 303.016 178.263 304.325 176.698C305.646 175.132 307.069 173.734 308.618 172.503C310.166 171.272 311.795 170.233 313.514 169.384C315.233 168.536 317.01 167.902 318.832 167.472C320.653 167.03 322.498 166.815 324.354 166.815C326.221 166.815 328.055 167.03 329.888 167.472C331.71 167.902 333.474 168.536 335.194 169.384C336.913 170.233 338.553 171.272 340.09 172.503C341.639 173.734 343.073 175.132 344.383 176.698C345.703 178.263 346.876 179.96 347.912 181.812C348.949 183.653 349.814 185.589 350.531 187.632C351.237 189.688 351.772 191.791 352.137 193.966C352.501 196.141 352.683 198.327 352.683 200.538Z" fill="#FAFBFD"/>
<path d="M332.757 200.538C332.757 202.068 332.506 203.538 332.005 204.948C331.493 206.358 330.776 207.601 329.853 208.676C328.92 209.752 327.838 210.588 326.631 211.162C325.413 211.747 324.137 212.046 322.828 212.046C321.507 212.046 320.243 211.747 319.025 211.162C317.806 210.588 316.736 209.752 315.802 208.676C314.869 207.601 314.151 206.358 313.65 204.948C313.138 203.538 312.887 202.068 312.887 200.538C312.887 199.021 313.138 197.551 313.65 196.141C314.151 194.73 314.869 193.488 315.802 192.412C316.736 191.337 317.806 190.5 319.025 189.915C320.243 189.329 321.507 189.042 322.828 189.042C324.137 189.042 325.413 189.329 326.631 189.915C327.838 190.5 328.92 191.337 329.853 192.412C330.776 193.488 331.493 194.73 332.005 196.141C332.506 197.551 332.757 199.021 332.757 200.538Z" fill="#FFC010"/>
<path d="M223.368 200.12L217.8 192.377H194.754L199.695 200.12H223.368Z" fill="#FFC010"/>
<path d="M194.184 208.82L199.695 201.076H222.741L217.799 208.82H194.184Z" fill="#FFC010"/>
<path d="M193.569 198.818H322.885V202.391H193.569V198.818Z" fill="black"/>
<path d="M449.251 390.019C449.251 390.724 449.115 391.417 448.853 392.074C448.602 392.732 448.227 393.305 447.748 393.807C447.27 394.309 446.724 394.703 446.097 394.966C445.471 395.241 444.811 395.385 444.139 395.385C443.456 395.385 442.807 395.241 442.18 394.966C441.554 394.703 441.008 394.309 440.529 393.807C440.051 393.305 439.675 392.732 439.413 392.074C439.163 391.417 439.026 390.724 439.026 390.019C439.026 389.302 439.163 388.621 439.413 387.964C439.675 387.306 440.051 386.733 440.529 386.219C441.008 385.717 441.554 385.335 442.18 385.06C442.807 384.785 443.456 384.653 444.139 384.653C444.811 384.653 445.471 384.785 446.097 385.06C446.724 385.335 447.27 385.717 447.748 386.219C448.227 386.733 448.602 387.306 448.853 387.964C449.115 388.621 449.251 389.302 449.251 390.019Z" fill="black"/>
<mask id="mask6_79_3166" style="mask-type:luminance" maskUnits="userSpaceOnUse" x="416" y="398" width="30" height="37">
<path d="M416.743 398.588H445.892V435H416.743V398.588Z" fill="white"/>
</mask>
<g mask="url(#mask6_79_3166)">
<path d="M418.303 434.581L417.631 432.622C433.014 426.659 442.089 400.918 442.203 400.679L444.082 401.396C443.683 402.531 434.54 428.332 418.303 434.581Z" fill="black"/>
</g>
<path d="M452.087 391.441C452.087 391.441 444.139 387.092 436.248 389.721C436.248 389.721 434.085 401.874 442.147 402.77C451.29 403.786 452.087 391.441 452.087 391.441Z" fill="#FFC010"/>
<path d="M427.731 426.778C427.731 426.778 432.331 419.931 431.648 414.445C430.965 408.96 427.731 407.24 426.422 407.598C425.124 407.957 422.846 408.602 423.814 413.788C424.839 418.915 427.731 426.778 427.731 426.778Z" fill="black"/>
<path d="M469.178 386.207C469.178 386.853 469.052 387.474 468.813 388.072C468.586 388.669 468.244 389.195 467.811 389.661C467.367 390.115 466.866 390.473 466.297 390.712C465.728 390.963 465.136 391.095 464.521 391.095C463.906 391.095 463.302 390.963 462.733 390.712C462.164 390.473 461.663 390.115 461.23 389.661C460.786 389.195 460.456 388.669 460.217 388.072C459.977 387.474 459.864 386.853 459.864 386.207C459.864 385.55 459.977 384.929 460.217 384.331C460.456 383.734 460.786 383.208 461.23 382.754C461.663 382.288 462.164 381.941 462.733 381.69C463.302 381.439 463.906 381.32 464.521 381.32C465.136 381.32 465.728 381.439 466.297 381.69C466.866 381.941 467.367 382.288 467.811 382.754C468.244 383.208 468.586 383.734 468.813 384.331C469.052 384.929 469.178 385.55 469.178 386.207Z" fill="black"/>
<path d="M458.725 404.611C458.725 404.611 468.95 405.447 470.532 402.89C472.184 400.321 467.754 398.062 461.959 401.934C461.116 402.531 458.725 404.611 458.725 404.611Z" fill="black"/>
<path d="M455.548 410.096C455.548 410.096 465.375 413.131 467.47 410.992C469.565 408.841 465.705 405.686 459.237 408.196C458.327 408.542 455.548 410.096 455.548 410.096Z" fill="black"/>
<mask id="mask7_79_3166" style="mask-type:luminance" maskUnits="userSpaceOnUse" x="431" y="395" width="36" height="40">
<path d="M431.318 395.529H466.297V435H431.318V395.529Z" fill="white"/>
</mask>
<g mask="url(#mask7_79_3166)">
<path d="M433.925 434.821L432.73 433.219C450.948 418.437 462.756 396.688 462.87 396.509L464.578 397.524C464.464 397.704 452.485 419.752 433.925 434.821Z" fill="black"/>
</g>
<mask id="mask8_79_3166" style="mask-type:luminance" maskUnits="userSpaceOnUse" x="367" y="361" width="53" height="74">
<path d="M367.19 361.877H419.658V434.999H367.19V361.877Z" fill="white"/>
</mask>
<g mask="url(#mask8_79_3166)">
<path d="M418.303 433.983C418.303 433.983 420.922 421.651 414.386 409.617C414.386 409.617 410.811 397.942 416.664 387.33C422.562 376.73 416.664 364.697 409.798 362.964C402.92 361.243 394.745 367.075 392.82 375.296C390.828 383.518 392.479 389.362 380.728 395.552C368.977 401.754 369.433 433.983 369.433 433.983H418.303Z" fill="#FAFBFD"/>
</g>
<mask id="mask9_79_3166" style="mask-type:luminance" maskUnits="userSpaceOnUse" x="367" y="361" width="56" height="74">
<path d="M367.19 361.877H422.573V434.999H367.19V361.877Z" fill="white"/>
</mask>
<g mask="url(#mask9_79_3166)">
<path d="M418.93 434.82H368.636V433.983C368.636 432.681 368.294 401.156 380.33 394.847C389.473 390.079 390.156 385.729 391.113 379.766C391.34 378.344 391.625 376.79 391.966 375.177C394.016 366.537 402.579 360.406 409.911 362.247C413.316 363.083 416.55 366.358 418.303 370.648C420.581 376.193 420.182 382.454 417.233 387.808C411.836 397.583 414.671 408.362 415.013 409.378C421.548 421.472 419.1 433.756 418.986 434.222L418.93 434.82ZM370.23 433.159H417.631C418.03 430.47 419.157 420.109 413.658 410.035L413.601 409.856C413.43 409.378 409.968 397.703 415.924 386.924C418.588 382.036 418.986 376.312 416.891 371.245C415.297 367.373 412.519 364.517 409.57 363.8C403.034 362.187 395.371 367.732 393.504 375.535C393.105 377.089 392.877 378.571 392.65 380.005C391.682 385.968 390.828 391.154 381.013 396.329C370.902 401.634 370.23 428.152 370.23 433.159Z" fill="black"/>
</g>
<path d="M471.728 387.57C471.728 387.57 464.976 383.459 457.37 386.028C457.37 386.028 455.377 397.046 462.699 397.883C470.988 398.779 471.728 387.57 471.728 387.57Z" fill="#FFC010"/>
<mask id="mask10_79_3166" style="mask-type:luminance" maskUnits="userSpaceOnUse" x="390" y="361" width="21" height="74">
<path d="M390.509 361.877H410.913V434.999H390.509V361.877Z" fill="white"/>
</mask>
<g mask="url(#mask10_79_3166)">
<path d="M393.503 434.521L392.08 433.804C401.736 411.708 408.943 363.024 409 362.546L410.526 362.785C410.469 363.263 403.261 412.186 393.503 434.521Z" fill="black"/>
</g>
<path d="M395.45 368.808L396.942 368.235L405.288 391.729L403.797 392.314L395.45 368.808Z" fill="black"/>
<path d="M391.238 380.137L392.718 379.527L402.362 405.124L400.882 405.734L391.238 380.137Z" fill="black"/>
<mask id="mask11_79_3166" style="mask-type:luminance" maskUnits="userSpaceOnUse" x="390" y="413" width="30" height="22">
<path d="M390.509 413.884H419.658V435H390.509V413.884Z" fill="white"/>
</mask>
<g mask="url(#mask11_79_3166)">
<path d="M392.16 433.494L416.413 414.804L417.347 416.142L393.093 434.832L392.16 433.494Z" fill="black"/>
</g>
<mask id="mask12_79_3166" style="mask-type:luminance" maskUnits="userSpaceOnUse" x="402" y="420" width="18" height="15">
<path d="M402.168 420.002H419.658V435H402.168V420.002Z" fill="white"/>
</mask>
<g mask="url(#mask12_79_3166)">
<path d="M403.831 433.315L418.132 422.548L419.055 423.91L404.765 434.677L403.831 433.315Z" fill="black"/>
</g>
<mask id="mask13_79_3166" style="mask-type:luminance" maskUnits="userSpaceOnUse" x="332" y="328" width="71" height="107">
<path d="M332.21 328.226H402.168V435H332.21V328.226Z" fill="white"/>
</mask>
<g mask="url(#mask13_79_3166)">
<path d="M349.848 381.678C349.848 381.678 353.138 374.461 349.848 365.235C346.557 355.998 344.28 327.162 363.864 328.524C383.449 329.899 384.759 357.3 382.823 371.366C380.842 385.431 383.791 395.027 387.081 402.95C390.383 410.813 400.825 416.656 399.174 434.163H332.814C332.814 434.163 329.58 406.403 349.848 381.678Z" fill="#FAFBFD"/>
</g>
<mask id="mask14_79_3166" style="mask-type:luminance" maskUnits="userSpaceOnUse" x="329" y="325" width="74" height="110">
<path d="M329.296 325.166H402.169V435H329.296V325.166Z" fill="white"/>
</mask>
<g mask="url(#mask14_79_3166)">
<path d="M399.857 435H332.131L332.017 434.283C331.96 433.984 331.231 427.077 332.928 417.063C334.522 407.837 338.61 394.13 349.108 381.26C349.45 380.423 351.943 373.755 349.051 365.534C346.728 358.913 344.849 342.171 351.101 333.352C354.05 329.241 358.365 327.341 363.922 327.688C369.433 328.046 373.976 330.496 377.38 334.905C384.474 344.143 385.157 360.407 383.62 371.485C381.696 385.311 384.474 394.608 387.822 402.591C388.733 404.85 390.327 406.941 392.023 409.199C396.111 414.684 401.167 421.532 399.971 434.163L399.857 435ZM333.554 433.339H398.445C399.288 421.831 394.745 415.7 390.714 410.275C388.96 407.957 387.309 405.686 386.353 403.308C383.108 395.505 380.045 385.55 382.038 371.306C383.563 360.527 382.88 344.788 376.128 335.981C373.008 331.978 368.863 329.719 363.808 329.361C358.821 329.002 354.961 330.675 352.342 334.368C346.444 342.649 348.311 358.614 350.531 364.936C353.879 374.401 350.645 381.738 350.531 382.037L350.474 382.156L350.417 382.216C332.415 404.132 333.269 428.809 333.554 433.339Z" fill="black"/>
</g>
<mask id="mask15_79_3166" style="mask-type:luminance" maskUnits="userSpaceOnUse" x="361" y="325" width="13" height="110">
<path d="M361.36 325.166H373.019V435H361.36V325.166Z" fill="white"/>
</mask>
<g mask="url(#mask15_79_3166)">
<path d="M364.833 434.104L363.295 433.817C375.843 362.845 363.466 329.002 363.352 328.644L364.833 328.046C364.946 328.405 368.066 336.746 369.66 354.086C371.072 370.003 371.414 396.867 364.833 434.104Z" fill="black"/>
</g>
<path d="M368.602 358.352L380.614 343.88L381.81 344.979L369.797 359.439L368.602 358.352Z" fill="black"/>
<path d="M369.125 369.537L382.538 353.512L383.734 354.611L370.321 370.636L369.125 369.537Z" fill="black"/>
<path d="M346.683 385.502L347.935 384.463L368.009 411.171L366.757 412.211L346.683 385.502Z" fill="black"/>
<path d="M342.583 391.681L343.824 390.629L366.757 420.445L365.515 421.496L342.583 391.681Z" fill="black"/>
<path d="M85.4208 409.618L84.2252 425.057H68.8991L70.0947 409.618H85.4208Z" fill="#FAFBFD"/>
<path d="M84.9653 425.882H68.045L69.3545 408.781H86.2747L84.9653 425.882ZM69.753 424.22H83.485L84.5668 410.454H70.8347L69.753 424.22Z" fill="black"/>
<mask id="mask16_79_3166" style="mask-type:luminance" maskUnits="userSpaceOnUse" x="64" y="416" width="44" height="19">
<path d="M64.037 416.943H107.761V434.999H64.037V416.943Z" fill="white"/>
</mask>
<g mask="url(#mask16_79_3166)">
<path d="M68.8989 419.99C68.8989 419.99 77.2452 426.598 84.2251 419.99L105.005 431.307C105.916 431.785 105.575 433.278 104.55 433.278H67.8742C66.7469 433.278 65.8929 432.143 66.1776 430.948L68.8989 419.99Z" fill="black"/>
</g>
<path d="M125.9 409.618L127.425 425.057H112.156L110.573 409.618H125.9Z" fill="#FAFBFD"/>
<path d="M128.336 425.882H111.416L109.662 408.781H126.583L128.336 425.882ZM112.839 424.22H126.583L125.159 410.454H111.416L112.839 424.22Z" fill="black"/>
<mask id="mask17_79_3166" style="mask-type:luminance" maskUnits="userSpaceOnUse" x="107" y="416" width="42" height="19">
<path d="M107.761 416.943H148.57V434.999H107.761V416.943Z" fill="white"/>
</mask>
<g mask="url(#mask17_79_3166)">
<path d="M111.758 419.99C111.758 419.99 120.104 426.598 127.084 419.99L147.864 431.307C148.775 431.785 148.433 433.278 147.408 433.278H110.744C109.606 433.278 108.752 432.143 109.036 430.948L111.758 419.99Z" fill="black"/>
</g>
<path d="M115.504 219.192L129.874 290.152L133.79 411.888H107.841L98.4242 306.655L74.1256 225.096L115.504 219.192Z" fill="#FAFBFD"/>
<path d="M134.633 412.713H107.157L97.6839 306.835L73.1006 224.379L116.187 218.237L130.716 290.093L134.633 412.713ZM108.581 411.052H132.993L129.076 290.272L114.877 220.149L75.0933 225.801L99.1528 306.536V306.596L108.581 411.052Z" fill="black"/>
<path d="M64.5836 411.649L70.8917 298.613L61.0652 230.091L100.405 212.811L104.721 291.168L89.3946 411.649H64.5836Z" fill="#FAFBFD"/>
<path d="M90.0777 412.486H63.7864L70.1514 298.613L60.2111 229.565L101.088 211.508L105.461 291.168V291.228L90.0777 412.486ZM65.4374 410.872H88.6544L103.867 291.168L99.665 214.006L61.976 230.629L71.7341 298.553V298.613L65.4374 410.872Z" fill="black"/>
<path d="M79.0672 121.775C79.0672 121.775 57.5468 118.979 66.9748 103.181C66.9748 103.181 62.4316 90.1311 75.9929 90.4896C75.9929 90.4896 77.8716 80.6069 85.0223 86.9166C85.0223 86.9166 95.179 81.79 96.3176 90.8481C96.3176 90.8481 97.4563 95.9747 91.4328 99.1893L79.0672 121.775Z" fill="black"/>
<path d="M73.7837 140.429L78.6685 118.979C78.6685 118.979 69.6391 113.015 75.9927 109.084C75.9927 109.084 78.27 109.084 79.4086 110.697C79.4086 110.697 77.8715 101.579 83.9404 101.221C89.9638 100.802 92.6283 96.8708 92.6283 96.8708C92.6283 96.8708 106.201 119.445 99.0502 123.388C91.8882 127.32 91.4896 125.348 91.4896 125.348L93.3684 141.254L73.7837 140.429Z" fill="#FAFBFD"/>
<path d="M94.2794 142.09L72.7591 141.194L77.7577 119.325C76.3914 118.381 72.873 115.513 72.9299 112.358C72.9299 110.745 73.8408 109.443 75.5943 108.307L75.7651 108.188H75.9928C76.0498 108.188 77.2453 108.188 78.4409 108.785C78.384 106.933 78.5548 104.196 79.9667 102.284C80.8776 101.042 82.1871 100.384 83.8267 100.265C89.3947 99.9064 91.8314 96.393 91.8883 96.2735L92.5715 95.2578L93.1977 96.2735C93.5963 96.9905 103.468 113.434 101.601 120.879C101.259 122.313 100.462 123.329 99.3236 123.974C96.0899 125.766 93.824 126.603 92.3438 126.543L94.2794 142.09ZM74.7517 139.652L92.4576 140.369L90.7041 125.408L92.2299 125.169C92.173 124.99 92.116 124.93 92.116 124.93C92.116 124.93 93.1977 125.587 98.6518 122.612C99.3806 122.193 99.893 121.536 100.121 120.52C101.601 114.748 94.5641 101.759 92.5145 98.1736C91.262 99.4881 88.5407 101.699 83.9975 101.998C82.8133 102.057 81.9024 102.523 81.2761 103.36C79.4543 105.81 80.1944 110.458 80.1944 110.518L80.7638 113.912L78.8394 111.163C78.1563 110.16 76.7899 109.98 76.2775 109.921C75.1502 110.697 74.5809 111.462 74.5809 112.418C74.524 114.748 77.8716 117.425 79.1241 118.262L79.5682 118.561L74.7517 139.652Z" fill="black"/>
<path d="M74.7519 133.032L54.6548 145.843C49.0299 149.416 46.5363 156.693 48.7453 163.242L52.6622 176.471L58.1732 182.255L61.0654 248.028C61.0654 248.028 92.1731 255.067 100.804 245.59C106.201 239.687 121.926 235.935 121.926 235.935L118.521 210.971L118.123 198.519L125.786 167.592L117.838 145.484C116.13 140.656 112.156 137.083 107.385 136.02L94.3365 133.032C94.3365 133.032 86.7873 144.54 74.7519 133.032Z" fill="#FFC010"/>
<path d="M68.8993 168.847C68.5007 169.265 52.833 176.65 52.833 176.65L67.7037 207.577C71.3473 215.44 82.2442 214.783 84.9086 206.501L108.866 132.853C108.866 132.853 107.727 119.803 103.582 117.843C103.582 117.843 97.5703 122.97 94.5643 123.388C94.5643 123.388 89.281 122.612 86.6165 124.571L94.1657 128.144C94.1657 128.144 97.1718 129.28 98.5381 134.048L74.5811 183.199L68.8993 168.847Z" fill="#FAFBFD"/>
<path d="M76.0496 213.887C72.1326 213.887 68.7281 211.628 66.9746 207.876L51.7054 176.232L52.4341 175.873C58.1729 173.197 67.43 168.787 68.3296 168.19L69.1266 167.353L74.5807 181.12L97.6268 133.869C96.4313 129.877 93.9946 128.862 93.8807 128.802H93.8238L85.0221 124.631L86.1607 123.795C88.8251 121.775 93.7099 122.313 94.5639 122.433C96.8867 122.074 101.487 118.441 103.126 117.067L103.525 116.768L103.98 117.007C108.41 119.158 109.605 131.371 109.719 132.734V132.913L85.7053 206.741C84.3389 210.911 80.9343 213.648 76.7328 213.887C76.4481 213.887 76.2773 213.887 76.0496 213.887ZM53.8574 177.068L68.3865 207.219C69.9237 210.553 73.0436 212.525 76.562 212.285C80.0804 212.047 82.9839 209.716 84.1112 206.263L108.068 132.734C107.727 129.28 106.429 120.819 103.639 118.8C102.113 120.043 97.3991 123.795 94.6208 124.153H94.3931C94.3362 124.153 90.9316 123.675 88.4266 124.512L94.45 127.32C94.8486 127.499 97.9115 128.862 99.2665 133.749L99.3804 134.048L74.5238 185.051L68.5573 169.982C67.0884 170.747 63.3992 172.539 53.8574 177.068Z" fill="black"/>
<path d="M109.606 166.875L124.989 165.453L132.31 191.014C133.734 196.069 131.115 201.435 126.298 203.108L87.7438 216.396C87.7438 216.396 82.0734 219.73 76.4485 219.372C76.4485 219.372 72.7023 219.79 71.9053 216.396C71.9053 216.396 68.5007 215.38 69.2409 212.644C69.2409 212.644 68.1022 210.851 68.8423 208.115L76.3915 209.298L83.212 207.696L115.618 188.684L109.606 166.875Z" fill="#FAFBFD"/>
<path d="M77.3593 220.208C77.0747 220.208 76.7331 220.208 76.3915 220.148C74.9226 220.268 72.076 219.79 71.2334 216.994C70.5503 216.755 69.3547 216.097 68.7284 214.902C68.3868 214.245 68.273 213.468 68.3868 212.703C68.0452 211.986 67.4304 210.194 68.1022 207.816L68.273 207.099L76.3346 208.354L82.8704 206.8L114.661 188.146L108.524 166.038L125.501 164.437L132.993 190.656C134.576 196.188 131.684 201.913 126.469 203.765L87.9715 216.994C87.4022 217.519 82.5857 220.208 77.3593 220.208ZM76.3915 218.475H76.4484C81.7887 218.834 87.2883 215.619 87.3452 215.619L87.516 215.56L126.07 202.271C130.5 200.718 132.88 195.89 131.57 191.253L124.419 166.337L110.63 167.652L116.586 189.102L83.4852 208.473L76.4484 210.134L69.4685 209.059C69.1839 210.971 69.8671 212.225 69.924 212.225L70.1517 212.524L70.0379 212.811C69.924 213.289 69.924 213.707 70.1517 214.126C70.6641 215.141 72.133 215.56 72.133 215.56L72.5884 215.679L72.7023 216.157C73.2716 218.774 76.2776 218.475 76.3915 218.475Z" fill="black"/>
<path d="M491.597 410.992H506.013V425.523H491.597V410.992Z" fill="#FAFBFD"/>
<path d="M506.81 426.36H490.801V410.215H506.81V426.36ZM492.395 424.699H505.216V411.828H492.395V424.699Z" fill="black"/>
<path d="M514.131 389.661L520.496 400.62L532.748 392.577L526.395 381.679L514.131 389.661Z" fill="#FAFBFD"/>
<path d="M520.269 401.814L513.107 389.422L526.679 380.483L533.83 392.875L520.269 401.814ZM515.213 389.959L520.77 399.496L531.678 392.337L526.11 382.801L515.213 389.959Z" fill="black"/>
<path d="M519.016 235.755L510.898 295.578L509.417 417.182H482.739L484.618 295.936L490.915 233.019L519.016 235.755Z" fill="black"/>
<path d="M469.792 230.27L461.901 289.029C461.287 293.785 462.015 298.672 464.065 302.963L508.347 396.986L527.59 381.439L490.914 296.713L511.068 232.78L469.792 230.27Z" fill="black"/>
<mask id="mask18_79_3166" style="mask-type:luminance" maskUnits="userSpaceOnUse" x="469" y="420" width="42" height="15">
<path d="M469.211 420.002H510.02V435H469.211V420.002Z" fill="white"/>
</mask>
<g mask="url(#mask18_79_3166)">
<path d="M506.012 420.767C506.012 420.767 498.179 427.017 491.597 420.767L472.07 431.427C471.216 431.905 471.5 433.279 472.525 433.279H507.037C508.119 433.279 508.905 432.203 508.631 431.068L506.012 420.767Z" fill="black"/>
</g>
<path d="M531.279 389.422C531.279 389.422 527.818 399.078 519.073 397.464L507.891 417.421C507.379 418.317 508.347 419.273 509.189 418.736L538.487 399.496C539.398 398.898 539.511 397.524 538.771 396.747L531.279 389.422Z" fill="black"/>
<path d="M454.296 164.855L427.788 143.345L427.389 131.849L465.318 151.328L454.296 164.855Z" fill="#FAFBFD"/>
<path d="M454.41 165.99L426.991 143.763L426.536 130.475L466.502 151.029L454.41 165.99ZM428.585 142.927L454.239 163.66L464.065 151.567L428.243 133.152L428.585 142.927Z" fill="black"/>
<path d="M400.825 112.538H430.737C432.217 112.538 433.47 113.673 433.698 115.155L441.805 166.158C442.089 168.07 440.734 169.862 438.856 169.862H408.944C407.463 169.862 406.222 168.727 405.994 167.233L397.876 116.23C397.591 114.27 398.946 112.538 400.825 112.538Z" fill="black"/>
<path d="M447.885 104.794C447.885 104.794 441.805 140.955 456.231 135.84L459.636 149.356L475.531 147.755L467.982 101.998L447.885 104.794Z" fill="#FAFBFD"/>
<path d="M459.01 150.193L455.662 136.844C453.339 137.502 451.346 137.083 449.809 135.721C443 129.638 446.974 105.69 447.145 104.675L447.259 104.077L468.665 101.101L476.499 148.532L459.01 150.193ZM456.744 134.765L460.205 148.472L474.62 147.038L467.299 102.942L448.568 105.571C447.999 109.323 445.278 129.459 450.834 134.466C452.144 135.661 453.84 135.84 456.004 135.064L456.744 134.765Z" fill="black"/>
<path d="M403.091 112.538H433.014C434.483 112.538 435.736 113.673 435.963 115.155L444.082 166.158C444.367 168.07 443 169.862 441.133 169.862H411.209C409.74 169.862 408.488 168.727 408.26 167.233L400.142 116.23C399.857 114.27 401.223 112.538 403.091 112.538Z" fill="#FAFBFD"/>
<path d="M441.133 170.627H411.209C409.342 170.627 407.805 169.265 407.463 167.293L399.345 116.29C399.174 115.155 399.458 113.972 400.199 113.075C400.939 112.179 401.963 111.641 403.091 111.641H433.014C434.882 111.641 436.419 113.016 436.76 114.987L444.879 165.99C445.05 167.114 444.765 168.309 444.025 169.205C443.285 170.161 442.203 170.627 441.133 170.627ZM403.091 113.374C402.464 113.374 401.85 113.673 401.394 114.211C400.996 114.748 400.768 115.394 400.882 116.111L409 167.114C409.171 168.249 410.082 169.086 411.152 169.086H441.076C441.702 169.086 442.317 168.787 442.772 168.249C443.171 167.711 443.399 167.054 443.285 166.337L435.166 115.334C434.996 114.211 434.085 113.374 433.014 113.374H403.091Z" fill="black"/>
<path d="M402.977 133.629C402.977 133.629 402.977 137.202 405.995 139.593C405.995 139.593 403.319 140.369 401.451 138.397L397.307 130.833C397.307 130.833 395.77 133.988 396.908 136.019C396.908 136.019 395.77 137.202 396.908 139.174C396.908 139.174 395.77 140.776 397.307 142.747C397.307 142.747 396.908 145.125 398.445 146.32C398.445 146.32 399.174 148.292 405.653 149.894L410.925 151.507L414.728 165.034L424.213 161.461C424.213 161.461 420.068 148.71 415.126 143.166C410.196 137.621 402.977 133.629 402.977 133.629Z" fill="#FAFBFD"/>
<path d="M414.227 166.098L410.298 152.164L405.425 150.671C399.8 149.296 398.217 147.516 397.819 146.858C396.453 145.663 396.396 143.763 396.453 142.987C395.428 141.433 395.599 140.011 395.997 139.175C395.314 137.681 395.656 136.546 395.997 135.96C395.086 133.63 396.509 130.654 396.566 130.475L397.193 129.101L402.021 137.86C402.692 138.517 403.432 138.756 404.059 138.876C402.134 136.486 402.077 133.749 402.077 133.63V132.255L403.205 132.913C403.489 133.092 410.583 137.024 415.525 142.628C420.523 148.292 424.611 160.685 424.782 161.223L425.01 161.987L414.227 166.098ZM399.117 146.022C399.231 146.201 400.426 147.814 405.767 149.117L411.494 150.85L415.183 163.959L423.131 160.984C422.163 158.175 418.531 148.352 414.443 143.763C410.982 139.832 406.279 136.665 403.945 135.243C404.229 136.307 404.913 137.8 406.382 138.995L407.634 140.011L406.108 140.489C405.994 140.537 402.977 141.373 400.768 139.055L400.711 138.995L397.363 132.853C397.136 133.809 397.079 134.884 397.477 135.661L397.819 136.199L397.363 136.665C397.307 136.725 396.68 137.502 397.477 138.816L397.762 139.294L397.42 139.712C397.363 139.832 396.68 140.836 397.762 142.27L397.99 142.568L397.933 142.927C397.933 142.927 397.648 144.827 398.775 145.723L399.003 145.902L399.117 146.022Z" fill="black"/>
<path d="M423.416 157.47L410.925 165.035L425.408 201.495C426.649 204.649 430.509 205.605 433.014 203.347L458.099 179.984C456.516 181.239 457.484 191.779 464.179 199.475C464.179 199.475 467.071 208.94 467.982 218.954C468.552 225.036 466.787 237.787 465.033 243.44C465.033 243.44 482.511 251.84 498.236 247.67C504.43 246.069 520.098 243.44 520.098 243.44C520.098 243.44 519.699 195.723 510.613 173.436C501.527 151.149 494.888 141.433 494.888 141.433C494.888 141.433 461.731 139.234 454.922 149.177C448.113 159.131 432.16 178.622 432.16 178.622L423.416 157.47Z" fill="#FAFBFD"/>
<path d="M488.762 249.642C476.271 249.642 465.26 244.455 464.691 244.156L464.065 243.858L464.293 243.141C465.989 237.608 467.754 224.917 467.185 219.013C466.331 209.895 463.837 201.196 463.496 199.893C458.326 193.811 456.63 186.306 456.686 182.434L433.526 204.004C432.16 205.247 430.338 205.725 428.585 205.307C426.82 204.888 425.408 203.646 424.668 201.853L409.911 164.736L423.757 156.335L432.331 177.068C435.679 172.958 448.397 157.231 454.181 148.711C461.173 138.517 493.465 140.537 494.831 140.597H495.23L495.457 140.895C495.514 141.015 502.266 150.969 511.239 173.077C520.268 195.245 520.769 242.902 520.769 243.38V244.097L520.097 244.216C519.927 244.216 504.373 246.833 498.292 248.447C495.23 249.283 491.939 249.642 488.762 249.642ZM465.989 242.961C469.234 244.395 484.447 250.478 498.065 246.893C503.462 245.471 516.237 243.26 519.3 242.722C519.187 236.711 518.219 194.169 509.872 173.734C501.811 154.005 495.628 144.062 494.432 142.21C490.743 142.031 461.617 140.716 455.548 149.655C448.796 159.49 432.957 178.969 432.786 179.148L431.989 180.164L423.131 158.713L412.006 165.453L426.194 201.255C426.706 202.51 427.731 203.406 428.983 203.765C430.224 204.064 431.534 203.705 432.502 202.809L457.54 179.506C457.586 179.447 457.643 179.447 457.643 179.387L458.668 180.642L458.611 180.701C457.757 181.657 458.155 191.313 464.805 198.997L464.919 199.116L464.976 199.296C465.033 199.415 467.868 208.939 468.779 218.954C469.291 224.857 467.697 236.891 465.989 242.961Z" fill="black"/>
<path d="M459.237 93.2383C459.237 93.2383 447.885 88.8885 445.949 105.989C445.949 105.989 444.082 118.501 455.605 120.52C457.871 120.939 461.287 122.134 459.75 130.893C459.75 130.893 454.068 145.604 460.888 151.985C463.04 154.005 465.033 155.14 471.899 155.558C475.303 155.737 474.677 158.773 478.708 167.891C484.959 181.956 510.556 200.479 536.665 179.446C541.322 175.694 548.086 165.513 530.596 155.558C519.301 149.057 494.66 144.361 490.117 121.715C490.117 121.715 484.447 86.2594 459.237 93.2383Z" fill="black"/>
<path d="M424.668 127.38C424.668 126.603 424.554 125.826 424.384 125.05L425.921 123.269L424.497 120.76L422.334 121.357C421.321 120.222 420.011 119.445 418.474 119.039L417.802 116.768H415.013L414.386 119.039C412.917 119.445 411.608 120.222 410.583 121.357L408.374 120.76L406.951 123.269L408.488 125.109C408.317 125.826 408.203 126.603 408.203 127.38C408.203 128.204 408.317 128.981 408.488 129.698L406.951 131.371L408.374 133.929L410.526 133.451C411.551 134.526 412.86 135.363 414.272 135.781L415.013 138.099H417.802L418.417 135.841C419.897 135.422 421.264 134.646 422.277 133.51L424.44 133.988L425.864 131.431L424.327 129.758C424.554 128.981 424.668 128.145 424.668 127.38ZM416.436 132.136C413.885 132.136 411.836 129.997 411.836 127.32C411.836 124.631 413.885 122.492 416.436 122.492C418.986 122.492 421.036 124.631 421.036 127.32C421.036 129.997 418.929 132.136 416.436 132.136Z" fill="#FFC010"/>
<path d="M430.509 142.15C430.509 141.672 430.452 141.254 430.338 140.836L431.192 139.832L430.395 138.398L429.211 138.697C428.642 138.099 427.902 137.621 427.048 137.382L426.649 136.139H425.067L424.725 137.382C423.871 137.621 423.188 138.04 422.562 138.697L421.32 138.338L420.523 139.772L421.377 140.776C421.263 141.194 421.207 141.613 421.207 142.031C421.207 142.509 421.263 142.927 421.377 143.345L420.523 144.242L421.32 145.664L422.505 145.425C423.074 146.022 423.814 146.5 424.611 146.739L425.01 148.054H426.592L426.934 146.799C427.788 146.56 428.528 146.142 429.097 145.484L430.282 145.723L431.079 144.301L430.225 143.405C430.452 143.047 430.509 142.628 430.509 142.15ZM425.921 144.827C424.497 144.827 423.359 143.644 423.359 142.15C423.359 140.657 424.497 139.474 425.921 139.474C427.332 139.474 428.471 140.657 428.471 142.15C428.471 143.644 427.332 144.827 425.921 144.827Z" fill="#FFC010"/>
<path d="M434.142 131.491C434.142 131.192 434.085 130.893 434.028 130.594L434.597 129.937L434.028 128.981L433.242 129.22C432.844 128.802 432.331 128.503 431.762 128.324L431.477 127.499H430.396L430.168 128.324C429.61 128.503 429.097 128.802 428.699 129.22L427.845 128.981L427.276 129.937L427.845 130.654C427.788 130.953 427.731 131.192 427.731 131.491C427.731 131.789 427.788 132.076 427.845 132.375L427.276 132.972L427.788 133.928L428.642 133.749C429.041 134.167 429.496 134.466 430.054 134.645L430.339 135.542H431.42L431.648 134.705C432.217 134.526 432.73 134.227 433.128 133.809L433.971 133.988L434.483 133.032L433.925 132.375C434.085 132.076 434.142 131.789 434.142 131.491ZM431.022 133.331C430.054 133.331 429.268 132.494 429.268 131.491C429.268 130.475 430.054 129.638 431.022 129.638C431.99 129.638 432.787 130.475 432.787 131.491C432.787 132.494 431.99 133.331 431.022 133.331Z" fill="#FFC010"/>
<mask id="mask19_79_3166" style="mask-type:luminance" maskUnits="userSpaceOnUse" x="0" y="432" width="545" height="3">
<path d="M0 432.239H545V435H0V432.239Z" fill="white"/>
</mask>
<g mask="url(#mask19_79_3166)">
<path d="M1.91296 433.339H543.543V435H1.91296V433.339Z" fill="black"/>
</g>
<path d="M509.759 341.872L490.231 296.772L506.297 245.948L507.55 246.367L491.597 296.653L510.954 341.275L509.759 341.872Z" fill="#FAFBFD"/>
</svg>
