<svg width="395" height="352" viewBox="0 0 395 352" fill="none" xmlns="http://www.w3.org/2000/svg">
<path d="M358.106 62.6745C358.112 61.311 357.939 59.9759 357.606 58.6622C357.267 57.3484 356.774 56.0985 356.121 54.9268C355.469 53.755 354.683 52.6969 353.764 51.7524C352.845 50.8079 351.826 50.0054 350.707 49.3521C349.582 48.7058 348.403 48.2229 347.158 47.9105C345.919 47.6051 344.654 47.4773 343.382 47.527C342.103 47.5767 340.858 47.811 339.646 48.2229C338.427 48.6348 337.282 49.2171 336.21 49.9557C335.817 48.9828 335.351 48.0454 334.811 47.1506C334.279 46.2558 333.679 45.4107 333.013 44.6225C332.347 43.8271 331.635 43.0956 330.862 42.421C330.09 41.7535 329.271 41.1569 328.405 40.6243C327.546 40.0917 326.647 39.6372 325.715 39.2608C324.789 38.8844 323.837 38.5862 322.858 38.3731C321.886 38.1601 320.9 38.0323 319.908 37.9825C318.909 37.9399 317.917 37.9754 316.931 38.1033C315.939 38.224 314.967 38.4299 314.014 38.7211C313.055 39.0123 312.123 39.3815 311.224 39.8289C310.319 40.2834 309.459 40.8018 308.634 41.3984C307.808 41.9949 307.035 42.6624 306.31 43.3868C305.584 44.1183 304.918 44.9065 304.312 45.7445C303.706 46.5896 303.166 47.4773 302.694 48.4147C302.221 49.3521 301.821 50.3179 301.488 51.3192C301.162 52.3276 300.909 53.3502 300.736 54.4012C299.957 53.8828 299.138 53.4709 298.265 53.1656C297.399 52.8531 296.514 52.6543 295.601 52.562C294.689 52.4696 293.783 52.4909 292.878 52.6259C291.972 52.7608 291.093 53.0022 290.234 53.3573C289.382 53.7053 288.583 54.1598 287.823 54.7137C287.071 55.2605 286.385 55.8997 285.766 56.6169C285.146 57.3342 284.614 58.1224 284.167 58.9746C283.721 59.8268 283.368 60.7216 283.115 61.659C282.862 62.6035 282.716 63.5551 282.669 64.5351C282.622 65.508 282.682 66.4809 282.842 67.4396C283.009 68.3983 283.275 69.3286 283.641 70.2234C284.001 71.1182 284.46 71.9562 285.007 72.7445C285.553 73.5256 286.179 74.2287 286.878 74.8607C287.577 75.4856 288.336 76.0254 289.155 76.4656C289.968 76.9059 290.82 77.2397 291.706 77.4741C292.598 77.7013 293.497 77.822 294.416 77.8291H344.68C345.579 77.7723 346.465 77.6303 347.338 77.3959C348.21 77.1616 349.056 76.8491 349.875 76.4443C350.687 76.0396 351.46 75.5567 352.192 74.9956C352.925 74.4346 353.597 73.8026 354.217 73.1066C354.836 72.4036 355.382 71.6508 355.868 70.8412C356.354 70.0317 356.76 69.1795 357.093 68.2918C357.426 67.397 357.679 66.4809 357.853 65.5364C358.019 64.5919 358.106 63.6403 358.106 62.6745Z" fill="#F5F5F5"/>
<path d="M75.4651 187.05C75.4651 185.687 75.2986 184.352 74.959 183.031C74.6194 181.717 74.1266 180.474 73.474 179.303C72.8214 178.131 72.0356 177.073 71.1166 176.128C70.1976 175.184 69.1787 174.388 68.06 173.735C66.9346 173.082 65.7559 172.606 64.5106 172.294C63.2719 171.981 62.0133 171.853 60.7348 171.91C59.4628 171.96 58.2175 172.194 56.9989 172.606C55.7802 173.018 54.6415 173.6 53.5693 174.339C53.1698 173.366 52.7036 172.428 52.1709 171.534C51.6315 170.632 51.0322 169.787 50.3729 168.998C49.707 168.203 48.9878 167.472 48.2153 166.797C47.4428 166.129 46.6237 165.526 45.7647 164.993C44.8989 164.461 44.0066 164.006 43.0743 163.63C42.142 163.253 41.1897 162.955 40.2108 162.742C39.2385 162.529 38.253 162.401 37.2607 162.351C36.2618 162.309 35.2696 162.344 34.284 162.472C33.2918 162.593 32.3195 162.799 31.3606 163.09C30.4017 163.381 29.4694 163.75 28.5704 164.198C27.6647 164.652 26.8056 165.171 25.9799 165.767C25.1541 166.371 24.3817 167.031 23.6558 167.763C22.9299 168.487 22.264 169.275 21.658 170.12C21.052 170.966 20.5126 171.853 20.0398 172.791C19.567 173.728 19.1674 174.694 18.8345 175.702C18.5082 176.704 18.2551 177.733 18.082 178.777C17.3028 178.266 16.4837 177.854 15.618 177.542C14.7457 177.236 13.86 177.03 12.9476 176.945C12.0353 176.853 11.1297 176.874 10.224 177.009C9.31833 177.144 8.4393 177.385 7.58691 177.74C6.73452 178.088 5.92875 178.543 5.16959 179.09C4.41709 179.644 3.73118 180.276 3.11187 181C2.49255 181.717 1.95981 182.505 1.51364 183.358C1.06746 184.21 0.714523 185.105 0.461468 186.042C0.208416 186.979 0.0619095 187.938 0.0152957 188.918C-0.0313198 189.891 0.0286147 190.857 0.195097 191.823C0.35492 192.781 0.621291 193.712 0.987553 194.606C1.35381 195.501 1.80665 196.339 2.35271 197.12C2.90543 197.909 3.52474 198.612 4.22397 199.244C4.9232 199.869 5.68236 200.401 6.50145 200.849C7.31388 201.289 8.16627 201.623 9.05862 201.85C9.9443 202.084 10.85 202.205 11.7623 202.212H62.0466C62.9456 202.155 63.8313 202.013 64.7037 201.779C65.5761 201.545 66.4218 201.225 67.2342 200.82C68.0533 200.415 68.8258 199.933 69.5517 199.372C70.2842 198.811 70.9568 198.179 71.5761 197.483C72.1954 196.78 72.7481 196.027 73.2276 195.217C73.7137 194.408 74.1199 193.555 74.4529 192.661C74.7859 191.773 75.0389 190.85 75.2054 189.905C75.3785 188.961 75.4651 188.009 75.4651 187.05Z" fill="#F5F5F5"/>
<mask id="mask0_74_1370" style="mask-type:luminance" maskUnits="userSpaceOnUse" x="20" y="0" width="108" height="59">
<path d="M20.1131 0.429688H127.514V58.4278H20.1131V0.429688Z" fill="white"/>
</mask>
<g mask="url(#mask0_74_1370)">
<path d="M126.768 36.548C126.768 34.6235 126.529 32.7416 126.056 30.8881C125.576 29.0346 124.884 27.2805 123.965 25.633C123.046 23.9783 121.934 22.487 120.642 21.159C119.343 19.8239 117.911 18.7019 116.327 17.7858C114.748 16.8697 113.083 16.188 111.332 15.7477C109.587 15.3145 107.809 15.1298 106.011 15.2009C104.22 15.279 102.462 15.6056 100.75 16.1809C99.0323 16.7632 97.4208 17.5728 95.9158 18.6167C95.3564 17.2461 94.6971 15.9252 93.938 14.6682C93.1855 13.4042 92.3397 12.2182 91.4008 11.1033C90.4685 9.98125 89.4563 8.95153 88.3708 8.01413C87.2787 7.06963 86.1266 6.22455 84.9146 5.47889C83.696 4.72613 82.4307 4.08699 81.1188 3.56148C79.8136 3.02887 78.4684 2.60988 77.0966 2.31162C75.7248 2.01335 74.333 1.82871 72.9346 1.7648C71.5361 1.70089 70.1377 1.7577 68.7459 1.92813C67.3541 2.10567 65.9823 2.39683 64.6304 2.80162C63.2852 3.21351 61.9734 3.73192 60.7014 4.36395C59.4295 4.99599 58.2175 5.73455 57.0588 6.57252C55.8934 7.4176 54.808 8.3479 53.7824 9.37762C52.7636 10.4002 51.8246 11.5081 50.9722 12.694C50.1132 13.88 49.354 15.1369 48.6881 16.4507C48.0221 17.7716 47.4561 19.1351 46.9899 20.5483C46.5305 21.9615 46.1775 23.4031 45.9311 24.8802C45.3784 24.518 44.819 24.1843 44.233 23.886C43.647 23.5949 43.0543 23.3321 42.4416 23.1119C41.829 22.8918 41.2097 22.7072 40.577 22.5651C39.9511 22.416 39.3118 22.3095 38.6658 22.2456C38.0265 22.1817 37.3806 22.1532 36.7346 22.1674C36.0953 22.1816 35.4494 22.2314 34.8101 22.3237C34.1708 22.416 33.5382 22.5509 32.9122 22.7214C32.2862 22.8918 31.6736 23.0977 31.0742 23.3463C30.4682 23.5949 29.8822 23.8789 29.3095 24.1985C28.7368 24.518 28.1841 24.866 27.6514 25.2566C27.1186 25.6472 26.6058 26.0662 26.1197 26.5136C25.6336 26.9681 25.1674 27.4439 24.7346 27.9552C24.2951 28.4594 23.8889 28.992 23.5093 29.553C23.1297 30.114 22.7834 30.6893 22.4704 31.2929C22.1508 31.8965 21.8711 32.5144 21.6247 33.1464C21.3716 33.7855 21.1585 34.4318 20.9854 35.0993C20.8056 35.7597 20.6658 36.4344 20.5592 37.109C20.4527 37.7908 20.3861 38.4725 20.3528 39.1614C20.3195 39.8502 20.3261 40.5391 20.3727 41.2279C20.4127 41.9168 20.4926 42.5985 20.6125 43.2802C20.7257 43.9549 20.8788 44.6224 21.072 45.2829C21.2584 45.9433 21.4848 46.5896 21.7446 47.2216C22.0043 47.8465 22.2973 48.4644 22.6236 49.0609C22.9499 49.6503 23.3095 50.2255 23.6957 50.7794C24.082 51.3263 24.5015 51.8518 24.941 52.3489C25.3872 52.8531 25.86 53.3218 26.3528 53.7621C26.8522 54.2024 27.3717 54.6143 27.9111 54.9906C28.4505 55.367 29.0098 55.7079 29.5825 56.0204C30.1619 56.3257 30.7546 56.5956 31.3606 56.8299C31.9666 57.0643 32.5859 57.2631 33.2119 57.4194C33.8445 57.5827 34.4771 57.6963 35.1164 57.7815C35.7557 57.8597 36.4017 57.9023 37.0476 57.9023H107.876C109.141 57.8241 110.386 57.6253 111.618 57.2986C112.85 56.972 114.042 56.5175 115.188 55.9493C116.34 55.3812 117.425 54.6995 118.458 53.9112C119.483 53.1158 120.435 52.2282 121.308 51.2481C122.18 50.261 122.953 49.1958 123.632 48.0596C124.318 46.9162 124.89 45.7161 125.357 44.4591C125.823 43.195 126.176 41.9026 126.415 40.5746C126.655 39.2395 126.768 37.8973 126.768 36.548Z" fill="#F5F5F5"/>
</g>
<path d="M354.083 85.0016C354.083 85.0016 372.41 79.7039 383.857 128.626C394.918 175.951 385.635 178.472 383.917 179.438C378.27 182.576 342.336 187.128 323.63 181.007C304.931 174.885 260.5 162.657 260.5 162.657C260.5 162.657 286.578 170.184 291.506 126.361C296.434 82.5374 327.373 62.9798 354.083 85.0016Z" fill="#2B2B2B"/>
<path d="M337.155 170.546C339.187 170.582 341.191 170.362 343.175 169.893C345.16 169.424 347.064 168.714 348.896 167.777C350.72 166.832 352.425 165.675 354.003 164.311C355.582 162.948 356.993 161.4 358.232 159.688C364.558 150.712 377.99 141.963 375.426 113.635C372.776 84.4406 331.182 73.7031 315.24 85.3851C290.294 103.6 293.058 140.947 303 157.892C309.18 168.38 325.608 170.447 337.155 170.546Z" fill="#2B2B2B"/>
<path d="M344.581 159.269C344.581 159.269 341.304 177.634 340.292 186.227C340.292 186.227 307.362 219.007 310.085 184.366C310.085 184.366 316.205 155.044 317.477 140.479C318.749 125.906 344.581 159.269 344.581 159.269Z" fill="#FFE1B6"/>
<path d="M316.445 149.448L343.029 168.21C343.029 168.21 329.211 187.228 310.245 183.322C310.245 183.329 314.587 162.955 316.445 149.448Z" fill="#2B2B2B"/>
<path d="M310.891 100.171C310.891 100.171 294.756 133.562 306.23 156.216C316.705 176.895 336.416 178.891 355.215 159.056C355.215 159.056 360.356 163.488 365.957 156.45C371.551 149.419 374.334 138.377 360.09 141.388C360.09 141.388 367.482 123.861 362.661 108.863C358.312 95.2705 317.471 91.2084 310.891 100.171Z" fill="#FFE1B6"/>
<path d="M339.593 133.654C338.94 136.331 339.839 138.888 341.59 139.364C343.349 139.832 345.3 138.043 345.952 135.358C346.612 132.674 345.699 130.139 343.948 129.663C342.196 129.187 340.245 130.977 339.593 133.654Z" fill="#2B2B2B"/>
<path d="M320.774 125.928C321.206 125.97 321.613 126.141 321.992 126.432C322.372 126.73 322.691 127.121 322.958 127.618C323.224 128.115 323.411 128.683 323.524 129.308C323.637 129.933 323.664 130.579 323.604 131.24C323.55 131.9 323.411 132.525 323.191 133.121C322.971 133.718 322.691 134.229 322.345 134.67C321.999 135.103 321.613 135.429 321.186 135.643C320.767 135.856 320.341 135.941 319.908 135.898C319.475 135.856 319.069 135.685 318.689 135.394C318.31 135.103 317.99 134.705 317.724 134.208C317.457 133.711 317.271 133.15 317.158 132.525C317.044 131.893 317.018 131.254 317.078 130.593C317.131 129.933 317.271 129.301 317.491 128.711C317.71 128.115 317.99 127.597 318.336 127.163C318.683 126.723 319.069 126.396 319.495 126.183C319.914 125.97 320.341 125.885 320.774 125.928Z" fill="#2B2B2B"/>
<path d="M332.727 133.072C331.602 134.641 330.39 136.14 329.091 137.553C328.518 138.149 327.886 138.668 327.2 139.101C325.382 140.727 327.606 143.106 328.778 144.377C329.118 144.732 329.471 145.073 329.784 145.457C329.89 145.57 329.97 145.712 330.01 145.876C330.037 145.698 330.01 145.535 329.937 145.372C329.424 144.328 328.858 143.312 328.239 142.332C327.932 141.842 327.733 141.31 327.633 140.727C327.593 140.408 327.706 140.173 327.972 140.017L328.372 139.761C330.509 138.043 331.955 135.813 332.694 133.072H332.727Z" fill="#2B2B2B"/>
<path d="M309.779 121.163C311.224 120.58 312.696 120.111 314.201 119.771C315.666 119.401 317.151 119.259 318.656 119.337C320.068 119.465 321.433 119.799 322.758 120.325C324.203 120.843 325.648 121.439 327.173 122.015L327.286 121.844C326.727 121.226 326.121 120.665 325.475 120.161C323.537 118.691 321.106 117.186 318.609 117.264C316.159 117.633 313.848 118.443 311.67 119.692C310.978 120.083 310.318 120.523 309.679 121.006L309.779 121.177V121.163Z" fill="#2B2B2B"/>
<path d="M357.453 130.38C355.921 127.256 353.797 124.685 351.073 122.682C348.896 121.461 346.145 121.617 343.801 121.972C342.996 122.107 342.203 122.306 341.431 122.576V122.775C343.009 123.037 344.587 123.215 346.072 123.456C347.484 123.627 348.842 123.996 350.148 124.564C351.519 125.218 352.771 126.056 353.91 127.099C355.102 128.129 356.201 129.251 357.22 130.473L357.4 130.366L357.453 130.38Z" fill="#2B2B2B"/>
<path d="M303.2 147.644C303.2 147.644 296.98 150.002 293.877 141.395C290.773 132.788 291.559 121.376 304.072 129.251" fill="#FFE1B6"/>
<path d="M341.451 108.678C341.637 108.941 341.864 109.154 342.13 109.317C342.39 109.481 342.676 109.587 342.982 109.63C343.282 109.672 343.588 109.651 343.881 109.566C344.181 109.488 344.447 109.346 344.694 109.147C345.28 108.643 345.952 108.38 346.705 108.366C347.457 108.351 348.137 108.579 348.743 109.062C358.312 115.19 350.081 139.676 359.944 141.466L368.121 125.502L365.364 103.295L352.412 94.5319L329.97 92.5932L311.53 96.3641C311.53 96.3641 301.448 115.24 302.714 128.442C302.714 128.442 310.711 127.909 314.287 116.454C317.55 105.859 334.305 98.807 341.451 108.678Z" fill="#2B2B2B"/>
<path d="M311.524 175.617C311.524 175.617 319.508 200.984 340.658 183.748C340.658 183.748 363.253 189.373 367.449 193.449C370.605 196.538 352.678 305.944 337.675 343.085C337.675 343.085 262.491 361.428 268.851 292.863C268.851 292.863 264.769 181.362 270.13 178.415C275.497 175.468 311.524 175.617 311.524 175.617Z" fill="#FFC010"/>
<path d="M316.905 346.117H316.505C305.584 346.075 290.387 343.951 279.972 334.144C270.396 325.125 266.394 311.22 268.119 292.827C268.072 291.4 267.093 264.073 266.753 236.74C266.041 179.75 268.685 178.308 269.817 177.655C275.284 174.658 310.072 174.758 311.55 174.758C311.91 174.772 312.15 174.957 312.27 175.319C312.27 175.418 315.666 185.793 323.457 188.336C328.345 189.926 333.986 188.158 340.225 183.066C340.605 182.889 340.918 182.981 341.171 183.329C341.417 183.677 341.417 184.025 341.158 184.366C334.498 189.792 328.392 191.652 322.984 189.898C315.439 187.42 311.837 178.713 310.998 176.391C298.452 176.391 274.558 176.888 270.496 179.111C270.163 179.388 268.964 181.639 268.425 198.143C268.119 207.787 268.065 220.932 268.265 237.215C268.625 264.947 269.617 292.522 269.637 292.792C269.637 292.835 269.637 292.87 269.637 292.906C267.979 310.773 271.801 324.23 281.004 332.894C300.29 351.06 337.162 342.339 337.535 342.254C337.735 342.218 337.921 342.254 338.101 342.375C338.274 342.488 338.387 342.652 338.441 342.865C338.481 343.085 338.447 343.284 338.334 343.475C338.228 343.66 338.074 343.788 337.875 343.845C330.956 345.35 323.963 346.11 316.905 346.117Z" fill="#2B2B2B"/>
<path d="M389.198 179.466C389.065 179.445 388.945 179.388 388.832 179.296C388.725 179.21 388.645 179.097 388.585 178.962C388.532 178.827 388.512 178.692 388.525 178.543C388.539 178.401 388.585 178.266 388.665 178.145C404.001 159.425 377.671 101.378 377.404 100.795C373.209 92.1386 368.354 86.8693 363 85.1649C361.595 84.682 360.163 84.4974 358.698 84.5968C357.227 84.6962 355.828 85.0797 354.496 85.7473C354.097 85.8893 353.784 85.7686 353.564 85.378C353.351 84.9874 353.397 84.6394 353.704 84.327C355.209 83.5387 356.8 83.0771 358.472 82.9422C360.143 82.8143 361.782 83.0132 363.38 83.56C369.16 85.378 374.334 90.9172 378.749 100.028C383.338 110.397 387.2 121.07 390.323 132.042C396.73 155.079 396.556 170.937 389.791 179.182C389.637 179.374 389.438 179.466 389.198 179.466Z" fill="#2B2B2B"/>
<path d="M331.655 154.952C329.943 154.937 328.365 154.447 326.914 153.474C326.654 153.141 326.64 152.8 326.874 152.452C327.107 152.097 327.413 151.99 327.793 152.139C328.006 152.303 332.754 155.733 337.622 150.222C337.742 149.981 337.935 149.838 338.188 149.796C338.447 149.746 338.667 149.824 338.86 150.016C339.047 150.208 339.127 150.442 339.1 150.719C339.073 150.989 338.947 151.202 338.727 151.344C336.223 154.149 333.713 154.952 331.655 154.952Z" fill="#2B2B2B"/>
<path d="M295.515 337.929C295.515 338.696 295.455 339.463 295.315 340.223C295.182 340.983 294.975 341.714 294.702 342.431C294.429 343.149 294.096 343.823 293.697 344.47C293.304 345.116 292.851 345.712 292.338 346.259C291.832 346.806 291.28 347.296 290.68 347.729C290.081 348.162 289.448 348.532 288.782 348.83C288.116 349.128 287.43 349.355 286.725 349.505C286.012 349.661 285.299 349.739 284.574 349.746L62.7325 350.335C62.0133 350.343 61.3008 350.272 60.5882 350.122C59.8823 349.98 59.1898 349.76 58.5238 349.469C57.8579 349.178 57.2186 348.823 56.6193 348.397C56.0133 347.978 55.4539 347.495 54.9411 346.948C54.4284 346.408 53.9689 345.819 53.5627 345.18C53.1565 344.541 52.8168 343.866 52.5371 343.156C52.2575 342.446 52.0444 341.714 51.8978 340.961C51.7513 340.202 51.6781 339.442 51.6714 338.668L51.6182 326.766L50.3529 87.4232L50.273 71.4377C50.273 70.6708 50.3396 69.9038 50.4728 69.1439C50.6126 68.3841 50.8124 67.6526 51.0854 66.9354C51.3584 66.2181 51.6981 65.5435 52.091 64.8972C52.4905 64.251 52.9434 63.6545 53.4561 63.1077C53.9622 62.5608 54.515 62.0708 55.1143 61.6376C55.7136 61.2045 56.3463 60.8423 57.0122 60.5369C57.6781 60.2386 58.364 60.0114 59.0699 59.8623C59.7825 59.706 60.495 59.6279 61.2209 59.6208L92.1666 59.4717L103.095 59.2799H241.641L256.651 59.1521L283.082 59.0243C283.808 59.0172 284.52 59.0882 285.233 59.2302C285.939 59.3794 286.631 59.5924 287.297 59.8836C287.97 60.1747 288.602 60.5369 289.208 60.9559C289.808 61.382 290.367 61.8649 290.88 62.4117C291.393 62.9514 291.852 63.5409 292.258 64.18C292.665 64.8191 293.004 65.4938 293.284 66.2039C293.564 66.9141 293.777 67.6526 293.923 68.4054C294.07 69.1581 294.143 69.9251 294.143 70.6992L294.223 87.409L295.428 326.751L295.515 337.929Z" fill="white"/>
<path d="M73.0078 64.1942H271.415C272.907 64.1942 274.385 64.3504 275.843 64.6629C277.308 64.9753 278.733 65.4369 280.112 66.0476C281.49 66.6584 282.796 67.404 284.041 68.2917C285.279 69.1723 286.425 70.1807 287.484 71.3099C288.536 72.4319 289.482 73.6605 290.307 74.9885C291.14 76.3093 291.839 77.7083 292.405 79.1854C292.978 80.6555 293.41 82.1752 293.704 83.7375C293.99 85.2999 294.136 86.8764 294.136 88.4742V97.0245H50.273V88.4671C50.273 86.8693 50.4195 85.2928 50.7125 83.7304C51.0055 82.1681 51.4384 80.6484 52.0044 79.1783C52.5771 77.7012 53.2763 76.3022 54.1087 74.9814C54.9345 73.6534 55.8801 72.4248 56.9323 71.3028C57.9911 70.1736 59.1365 69.1723 60.3818 68.2846C61.6204 67.3969 62.9323 66.6513 64.3108 66.0405C65.6892 65.4298 67.1077 64.9753 68.5727 64.6629C70.0378 64.3504 71.5161 64.1942 73.0078 64.1942Z" fill="#FFC010"/>
<path d="M294.136 97.8341H50.273C49.8867 97.7204 49.6936 97.4506 49.6936 97.0174C49.6936 96.5913 49.8867 96.3143 50.273 96.2007H294.136C294.389 96.1297 294.616 96.1794 294.822 96.3498C295.029 96.5203 295.135 96.7404 295.135 97.0174C295.135 97.2943 295.029 97.5216 294.822 97.692C294.616 97.8554 294.389 97.9051 294.136 97.8341Z" fill="#2B2B2B"/>
<path d="M79.1144 77.7722C79.1144 78.3191 79.0611 78.8588 78.9612 79.3985C78.8613 79.9382 78.7148 80.4637 78.5217 80.9679C78.3219 81.4721 78.0822 81.955 77.7959 82.4095C77.5095 82.8711 77.1832 83.2901 76.8236 83.6807C76.4573 84.0642 76.0644 84.4122 75.6382 84.7175C75.212 85.0229 74.7592 85.2785 74.2864 85.4916C73.8136 85.6975 73.3208 85.8609 72.8214 85.9674C72.3153 86.0739 71.8025 86.1236 71.2897 86.1236C70.777 86.1236 70.2709 86.0739 69.7647 85.9674C69.2653 85.8609 68.7725 85.6975 68.2997 85.4916C67.8269 85.2785 67.3741 85.0229 66.9479 84.7175C66.5217 84.4122 66.1221 84.0642 65.7625 83.6807C65.3962 83.2901 65.0699 82.8711 64.7903 82.4095C64.5039 81.955 64.2642 81.4721 64.0644 80.9679C63.8713 80.4637 63.7181 79.9382 63.6182 79.3985C63.5183 78.8588 63.4717 78.3191 63.4717 77.7722C63.4717 77.2183 63.5183 76.6786 63.6182 76.1389C63.7181 75.5992 63.8713 75.0808 64.0644 74.5695C64.2642 74.0652 64.5039 73.5823 64.7903 73.1278C65.0699 72.6734 65.3962 72.2473 65.7625 71.8638C66.1221 71.4732 66.5217 71.1252 66.9479 70.8199C67.3741 70.5145 67.8269 70.2588 68.2997 70.0529C68.7725 69.8398 69.2653 69.6836 69.7647 69.5771C70.2709 69.4706 70.777 69.4138 71.2897 69.4138C71.8025 69.4138 72.3153 69.4706 72.8214 69.5771C73.3208 69.6836 73.8136 69.8398 74.2864 70.0529C74.7592 70.2588 75.212 70.5145 75.6382 70.8199C76.0644 71.1252 76.4573 71.4732 76.8236 71.8638C77.1832 72.2473 77.5095 72.6734 77.7959 73.1278C78.0822 73.5823 78.3219 74.0652 78.5217 74.5695C78.7148 75.0808 78.8613 75.5992 78.9612 76.1389C79.0611 76.6786 79.1144 77.2183 79.1144 77.7722Z" fill="white"/>
<path d="M104.639 77.7722C104.639 78.3191 104.586 78.8588 104.486 79.3985C104.386 79.9382 104.24 80.4637 104.04 80.9679C103.847 81.4721 103.601 81.955 103.321 82.4095C103.035 82.8711 102.708 83.2901 102.342 83.6807C101.982 84.0642 101.59 84.4122 101.157 84.7175C100.73 85.0229 100.284 85.2785 99.8048 85.4916C99.332 85.6975 98.8459 85.8609 98.3398 85.9674C97.8337 86.0739 97.3276 86.1236 96.8148 86.1236C96.302 86.1236 95.7893 86.0739 95.2898 85.9674C94.7837 85.8609 94.2976 85.6975 93.8181 85.4916C93.3453 85.2785 92.8925 85.0229 92.4663 84.7175C92.0401 84.4122 91.6472 84.0642 91.2809 83.6807C90.9213 83.2901 90.595 82.8711 90.3087 82.4095C90.0223 81.955 89.7826 81.4721 89.5895 80.9679C89.3897 80.4637 89.2432 79.9382 89.1433 79.3985C89.0434 78.8588 88.9901 78.3191 88.9901 77.7722C88.9901 77.2183 89.0434 76.6786 89.1433 76.1389C89.2432 75.5992 89.3897 75.0808 89.5895 74.5695C89.7826 74.0652 90.0223 73.5823 90.3087 73.1278C90.595 72.6734 90.9213 72.2473 91.2809 71.8638C91.6472 71.4732 92.0401 71.1252 92.4663 70.8199C92.8925 70.5145 93.3453 70.2588 93.8181 70.0529C94.2976 69.8398 94.7837 69.6836 95.2898 69.5771C95.7893 69.4706 96.302 69.4138 96.8148 69.4138C97.3276 69.4138 97.8337 69.4706 98.3398 69.5771C98.8459 69.6836 99.332 69.8398 99.8048 70.0529C100.284 70.2588 100.73 70.5145 101.157 70.8199C101.59 71.1252 101.982 71.4732 102.342 71.8638C102.708 72.2473 103.035 72.6734 103.321 73.1278C103.601 73.5823 103.847 74.0652 104.04 74.5695C104.24 75.0808 104.386 75.5992 104.486 76.1389C104.586 76.6786 104.639 77.2183 104.639 77.7722Z" fill="white"/>
<path d="M129.785 77.7722C129.785 78.3191 129.738 78.8588 129.638 79.3985C129.539 79.9382 129.385 80.4637 129.192 80.9679C128.993 81.4721 128.753 81.955 128.466 82.4095C128.18 82.8711 127.86 83.2901 127.494 83.6807C127.135 84.0642 126.735 84.4122 126.309 84.7175C125.883 85.0229 125.43 85.2785 124.957 85.4916C124.484 85.6975 123.991 85.8609 123.492 85.9674C122.986 86.0739 122.48 86.1236 121.967 86.1236C121.448 86.1236 120.941 86.0739 120.435 85.9674C119.936 85.8609 119.443 85.6975 118.97 85.4916C118.497 85.2785 118.045 85.0229 117.618 84.7175C117.192 84.4122 116.799 84.0642 116.433 83.6807C116.067 83.2901 115.747 82.8711 115.461 82.4095C115.174 81.955 114.935 81.4721 114.735 80.9679C114.542 80.4637 114.395 79.9382 114.289 79.3985C114.189 78.8588 114.142 78.3191 114.142 77.7722C114.142 77.2183 114.189 76.6786 114.289 76.1389C114.395 75.5992 114.542 75.0808 114.735 74.5695C114.935 74.0652 115.174 73.5823 115.461 73.1278C115.747 72.6734 116.067 72.2473 116.433 71.8638C116.799 71.4732 117.192 71.1252 117.618 70.8199C118.045 70.5145 118.497 70.2588 118.97 70.0529C119.443 69.8398 119.936 69.6836 120.435 69.5771C120.941 69.4706 121.448 69.4138 121.967 69.4138C122.48 69.4138 122.986 69.4706 123.492 69.5771C123.991 69.6836 124.484 69.8398 124.957 70.0529C125.43 70.2588 125.883 70.5145 126.309 70.8199C126.735 71.1252 127.135 71.4732 127.494 71.8638C127.86 72.2473 128.18 72.6734 128.466 73.1278C128.753 73.5823 128.993 74.0652 129.192 74.5695C129.385 75.0808 129.539 75.5992 129.638 76.1389C129.738 76.6786 129.785 77.2183 129.785 77.7722Z" fill="white"/>
<path d="M62.6859 351.181C61.9201 351.181 61.1543 351.095 60.4018 350.939C59.6493 350.776 58.9167 350.541 58.2108 350.229C57.4983 349.909 56.8257 349.526 56.1798 349.071C55.5405 348.617 54.9478 348.098 54.4084 347.523C53.8623 346.941 53.3762 346.316 52.9433 345.634C52.5171 344.953 52.1509 344.235 51.8512 343.475C51.5582 342.716 51.3318 341.934 51.1786 341.132C51.0255 340.329 50.9456 339.513 50.9389 338.696L50.8723 326.801L49.5871 87.4374L49.5138 71.4448C49.5071 70.621 49.5737 69.8044 49.7202 68.9877C49.8667 68.1781 50.0798 67.3898 50.3729 66.6229C50.6592 65.8559 51.0188 65.1245 51.445 64.4356C51.8712 63.7468 52.3507 63.1076 52.8967 62.5182C53.4428 61.9288 54.0288 61.4033 54.6748 60.9417C55.3141 60.4801 55.9933 60.0824 56.7058 59.7628C57.4184 59.4432 58.1509 59.2018 58.9101 59.0385C59.6692 58.8751 60.435 58.7899 61.2075 58.7899L92.1599 58.6337L256.618 58.3141L283.049 58.1863H283.109C283.874 58.1863 284.634 58.2715 285.393 58.4277C286.145 58.5911 286.878 58.8254 287.584 59.1379C288.296 59.4574 288.969 59.8409 289.608 60.2954C290.254 60.7499 290.84 61.2683 291.386 61.8436C291.932 62.4259 292.418 63.0508 292.851 63.7326C293.277 64.4143 293.644 65.1316 293.937 65.8914C294.236 66.6513 294.463 67.4325 294.616 68.2349C294.769 69.0374 294.849 69.847 294.856 70.6707L294.935 87.3806L296.214 326.744L296.274 337.922C296.274 338.746 296.201 339.562 296.054 340.372C295.908 341.182 295.688 341.963 295.395 342.73C295.102 343.49 294.742 344.214 294.316 344.903C293.89 345.592 293.404 346.231 292.864 346.813C292.318 347.403 291.732 347.921 291.086 348.383C290.447 348.844 289.774 349.235 289.062 349.554C288.349 349.874 287.617 350.115 286.858 350.286C286.105 350.449 285.339 350.534 284.567 350.534L62.7325 351.181H62.6859ZM283.135 59.8977H283.089L256.631 59.9759L92.1666 60.2954L61.2208 60.4517C60.5483 60.4517 59.8823 60.5227 59.2231 60.6718C58.5638 60.8138 57.9245 61.0198 57.3052 61.3038C56.6925 61.5808 56.0998 61.9146 55.5471 62.3194C54.9877 62.717 54.475 63.1715 54.0022 63.6829C53.5294 64.1942 53.1098 64.7481 52.7369 65.3446C52.364 65.9411 52.0577 66.5732 51.7979 67.2407C51.5449 67.9012 51.3584 68.59 51.2252 69.293C51.0987 69.9961 51.0388 70.7062 51.0388 71.4235L51.112 87.409L52.4106 326.723L52.4639 338.625C52.4705 339.342 52.5438 340.045 52.677 340.748C52.8102 341.444 53.0099 342.126 53.2696 342.779C53.5294 343.44 53.8423 344.065 54.2219 344.654C54.5948 345.244 55.0144 345.798 55.4939 346.295C55.9667 346.799 56.4794 347.253 57.0321 347.644C57.5915 348.042 58.1775 348.375 58.7969 348.652C59.4095 348.922 60.0488 349.135 60.7014 349.277C61.3607 349.412 62.02 349.49 62.6859 349.49H62.7325L284.574 348.894C285.246 348.887 285.912 348.809 286.565 348.667C287.224 348.517 287.863 348.304 288.476 348.027C289.095 347.751 289.681 347.41 290.241 347.005C290.793 346.607 291.306 346.153 291.779 345.641C292.252 345.13 292.671 344.583 293.044 343.987C293.41 343.383 293.723 342.758 293.983 342.098C294.236 341.43 294.429 340.748 294.556 340.045C294.689 339.342 294.756 338.632 294.756 337.922L294.696 326.751L293.41 87.4232L293.331 70.7133C293.324 70.0032 293.251 69.293 293.117 68.5971C292.978 67.894 292.784 67.2194 292.525 66.559C292.265 65.9056 291.945 65.2807 291.573 64.6913C291.2 64.1018 290.773 63.5479 290.301 63.0508C289.828 62.5466 289.315 62.0992 288.756 61.7015C288.203 61.3038 287.617 60.9701 286.998 60.7002C286.378 60.4233 285.746 60.2173 285.093 60.0753C284.434 59.9333 283.774 59.8622 283.109 59.8622L283.135 59.8977Z" fill="#2B2B2B"/>
<path d="M105.332 119.607H159.512C161.23 119.607 162.942 119.792 164.626 120.147C166.318 120.509 167.956 121.035 169.548 121.745C171.133 122.448 172.644 123.307 174.076 124.33C175.508 125.352 176.833 126.51 178.052 127.81C179.27 129.116 180.356 130.529 181.308 132.056C182.267 133.583 183.073 135.202 183.732 136.9C184.391 138.597 184.891 140.351 185.224 142.155C185.563 143.958 185.73 145.776 185.73 147.616V150.641C185.73 152.48 185.563 154.298 185.224 156.102C184.891 157.906 184.391 159.66 183.732 161.357C183.073 163.054 182.267 164.666 181.308 166.2C180.356 167.727 179.27 169.14 178.052 170.44C176.833 171.74 175.508 172.904 174.076 173.927C172.644 174.942 171.133 175.809 169.548 176.512C167.956 177.215 166.318 177.747 164.626 178.103C162.942 178.465 161.23 178.642 159.512 178.642H105.332C103.607 178.642 101.903 178.465 100.218 178.103C98.5263 177.747 96.8881 177.215 95.2965 176.512C93.7116 175.809 92.1999 174.942 90.7682 173.927C89.3364 172.904 88.0112 171.74 86.7926 170.44C85.5739 169.14 84.4885 167.727 83.5295 166.2C82.5772 164.666 81.7715 163.054 81.1122 161.357C80.4529 159.66 79.9535 157.906 79.6205 156.102C79.2809 154.298 79.1144 152.48 79.1144 150.641V147.616C79.1144 145.776 79.2809 143.958 79.6205 142.155C79.9535 140.351 80.4529 138.597 81.1122 136.9C81.7715 135.202 82.5772 133.583 83.5295 132.056C84.4885 130.529 85.5739 129.116 86.7926 127.81C88.0112 126.51 89.3364 125.352 90.7682 124.33C92.1999 123.307 93.7116 122.448 95.2965 121.745C96.8881 121.035 98.5263 120.509 100.218 120.147C101.903 119.792 103.607 119.607 105.332 119.607Z" fill="#F5F5F5"/>
<path d="M169.794 135.351H95.6494C95.2632 135.238 95.0701 134.968 95.0701 134.535C95.0701 134.109 95.2632 133.839 95.6494 133.725H169.794C170.04 133.647 170.273 133.697 170.48 133.867C170.686 134.038 170.786 134.258 170.786 134.535C170.786 134.819 170.686 135.039 170.48 135.209C170.273 135.38 170.04 135.422 169.794 135.351Z" fill="#2B2B2B"/>
<path d="M169.794 151.415H95.6494C95.2632 151.301 95.0701 151.031 95.0701 150.598C95.0701 150.172 95.2632 149.895 95.6494 149.789H169.794C170.04 149.711 170.273 149.76 170.48 149.931C170.686 150.101 170.786 150.321 170.786 150.598C170.786 150.875 170.686 151.103 170.48 151.273C170.273 151.436 170.04 151.486 169.794 151.415Z" fill="#2B2B2B"/>
<path d="M169.794 167.472H95.6494C95.2632 167.358 95.0701 167.081 95.0701 166.655C95.0701 166.222 95.2632 165.952 95.6494 165.838H169.794C170.04 165.767 170.273 165.817 170.48 165.98C170.686 166.151 170.786 166.378 170.786 166.655C170.786 166.932 170.686 167.159 170.48 167.322C170.273 167.493 170.04 167.543 169.794 167.472Z" fill="#2B2B2B"/>
<path d="M186.968 202.212H241.148C242.873 202.212 244.578 202.39 246.263 202.745C247.954 203.107 249.592 203.64 251.184 204.343C252.775 205.046 254.287 205.905 255.712 206.928C257.144 207.95 258.469 209.115 259.688 210.414C260.906 211.714 261.992 213.127 262.951 214.654C263.903 216.188 264.716 217.8 265.368 219.497C266.027 221.194 266.527 222.949 266.867 224.752C267.2 226.556 267.366 228.374 267.366 230.213V233.239C267.366 235.078 267.2 236.896 266.867 238.7C266.527 240.503 266.027 242.258 265.368 243.955C264.716 245.652 263.903 247.271 262.951 248.798C261.992 250.325 260.906 251.738 259.688 253.038C258.469 254.344 257.144 255.502 255.712 256.525C254.287 257.547 252.775 258.406 251.184 259.109C249.592 259.813 247.954 260.345 246.263 260.707C244.578 261.062 242.873 261.247 241.148 261.247H186.968C185.25 261.247 183.545 261.062 181.854 260.707C180.169 260.345 178.524 259.813 176.939 259.109C175.348 258.406 173.836 257.547 172.404 256.525C170.973 255.502 169.647 254.344 168.429 253.038C167.217 251.738 166.125 250.325 165.172 248.798C164.214 247.271 163.408 245.652 162.748 243.955C162.089 242.258 161.59 240.503 161.257 238.7C160.917 236.896 160.751 235.078 160.751 233.239V230.213C160.751 228.374 160.917 226.556 161.257 224.752C161.59 222.949 162.089 221.194 162.748 219.497C163.408 217.8 164.214 216.188 165.172 214.654C166.125 213.127 167.217 211.714 168.429 210.414C169.647 209.115 170.973 207.95 172.404 206.928C173.836 205.905 175.348 205.046 176.939 204.343C178.524 203.64 180.169 203.107 181.854 202.745C183.545 202.39 185.25 202.212 186.968 202.212Z" fill="#F5F5F5"/>
<path d="M251.39 217.949H177.292C176.899 217.843 176.706 217.566 176.706 217.139C176.706 216.706 176.899 216.436 177.292 216.323H251.39C251.643 216.252 251.87 216.294 252.076 216.465C252.283 216.635 252.389 216.863 252.389 217.139C252.389 217.416 252.283 217.637 252.076 217.807C251.87 217.977 251.643 218.027 251.39 217.949Z" fill="#2B2B2B"/>
<path d="M251.39 234.006H177.292C176.899 233.892 176.706 233.622 176.706 233.189C176.706 232.763 176.899 232.493 177.292 232.379H251.39C251.643 232.301 251.87 232.351 252.076 232.521C252.283 232.692 252.389 232.912 252.389 233.189C252.389 233.473 252.283 233.693 252.076 233.864C251.87 234.034 251.643 234.077 251.39 234.006Z" fill="#2B2B2B"/>
<path d="M251.39 250.069H177.292C176.899 249.956 176.706 249.686 176.706 249.253C176.706 248.826 176.899 248.549 177.292 248.443H251.39C251.643 248.365 251.87 248.415 252.076 248.585C252.283 248.755 252.389 248.976 252.389 249.253C252.389 249.529 252.283 249.757 252.076 249.927C251.87 250.091 251.643 250.14 251.39 250.069Z" fill="#2B2B2B"/>
<path d="M215.437 124.664H217.421C218.047 124.664 218.667 124.735 219.279 124.862C219.892 124.99 220.491 125.182 221.071 125.438C221.643 125.693 222.196 126.013 222.715 126.382C223.235 126.751 223.714 127.178 224.161 127.646C224.6 128.122 225 128.633 225.346 129.187C225.692 129.748 225.985 130.331 226.225 130.948C226.465 131.566 226.644 132.205 226.771 132.859C226.891 133.512 226.951 134.18 226.951 134.847V136.963C226.951 137.631 226.891 138.291 226.771 138.952C226.644 139.605 226.465 140.244 226.225 140.862C225.985 141.48 225.692 142.062 225.346 142.616C225 143.177 224.6 143.689 224.161 144.164C223.714 144.633 223.235 145.059 222.715 145.428C222.196 145.798 221.65 146.11 221.071 146.366C220.491 146.622 219.892 146.82 219.279 146.948C218.667 147.076 218.047 147.14 217.421 147.147H215.437C214.811 147.14 214.192 147.076 213.579 146.948C212.966 146.82 212.367 146.622 211.794 146.366C211.215 146.11 210.662 145.798 210.143 145.428C209.623 145.059 209.144 144.633 208.698 144.164C208.258 143.689 207.865 143.177 207.512 142.616C207.166 142.062 206.873 141.48 206.633 140.862C206.394 140.244 206.214 139.605 206.094 138.952C205.967 138.291 205.907 137.631 205.907 136.963V134.847C205.907 134.18 205.967 133.512 206.094 132.859C206.214 132.205 206.394 131.566 206.633 130.948C206.873 130.331 207.166 129.748 207.512 129.187C207.865 128.633 208.258 128.122 208.698 127.646C209.144 127.178 209.623 126.751 210.143 126.382C210.662 126.013 211.215 125.693 211.794 125.438C212.367 125.182 212.966 124.99 213.579 124.862C214.192 124.735 214.811 124.664 215.437 124.664Z" fill="#FFC010"/>
<path d="M249.373 124.664H251.357C251.983 124.664 252.602 124.735 253.215 124.862C253.834 124.99 254.427 125.182 255.006 125.438C255.586 125.693 256.132 126.013 256.651 126.382C257.171 126.751 257.657 127.178 258.096 127.646C258.542 128.122 258.935 128.633 259.282 129.187C259.628 129.748 259.921 130.331 260.161 130.948C260.4 131.566 260.58 132.205 260.707 132.859C260.827 133.512 260.887 134.18 260.887 134.847V136.963C260.887 137.631 260.827 138.291 260.707 138.952C260.58 139.605 260.4 140.244 260.161 140.862C259.921 141.48 259.628 142.062 259.282 142.616C258.935 143.177 258.542 143.689 258.096 144.164C257.657 144.633 257.171 145.059 256.651 145.428C256.132 145.798 255.586 146.11 255.006 146.366C254.427 146.622 253.834 146.82 253.215 146.948C252.602 147.076 251.983 147.14 251.357 147.147H249.373C248.747 147.14 248.127 147.076 247.515 146.948C246.902 146.82 246.309 146.622 245.73 146.366C245.151 146.11 244.605 145.798 244.078 145.428C243.559 145.059 243.08 144.633 242.64 144.164C242.194 143.689 241.801 143.177 241.455 142.616C241.102 142.062 240.809 141.48 240.569 140.862C240.329 140.244 240.149 139.605 240.03 138.952C239.91 138.291 239.843 137.631 239.843 136.963V134.847C239.843 134.18 239.91 133.512 240.03 132.859C240.149 132.205 240.329 131.566 240.569 130.948C240.809 130.331 241.102 129.748 241.455 129.187C241.801 128.633 242.194 128.122 242.64 127.646C243.08 127.178 243.559 126.751 244.078 126.382C244.605 126.013 245.151 125.693 245.73 125.438C246.309 125.182 246.902 124.99 247.515 124.862C248.127 124.735 248.747 124.664 249.373 124.664Z" fill="#FFC010"/>
<path d="M215.437 155.413H217.421C218.047 155.413 218.667 155.477 219.279 155.612C219.892 155.74 220.491 155.932 221.071 156.187C221.643 156.443 222.196 156.762 222.715 157.132C223.235 157.501 223.714 157.927 224.161 158.396C224.6 158.872 225 159.383 225.346 159.937C225.692 160.498 225.985 161.08 226.225 161.698C226.465 162.316 226.644 162.955 226.771 163.608C226.891 164.262 226.951 164.929 226.951 165.597V167.713C226.951 168.381 226.891 169.041 226.771 169.701C226.644 170.355 226.465 170.994 226.225 171.612C225.985 172.23 225.692 172.812 225.346 173.366C225 173.927 224.6 174.438 224.161 174.914C223.714 175.383 223.235 175.809 222.715 176.178C222.196 176.547 221.65 176.86 221.071 177.115C220.491 177.371 219.892 177.57 219.279 177.698C218.667 177.826 218.047 177.889 217.421 177.889H215.437C214.811 177.889 214.192 177.826 213.579 177.698C212.966 177.57 212.367 177.371 211.794 177.115C211.215 176.86 210.662 176.547 210.143 176.178C209.623 175.809 209.144 175.383 208.698 174.914C208.258 174.438 207.865 173.927 207.512 173.366C207.166 172.812 206.873 172.23 206.633 171.612C206.394 170.994 206.214 170.355 206.094 169.701C205.967 169.041 205.907 168.381 205.907 167.713V165.597C205.907 164.929 205.967 164.262 206.094 163.608C206.214 162.955 206.394 162.316 206.633 161.698C206.873 161.08 207.166 160.498 207.512 159.937C207.865 159.383 208.258 158.872 208.698 158.396C209.144 157.927 209.623 157.501 210.143 157.132C210.662 156.762 211.215 156.443 211.794 156.187C212.367 155.932 212.966 155.74 213.579 155.612C214.192 155.477 214.811 155.413 215.437 155.413Z" fill="#FFC010"/>
<path d="M249.373 155.413H251.357C251.983 155.413 252.602 155.477 253.215 155.612C253.834 155.74 254.427 155.932 255.006 156.187C255.586 156.443 256.132 156.762 256.651 157.132C257.171 157.501 257.657 157.927 258.096 158.396C258.542 158.872 258.935 159.383 259.282 159.937C259.628 160.498 259.921 161.08 260.161 161.698C260.4 162.316 260.58 162.955 260.707 163.608C260.827 164.262 260.887 164.929 260.887 165.597V167.713C260.887 168.381 260.827 169.041 260.707 169.701C260.58 170.355 260.4 170.994 260.161 171.612C259.921 172.23 259.628 172.812 259.282 173.366C258.935 173.927 258.542 174.438 258.096 174.914C257.657 175.383 257.171 175.809 256.651 176.178C256.132 176.547 255.586 176.86 255.006 177.115C254.427 177.371 253.834 177.57 253.215 177.698C252.602 177.826 251.983 177.889 251.357 177.889H249.373C248.747 177.889 248.127 177.826 247.515 177.698C246.902 177.57 246.309 177.371 245.73 177.115C245.151 176.86 244.605 176.547 244.078 176.178C243.559 175.809 243.08 175.383 242.64 174.914C242.194 174.438 241.801 173.927 241.455 173.366C241.102 172.812 240.809 172.23 240.569 171.612C240.329 170.994 240.149 170.355 240.03 169.701C239.91 169.041 239.843 168.381 239.843 167.713V165.597C239.843 164.929 239.91 164.262 240.03 163.608C240.149 162.955 240.329 162.316 240.569 161.698C240.809 161.08 241.102 160.498 241.455 159.937C241.801 159.383 242.194 158.872 242.64 158.396C243.08 157.927 243.559 157.501 244.078 157.132C244.605 156.762 245.151 156.443 245.73 156.187C246.309 155.932 246.902 155.74 247.515 155.612C248.127 155.477 248.747 155.413 249.373 155.413Z" fill="#FFC010"/>
<path d="M101.103 206.58H103.088C103.714 206.58 104.333 206.651 104.946 206.778C105.558 206.906 106.158 207.098 106.737 207.361C107.31 207.616 107.863 207.929 108.382 208.298C108.901 208.667 109.381 209.094 109.827 209.562C110.267 210.038 110.666 210.549 111.012 211.103C111.359 211.664 111.652 212.247 111.891 212.864C112.131 213.482 112.311 214.121 112.431 214.775C112.557 215.428 112.617 216.096 112.617 216.763V218.879C112.617 219.547 112.557 220.207 112.431 220.868C112.311 221.521 112.131 222.16 111.891 222.778C111.652 223.396 111.359 223.978 111.012 224.539C110.666 225.093 110.267 225.605 109.827 226.08C109.381 226.549 108.901 226.975 108.382 227.344C107.863 227.714 107.31 228.026 106.737 228.282C106.158 228.537 105.558 228.736 104.946 228.864C104.333 228.992 103.714 229.063 103.088 229.063H101.103C100.477 229.063 99.8581 228.992 99.2455 228.864C98.6328 228.736 98.0335 228.537 97.4608 228.282C96.8814 228.026 96.3287 227.714 95.8093 227.344C95.2898 226.975 94.8104 226.549 94.3642 226.08C93.9247 225.605 93.5318 225.093 93.1788 224.539C92.8326 223.978 92.5395 223.396 92.2998 222.778C92.0601 222.16 91.8803 221.521 91.7604 220.868C91.6339 220.207 91.5739 219.547 91.5739 218.879V216.763C91.5739 216.096 91.6339 215.428 91.7604 214.775C91.8803 214.121 92.0601 213.482 92.2998 212.864C92.5395 212.247 92.8326 211.664 93.1788 211.103C93.5318 210.549 93.9247 210.038 94.3642 209.562C94.8104 209.094 95.2898 208.667 95.8093 208.298C96.3287 207.929 96.8814 207.616 97.4608 207.361C98.0335 207.098 98.6328 206.906 99.2455 206.778C99.8581 206.651 100.477 206.58 101.103 206.58Z" fill="#FFC010"/>
<path d="M135.033 206.58H137.017C137.643 206.58 138.262 206.651 138.875 206.778C139.488 206.906 140.087 207.098 140.666 207.361C141.239 207.616 141.792 207.929 142.311 208.298C142.831 208.667 143.31 209.094 143.756 209.562C144.196 210.038 144.595 210.549 144.942 211.103C145.288 211.664 145.581 212.247 145.821 212.864C146.06 213.482 146.24 214.121 146.36 214.775C146.486 215.428 146.546 216.096 146.546 216.763V218.879C146.546 219.547 146.486 220.207 146.36 220.868C146.24 221.521 146.06 222.16 145.821 222.778C145.581 223.396 145.288 223.978 144.942 224.539C144.595 225.093 144.196 225.605 143.756 226.08C143.31 226.549 142.831 226.975 142.311 227.344C141.792 227.714 141.239 228.026 140.666 228.282C140.087 228.537 139.488 228.736 138.875 228.864C138.262 228.992 137.643 229.063 137.017 229.063H135.033C134.407 229.063 133.787 228.992 133.175 228.864C132.562 228.736 131.963 228.537 131.383 228.282C130.811 228.026 130.258 227.714 129.738 227.344C129.219 226.975 128.739 226.549 128.293 226.08C127.854 225.605 127.461 225.093 127.108 224.539C126.762 223.978 126.469 223.396 126.229 222.778C125.989 222.16 125.809 221.521 125.69 220.868C125.563 220.207 125.503 219.547 125.503 218.879V216.763C125.503 216.096 125.563 215.428 125.69 214.775C125.809 214.121 125.989 213.482 126.229 212.864C126.469 212.247 126.762 211.664 127.108 211.103C127.461 210.549 127.854 210.038 128.293 209.562C128.739 209.094 129.219 208.667 129.738 208.298C130.258 207.929 130.811 207.616 131.383 207.361C131.963 207.098 132.562 206.906 133.175 206.778C133.787 206.651 134.407 206.58 135.033 206.58Z" fill="#FFC010"/>
<path d="M101.103 237.329H103.088C103.714 237.329 104.333 237.4 104.946 237.528C105.558 237.656 106.158 237.848 106.737 238.103C107.31 238.359 107.863 238.678 108.382 239.048C108.901 239.417 109.381 239.843 109.827 240.312C110.267 240.788 110.666 241.299 111.012 241.853C111.359 242.414 111.652 242.996 111.891 243.614C112.131 244.232 112.311 244.871 112.431 245.524C112.557 246.178 112.617 246.845 112.617 247.513V249.629C112.617 250.296 112.557 250.957 112.431 251.617C112.311 252.271 112.131 252.91 111.891 253.528C111.652 254.146 111.359 254.728 111.012 255.282C110.666 255.843 110.267 256.354 109.827 256.83C109.381 257.299 108.901 257.725 108.382 258.094C107.863 258.463 107.31 258.776 106.737 259.031C106.158 259.287 105.558 259.486 104.946 259.614C104.333 259.742 103.714 259.813 103.088 259.813H101.103C100.477 259.813 99.8581 259.742 99.2455 259.614C98.6328 259.486 98.0335 259.287 97.4608 259.031C96.8814 258.776 96.3287 258.463 95.8093 258.094C95.2898 257.725 94.8104 257.299 94.3642 256.83C93.9247 256.354 93.5318 255.843 93.1788 255.282C92.8326 254.728 92.5395 254.146 92.2998 253.528C92.0601 252.91 91.8803 252.271 91.7604 251.617C91.6339 250.957 91.5739 250.296 91.5739 249.629V247.513C91.5739 246.845 91.6339 246.178 91.7604 245.524C91.8803 244.871 92.0601 244.232 92.2998 243.614C92.5395 242.996 92.8326 242.414 93.1788 241.853C93.5318 241.299 93.9247 240.788 94.3642 240.312C94.8104 239.843 95.2898 239.417 95.8093 239.048C96.3287 238.678 96.8814 238.359 97.4608 238.103C98.0335 237.848 98.6328 237.656 99.2455 237.528C99.8581 237.4 100.477 237.329 101.103 237.329Z" fill="#FFC010"/>
<path d="M135.033 237.329H137.017C137.643 237.329 138.262 237.4 138.875 237.528C139.488 237.656 140.087 237.848 140.666 238.103C141.239 238.359 141.792 238.678 142.311 239.048C142.831 239.417 143.31 239.843 143.756 240.312C144.196 240.788 144.595 241.299 144.942 241.853C145.288 242.414 145.581 242.996 145.821 243.614C146.06 244.232 146.24 244.871 146.36 245.524C146.486 246.178 146.546 246.845 146.546 247.513V249.629C146.546 250.296 146.486 250.957 146.36 251.617C146.24 252.271 146.06 252.91 145.821 253.528C145.581 254.146 145.288 254.728 144.942 255.282C144.595 255.843 144.196 256.354 143.756 256.83C143.31 257.299 142.831 257.725 142.311 258.094C141.792 258.463 141.239 258.776 140.666 259.031C140.087 259.287 139.488 259.486 138.875 259.614C138.262 259.742 137.643 259.813 137.017 259.813H135.033C134.407 259.813 133.787 259.742 133.175 259.614C132.562 259.486 131.963 259.287 131.383 259.031C130.811 258.776 130.258 258.463 129.738 258.094C129.219 257.725 128.739 257.299 128.293 256.83C127.854 256.354 127.461 255.843 127.108 255.282C126.762 254.728 126.469 254.146 126.229 253.528C125.989 252.91 125.809 252.271 125.69 251.617C125.563 250.957 125.503 250.296 125.503 249.629V247.513C125.503 246.845 125.563 246.178 125.69 245.524C125.809 244.871 125.989 244.232 126.229 243.614C126.469 242.996 126.762 242.414 127.108 241.853C127.461 241.299 127.854 240.788 128.293 240.312C128.739 239.843 129.219 239.417 129.738 239.048C130.258 238.678 130.811 238.359 131.383 238.103C131.963 237.848 132.562 237.656 133.175 237.528C133.787 237.4 134.407 237.329 135.033 237.329Z" fill="#FFC010"/>
<path d="M91.3209 288.02H258.336C258.802 288.02 259.268 288.069 259.728 288.162C260.181 288.261 260.627 288.403 261.06 288.595C261.493 288.787 261.905 289.021 262.292 289.298C262.678 289.575 263.037 289.887 263.37 290.242C263.703 290.598 263.996 290.981 264.256 291.393C264.516 291.812 264.736 292.245 264.915 292.707C265.095 293.168 265.228 293.644 265.315 294.134C265.408 294.624 265.455 295.121 265.455 295.618C265.455 296.115 265.408 296.613 265.315 297.103C265.228 297.593 265.095 298.068 264.915 298.53C264.736 298.992 264.516 299.425 264.256 299.844C263.996 300.256 263.703 300.639 263.37 300.994C263.037 301.349 262.678 301.662 262.292 301.939C261.905 302.216 261.493 302.45 261.06 302.642C260.627 302.833 260.181 302.976 259.728 303.075C259.268 303.167 258.802 303.217 258.336 303.217H91.3209C90.8548 303.217 90.3886 303.167 89.9358 303.075C89.4763 302.976 89.0301 302.833 88.5973 302.642C88.1644 302.45 87.7582 302.216 87.3653 301.939C86.979 301.662 86.6194 301.349 86.2865 300.994C85.9602 300.639 85.6605 300.256 85.4008 299.844C85.1411 299.425 84.9213 298.992 84.7482 298.53C84.5684 298.068 84.4285 297.593 84.342 297.103C84.2487 296.613 84.2021 296.115 84.2021 295.618C84.2021 295.121 84.2487 294.624 84.342 294.134C84.4285 293.644 84.5684 293.168 84.7482 292.707C84.9213 292.245 85.1411 291.812 85.4008 291.393C85.6605 290.981 85.9602 290.598 86.2865 290.242C86.6194 289.887 86.979 289.575 87.3653 289.298C87.7582 289.021 88.1644 288.787 88.5973 288.595C89.0301 288.403 89.4763 288.261 89.9358 288.162C90.3886 288.069 90.8548 288.02 91.3209 288.02Z" fill="#F5F5F5"/>
<path d="M91.8736 311.611H258.889C259.355 311.611 259.821 311.661 260.281 311.753C260.733 311.852 261.18 311.994 261.612 312.186C262.045 312.378 262.458 312.612 262.844 312.889C263.231 313.166 263.59 313.486 263.923 313.834C264.256 314.189 264.549 314.572 264.809 314.984C265.069 315.403 265.288 315.843 265.468 316.298C265.648 316.76 265.781 317.235 265.874 317.725C265.961 318.215 266.008 318.712 266.008 319.21C266.008 319.707 265.961 320.204 265.874 320.694C265.781 321.184 265.648 321.66 265.468 322.121C265.288 322.583 265.069 323.016 264.809 323.435C264.549 323.847 264.256 324.23 263.923 324.585C263.59 324.94 263.231 325.253 262.844 325.53C262.458 325.807 262.045 326.041 261.612 326.233C261.18 326.425 260.733 326.567 260.281 326.666C259.821 326.766 259.355 326.808 258.889 326.808H91.8736C91.4075 326.808 90.948 326.766 90.4885 326.666C90.029 326.567 89.5828 326.425 89.15 326.233C88.7171 326.041 88.3109 325.807 87.918 325.53C87.5317 325.253 87.1721 324.94 86.8392 324.585C86.5129 324.23 86.2132 323.847 85.9535 323.435C85.6938 323.016 85.474 322.583 85.3009 322.121C85.1211 321.66 84.9812 321.184 84.8947 320.694C84.8014 320.204 84.7548 319.707 84.7548 319.21C84.7548 318.712 84.8014 318.215 84.8947 317.725C84.9812 317.235 85.1211 316.76 85.3009 316.298C85.474 315.843 85.6938 315.403 85.9535 314.984C86.2132 314.572 86.5129 314.189 86.8392 313.834C87.1721 313.486 87.5317 313.166 87.918 312.889C88.3109 312.612 88.7171 312.378 89.15 312.186C89.5828 311.994 90.029 311.852 90.4885 311.753C90.948 311.661 91.4075 311.611 91.8736 311.611Z" fill="#2B2B2B"/>
<path d="M296.127 253.776C294.27 248.954 295.821 248.578 289.382 239.005C285.433 233.097 278.933 229.397 275.55 231.279C272.986 227.813 270.249 224.511 267.353 221.365C259.954 213.29 257.024 213.156 255.672 214.988C253.987 217.274 258.043 221.365 262.431 227.16C264.09 229.383 267.1 233.068 267.1 233.068C266.72 232.891 266.32 232.791 265.908 232.777C265.488 232.756 265.088 232.82 264.696 232.962C264.303 233.104 263.943 233.317 263.623 233.601C263.31 233.892 263.051 234.226 262.844 234.616C261.333 237.443 263.37 240.148 263.37 240.148C262.611 240.077 261.912 240.262 261.273 240.702C260.633 241.143 260.187 241.746 259.934 242.513C258.969 245.205 261.726 247.335 261.726 247.335C261.726 247.335 258.043 249.501 260.827 253.464C263.603 257.419 272.054 264.762 277.521 266.332C282.989 267.901 289.908 273.93 289.908 273.93C289.908 273.93 307.295 279.569 310.192 269.989C310.192 269.939 298.192 259.173 296.127 253.776Z" fill="#FFE1B6"/>
<path d="M390.157 257.923C388.206 238.629 381.553 198.945 367.329 193.087C344.993 183.926 344.334 248.72 344.794 272.673C330.869 267.447 307.275 249.458 297.007 247.108C292.598 246.085 280.059 250.481 277.595 270.742C275.037 291.691 331.395 330.87 367.449 330.252C397.569 329.755 392.008 270.99 390.157 257.923Z" fill="#FFC010"/>
<path d="M366.616 331.098C354.11 331.098 338.407 326.474 322.292 318.031C307.209 310.134 293.291 299.531 285.06 289.682C279.046 282.488 276.203 275.905 276.842 270.657C278.327 258.428 283.322 252.342 287.237 249.373C291.006 246.54 294.942 245.787 297.18 246.305C302.634 247.562 311.584 253.059 321.067 258.818C329.164 263.768 337.522 268.874 343.981 271.48C343.748 257.782 343.981 233.381 347.637 215.258C347.824 214.874 348.11 214.725 348.509 214.817C348.909 214.91 349.115 215.172 349.129 215.606C345.393 234.098 345.266 259.28 345.526 272.638C345.539 272.929 345.433 273.149 345.213 273.313C344.993 273.476 344.76 273.511 344.507 273.426C337.801 270.891 328.911 265.472 320.307 260.224C310.938 254.501 302.081 249.089 296.853 247.882C294.942 247.442 291.506 248.145 288.116 250.694C284.447 253.464 279.772 259.202 278.36 270.848C277.774 275.621 280.485 281.749 286.198 288.574C302.634 308.231 340.885 329.883 367.449 329.429C370.225 329.45 372.869 328.832 375.386 327.582C377.897 326.325 380.041 324.55 381.806 322.263C395.557 304.907 390.077 262.774 389.404 258.023C389.304 257.767 389.311 257.519 389.438 257.277C389.564 257.029 389.757 256.887 390.01 256.844C390.27 256.809 390.49 256.88 390.676 257.071C390.863 257.263 390.943 257.497 390.916 257.774C391.595 262.603 397.156 305.404 382.965 323.314C382.026 324.536 380.974 325.629 379.802 326.602C378.629 327.568 377.378 328.392 376.039 329.059C374.701 329.734 373.302 330.238 371.857 330.572C370.412 330.913 368.954 331.076 367.469 331.062L366.616 331.098Z" fill="#2B2B2B"/>
<path d="M41.2563 221.841H61.3408C62.5128 221.841 63.6648 221.961 64.8102 222.21C65.9556 222.451 67.0677 222.814 68.1466 223.289C69.2254 223.765 70.2442 224.348 71.2165 225.043C72.1887 225.732 73.0877 226.521 73.9068 227.401C74.7326 228.282 75.4718 229.24 76.1177 230.277C76.7703 231.314 77.3164 232.408 77.7626 233.558C78.2087 234.716 78.5484 235.902 78.7748 237.123C79.0012 238.345 79.1144 239.58 79.1144 240.823C79.1144 242.073 79.0012 243.309 78.7748 244.53C78.5484 245.751 78.2087 246.937 77.7626 248.088C77.3164 249.245 76.7703 250.339 76.1177 251.376C75.4718 252.406 74.7326 253.364 73.9068 254.252C73.0877 255.133 72.1887 255.914 71.2165 256.61C70.2442 257.306 69.2254 257.888 68.1466 258.364C67.0677 258.84 65.9556 259.202 64.8102 259.443C63.6648 259.685 62.5128 259.812 61.3408 259.812H41.2563C40.0909 259.812 38.9389 259.685 37.7935 259.443C36.6481 259.202 35.536 258.84 34.4572 258.364C33.3784 257.888 32.3528 257.306 31.3872 256.61C30.415 255.914 29.516 255.133 28.6902 254.252C27.8711 253.364 27.132 252.406 26.486 251.376C25.8334 250.339 25.2873 249.245 24.8412 248.088C24.395 246.937 24.0554 245.751 23.8289 244.53C23.6025 243.309 23.4893 242.073 23.4893 240.823C23.4893 239.58 23.6025 238.345 23.8289 237.123C24.0554 235.902 24.395 234.716 24.8412 233.558C25.2873 232.408 25.8334 231.314 26.486 230.277C27.132 229.24 27.8711 228.282 28.6902 227.401C29.516 226.521 30.415 225.732 31.3872 225.043C32.3528 224.348 33.3784 223.765 34.4572 223.289C35.536 222.814 36.6481 222.451 37.7935 222.21C38.9389 221.961 40.0909 221.841 41.2563 221.841Z" fill="#FFC010"/>
<path d="M45.0521 233.118V247.57C45.0521 247.79 45.1054 247.989 45.2053 248.173C45.3118 248.365 45.445 248.507 45.6248 248.621C45.7979 248.727 45.9844 248.784 46.1908 248.784C46.3906 248.784 46.5837 248.734 46.7569 248.628L58.5705 241.398C58.95 241.164 59.1432 240.816 59.1432 240.347C59.1432 239.872 58.95 239.524 58.5705 239.289L46.7569 232.067C46.5837 231.96 46.3906 231.904 46.1908 231.911C45.9844 231.911 45.7979 231.968 45.6248 232.074C45.445 232.181 45.3118 232.33 45.2053 232.514C45.1054 232.699 45.0521 232.905 45.0521 233.118Z" fill="white"/>
<path d="M290.6 40.8942H244.558C244.005 40.8942 243.459 40.8374 242.92 40.7237C242.38 40.6101 241.854 40.4397 241.348 40.2195C240.835 39.9923 240.356 39.7153 239.896 39.3957C239.437 39.0691 239.017 38.6927 238.624 38.2808C238.238 37.8689 237.885 37.4144 237.579 36.9244C237.273 36.4344 237.02 35.9231 236.806 35.3763C236.593 34.8366 236.434 34.2756 236.327 33.7003C236.22 33.1251 236.167 32.5428 236.167 31.9534V18.844C236.167 18.2545 236.22 17.6793 236.327 17.097C236.434 16.5218 236.593 15.9608 236.806 15.421C237.02 14.8813 237.273 14.3629 237.579 13.8729C237.885 13.3829 238.238 12.9355 238.624 12.5165C239.017 12.1046 239.437 11.7353 239.896 11.4087C240.356 11.082 240.835 10.8051 241.348 10.5849C241.854 10.3577 242.38 10.1872 242.92 10.0736C243.459 9.95997 244.005 9.90316 244.558 9.91026H290.6C291.146 9.91026 291.692 9.96707 292.232 10.0807C292.771 10.1943 293.291 10.3648 293.797 10.592C294.303 10.8122 294.789 11.0891 295.242 11.4158C295.701 11.7425 296.121 12.1117 296.514 12.5307C296.9 12.9426 297.246 13.3971 297.553 13.88C297.859 14.37 298.119 14.8813 298.325 15.4281C298.538 15.9679 298.698 16.5289 298.805 17.1041C298.911 17.6793 298.964 18.2616 298.964 18.844V31.9534C298.964 32.5428 298.911 33.1251 298.805 33.7003C298.698 34.2756 298.538 34.8295 298.325 35.3763C298.119 35.916 297.859 36.4273 297.553 36.9173C297.246 37.4073 296.9 37.8547 296.514 38.2737C296.121 38.6856 295.701 39.0549 295.242 39.3815C294.789 39.7082 294.303 39.9852 293.797 40.2124C293.291 40.4326 292.771 40.603 292.232 40.7166C291.692 40.8374 291.146 40.8942 290.6 40.8942ZM244.558 11.5365C243.652 11.5436 242.78 11.7282 241.947 12.1046C241.115 12.481 240.376 13.0065 239.737 13.6883C239.104 14.3771 238.611 15.1654 238.265 16.0602C237.919 16.9479 237.745 17.8782 237.745 18.844V31.9534C237.745 32.4363 237.792 32.9121 237.879 33.3808C237.965 33.8495 238.098 34.304 238.272 34.7514C238.445 35.1916 238.651 35.6106 238.904 36.0083C239.151 36.4131 239.437 36.7753 239.757 37.1162C240.07 37.457 240.416 37.7624 240.789 38.0252C241.162 38.295 241.555 38.5223 241.974 38.6998C242.387 38.8844 242.813 39.0265 243.253 39.1188C243.692 39.2182 244.138 39.2608 244.585 39.2608H290.627C291.08 39.2608 291.526 39.2182 291.965 39.1188C292.405 39.0265 292.831 38.8915 293.244 38.7069C293.664 38.5223 294.056 38.295 294.429 38.0323C294.802 37.7624 295.149 37.457 295.468 37.1233C295.781 36.7824 296.068 36.4131 296.314 36.0154C296.567 35.6177 296.773 35.1916 296.947 34.7514C297.12 34.304 297.253 33.8495 297.339 33.3808C297.426 32.9121 297.473 32.4363 297.473 31.9534V18.844C297.473 18.3682 297.426 17.8924 297.339 17.4166C297.253 16.9479 297.12 16.4934 296.953 16.046C296.78 15.6057 296.567 15.1867 296.321 14.7819C296.068 14.3842 295.788 14.0149 295.468 13.6741C295.149 13.3403 294.802 13.0349 294.429 12.7651C294.056 12.5023 293.664 12.2751 293.251 12.0904C292.831 11.9058 292.405 11.7709 291.965 11.6785C291.526 11.5862 291.08 11.5365 290.627 11.5365H244.558Z" fill="#2B2B2B"/>
<path d="M250.698 10.7198H280.405C281.304 10.7198 282.203 10.8122 283.082 10.9968C283.968 11.1885 284.827 11.4655 285.666 11.8348C286.498 12.2041 287.291 12.6586 288.036 13.1912C288.789 13.7238 289.482 14.3345 290.121 15.0163C290.76 15.698 291.326 16.4366 291.832 17.239C292.332 18.0415 292.751 18.8866 293.098 19.7814C293.444 20.6691 293.704 21.5852 293.883 22.5297C294.056 23.4742 294.143 24.4329 294.143 25.3987C294.143 26.3574 294.056 27.3161 293.883 28.2606C293.704 29.2051 293.444 30.1212 293.098 31.016C292.751 31.9037 292.332 32.7487 291.832 33.5512C291.326 34.3537 290.76 35.0922 290.121 35.774C289.482 36.4557 288.789 37.0665 288.036 37.5991C287.291 38.1388 286.498 38.5862 285.666 38.9555C284.827 39.3248 283.968 39.6017 283.082 39.7934C282.203 39.9781 281.304 40.0775 280.405 40.0775H250.698C249.792 40.0775 248.9 39.9781 248.014 39.7934C247.128 39.6017 246.269 39.3248 245.437 38.9555C244.605 38.5862 243.812 38.1388 243.06 37.5991C242.314 37.0665 241.615 36.4557 240.982 35.774C240.343 35.0922 239.77 34.3537 239.27 33.5512C238.771 32.7487 238.345 31.9037 237.999 31.016C237.652 30.1212 237.393 29.2051 237.219 28.2606C237.04 27.3161 236.953 26.3574 236.953 25.3987C236.953 24.4329 237.04 23.4742 237.219 22.5297C237.393 21.5852 237.652 20.6691 237.999 19.7814C238.345 18.8866 238.771 18.0415 239.27 17.239C239.77 16.4366 240.343 15.698 240.982 15.0163C241.615 14.3345 242.314 13.7238 243.06 13.1912C243.812 12.6586 244.605 12.2041 245.437 11.8348C246.269 11.4655 247.128 11.1885 248.014 10.9968C248.9 10.8122 249.792 10.7198 250.698 10.7198Z" fill="#2B2B2B"/>
<path d="M256.711 34.1051C256.438 34.1051 256.192 34.027 255.965 33.8636L245.697 26.4994C245.304 26.2224 245.111 25.8318 245.104 25.3276C245.097 24.8234 245.29 24.4328 245.677 24.1487L255.952 16.5501C256.252 16.3371 256.578 16.2732 256.938 16.3442C257.29 16.4223 257.57 16.6211 257.777 16.9336C257.983 17.2532 258.05 17.6012 257.996 17.9846C257.936 18.361 257.757 18.6664 257.464 18.8936L248.807 25.3063L257.444 31.4917C257.697 31.6693 257.87 31.9036 257.97 32.209C258.07 32.5072 258.07 32.8126 257.976 33.118C257.89 33.4233 257.717 33.6719 257.47 33.8494C257.224 34.0341 256.951 34.1193 256.651 34.1051H256.711Z" fill="white"/>
<path d="M277.748 34.1051C277.455 34.1051 277.188 34.0128 276.949 33.8282C276.716 33.6435 276.549 33.395 276.463 33.0967C276.383 32.7913 276.389 32.4931 276.489 32.1948C276.589 31.8966 276.762 31.6622 277.009 31.4918L285.646 25.3063L276.989 18.915C276.702 18.6877 276.523 18.3824 276.463 17.9989C276.403 17.6225 276.476 17.2674 276.682 16.955C276.889 16.6354 277.168 16.4366 277.521 16.3655C277.874 16.2874 278.207 16.3584 278.507 16.5644L288.782 24.163C288.962 24.2979 289.109 24.4684 289.209 24.6743C289.315 24.8803 289.368 25.1075 289.368 25.3419C289.368 25.5762 289.315 25.7964 289.209 26.0094C289.109 26.2153 288.962 26.3858 288.782 26.5207L278.507 33.8779C278.281 34.0412 278.028 34.1193 277.748 34.1051Z" fill="white"/>
<path d="M265.541 36.2569C265.395 36.2569 265.248 36.2356 265.109 36.1859C264.762 36.0509 264.516 35.8024 264.363 35.4473C264.21 35.0922 264.19 34.7372 264.316 34.3679L270.316 15.7974C270.436 15.4281 270.662 15.1512 270.995 14.9807C271.322 14.8103 271.661 14.789 272.014 14.9168C272.36 15.0447 272.62 15.2861 272.78 15.6341C272.94 15.9892 272.96 16.3513 272.84 16.7277L266.84 35.2982C266.747 35.5893 266.58 35.8308 266.34 36.0083C266.101 36.1859 265.834 36.2711 265.541 36.2569Z" fill="white"/>
</svg>
