<svg width="75" height="75" viewBox="0 0 75 75" fill="none" xmlns="http://www.w3.org/2000/svg">
<path d="M18.75 15.625V59.375H28.125V40.625H46.875V59.375H56.25V15.625H46.875V34.375H28.125V15.625H18.75ZM9.375 46.875C9.375 47.7038 9.70424 48.4987 10.2903 49.0847C10.8763 49.6708 11.6712 50 12.5 50H15.625V25H12.5C11.6712 25 10.8763 25.3292 10.2903 25.9153C9.70424 26.5013 9.375 27.2962 9.375 28.125V34.375H6.25V40.625H9.375V46.875ZM65.625 28.125C65.625 27.2962 65.2958 26.5013 64.7097 25.9153C64.1237 25.3292 63.3288 25 62.5 25H59.375V50H62.5C63.3288 50 64.1237 49.6708 64.7097 49.0847C65.2958 48.4987 65.625 47.7038 65.625 46.875V40.625H68.75V34.375H65.625V28.125Z" fill="#414141"/>
</svg>
