<svg width="54" height="44" viewBox="0 0 54 44" fill="none" xmlns="http://www.w3.org/2000/svg">
<path d="M0 9.76944C7.3783 3.65943 16.7718 0 26.9999 0C37.228 0 46.6215 3.65943 54 9.76944L49.5 15.4745C43.3513 10.3829 35.5233 7.33333 26.9999 7.33333C18.4765 7.33333 10.6486 10.3829 4.5 15.4745L0 9.76944ZM7.49997 19.2779C12.8288 14.8651 19.6129 12.2222 26.9999 12.2222C34.387 12.2222 41.1711 14.8651 46.5 19.2779L41.9999 24.983C37.9009 21.5886 32.6824 19.5556 26.9999 19.5556C21.3176 19.5556 16.099 21.5886 12 24.983L7.49997 19.2779ZM15 28.7865C18.2792 26.0707 22.4541 24.4444 26.9999 24.4444C31.5458 24.4444 35.7207 26.0707 39 28.7865L34.4999 34.4916C32.4503 32.7942 29.8411 31.7778 26.9999 31.7778C24.1587 31.7778 21.5495 32.7942 19.5 34.4916L15 28.7865ZM22.4999 38.2949C23.7298 37.2766 25.2953 36.6667 26.9999 36.6667C28.7046 36.6667 30.2701 37.2766 31.5 38.2949L26.9999 44L22.4999 38.2949Z" fill="#414141"/>
</svg>
