<svg width="44" height="39" viewBox="0 0 44 39" fill="none" xmlns="http://www.w3.org/2000/svg">
<path d="M5.25 38.5C3.94375 38.5 2.82592 38.0353 1.8965 37.1059C0.967083 36.1765 0.501583 35.0578 0.5 33.75C0.5 32.4438 0.9655 31.3259 1.8965 30.3965C2.8275 29.4671 3.94533 29.0016 5.25 29C6.55625 29 7.67488 29.4655 8.60588 30.3965C9.53688 31.3275 10.0016 32.4453 10 33.75C10 35.0563 9.53529 36.1749 8.60588 37.1059C7.67646 38.0369 6.55783 38.5016 5.25 38.5ZM5.25 24.25C3.94375 24.25 2.82592 23.7853 1.8965 22.8559C0.967083 21.9265 0.501583 20.8078 0.5 19.5C0.5 18.1938 0.9655 17.0759 1.8965 16.1465C2.8275 15.2171 3.94533 14.7516 5.25 14.75C6.55625 14.75 7.67488 15.2155 8.60588 16.1465C9.53688 17.0775 10.0016 18.1953 10 19.5C10 20.8062 9.53529 21.9249 8.60588 22.8559C7.67646 23.7869 6.55783 24.2516 5.25 24.25ZM5.25 10C3.94375 10 2.82592 9.53529 1.8965 8.60588C0.967083 7.67646 0.501583 6.55783 0.5 5.25C0.5 3.94375 0.9655 2.82592 1.8965 1.8965C2.8275 0.967083 3.94533 0.501583 5.25 0.5C6.55625 0.5 7.67488 0.9655 8.60588 1.8965C9.53688 2.8275 10.0016 3.94533 10 5.25C10 6.55625 9.53529 7.67488 8.60588 8.60588C7.67646 9.53687 6.55783 10.0016 5.25 10ZM19.5 10C18.1938 10 17.0759 9.53529 16.1465 8.60588C15.2171 7.67646 14.7516 6.55783 14.75 5.25C14.75 3.94375 15.2155 2.82592 16.1465 1.8965C17.0775 0.967083 18.1953 0.501583 19.5 0.5C20.8063 0.5 21.9249 0.9655 22.8559 1.8965C23.7869 2.8275 24.2516 3.94533 24.25 5.25C24.25 6.55625 23.7853 7.67488 22.8559 8.60588C21.9265 9.53687 20.8078 10.0016 19.5 10ZM33.75 10C32.4438 10 31.3259 9.53529 30.3965 8.60588C29.4671 7.67646 29.0016 6.55783 29 5.25C29 3.94375 29.4655 2.82592 30.3965 1.8965C31.3275 0.967083 32.4453 0.501583 33.75 0.5C35.0563 0.5 36.1749 0.9655 37.1059 1.8965C38.0369 2.8275 38.5016 3.94533 38.5 5.25C38.5 6.55625 38.0353 7.67488 37.1059 8.60588C36.1765 9.53687 35.0578 10.0016 33.75 10ZM19.5 24.25C18.1938 24.25 17.0759 23.7853 16.1465 22.8559C15.2171 21.9265 14.7516 20.8078 14.75 19.5C14.75 18.1938 15.2155 17.0759 16.1465 16.1465C17.0775 15.2171 18.1953 14.7516 19.5 14.75C20.8063 14.75 21.9249 15.2155 22.8559 16.1465C23.7869 17.0775 24.2516 18.1953 24.25 19.5C24.25 20.8062 23.7853 21.9249 22.8559 22.8559C21.9265 23.7869 20.8078 24.2516 19.5 24.25ZM21.875 38.5V31.1969L34.9969 18.1344C35.3531 17.7781 35.749 17.5208 36.1844 17.3625C36.6198 17.2042 37.0552 17.125 37.4906 17.125C37.9656 17.125 38.4208 17.2145 38.8563 17.3934C39.2917 17.5723 39.6875 17.8391 40.0438 18.1938L42.2406 20.3906C42.5573 20.7469 42.8051 21.1427 42.984 21.5781C43.1629 22.0135 43.2516 22.449 43.25 22.8844C43.25 23.3198 43.1708 23.7655 43.0125 24.2215C42.8542 24.6775 42.5969 25.0828 42.2406 25.4375L29.1781 38.5H21.875ZM25.4375 34.9375H27.6938L34.8781 27.6938L33.8094 26.5656L32.6813 25.4969L25.4375 32.6812V34.9375ZM33.8094 26.5656L32.6813 25.4969L34.8781 27.6938L33.8094 26.5656Z" fill="#222222"/>
</svg>
