<svg width="59" height="55" viewBox="0 0 59 55" fill="none" xmlns="http://www.w3.org/2000/svg">
<path d="M56.7875 20.625H44.25V2.57812C44.25 1.15371 43.2599 0 42.0375 0H28.7625C27.5401 0 26.55 1.15371 26.55 2.57812V10.3125H20.65V1.71875C20.65 0.769141 19.9899 0 19.175 0H17.7C16.8851 0 16.225 0.769141 16.225 1.71875V10.3125H10.325V1.71875C10.325 0.769141 9.66494 0 8.85 0H7.375C6.56006 0 5.9 0.769141 5.9 1.71875V10.3125H2.2125C0.990094 10.3125 0 11.4662 0 12.8906V51.5625C0 53.4606 1.32105 55 2.95 55H56.05C57.679 55 59 53.4606 59 51.5625V23.2031C59 21.7787 58.009 20.625 56.7875 20.625ZM11.8 43.3984C11.8 44.1106 11.305 44.6875 10.6938 44.6875H7.00625C6.39505 44.6875 5.9 44.1106 5.9 43.3984V39.1016C5.9 38.3894 6.39505 37.8125 7.00625 37.8125H10.6938C11.305 37.8125 11.8 38.3894 11.8 39.1016V43.3984ZM11.8 33.0859C11.8 33.7981 11.305 34.375 10.6938 34.375H7.00625C6.39505 34.375 5.9 33.7981 5.9 33.0859V28.7891C5.9 28.0769 6.39505 27.5 7.00625 27.5H10.6938C11.305 27.5 11.8 28.0769 11.8 28.7891V33.0859ZM11.8 22.7734C11.8 23.4856 11.305 24.0625 10.6938 24.0625H7.00625C6.39505 24.0625 5.9 23.4856 5.9 22.7734V18.4766C5.9 17.7644 6.39505 17.1875 7.00625 17.1875H10.6938C11.305 17.1875 11.8 17.7644 11.8 18.4766V22.7734ZM23.6 43.3984C23.6 44.1106 23.105 44.6875 22.4937 44.6875H18.8062C18.195 44.6875 17.7 44.1106 17.7 43.3984V39.1016C17.7 38.3894 18.195 37.8125 18.8062 37.8125H22.4937C23.105 37.8125 23.6 38.3894 23.6 39.1016V43.3984ZM23.6 33.0859C23.6 33.7981 23.105 34.375 22.4937 34.375H18.8062C18.195 34.375 17.7 33.7981 17.7 33.0859V28.7891C17.7 28.0769 18.195 27.5 18.8062 27.5H22.4937C23.105 27.5 23.6 28.0769 23.6 28.7891V33.0859ZM23.6 22.7734C23.6 23.4856 23.105 24.0625 22.4937 24.0625H18.8062C18.195 24.0625 17.7 23.4856 17.7 22.7734V18.4766C17.7 17.7644 18.195 17.1875 18.8062 17.1875H22.4937C23.105 17.1875 23.6 17.7644 23.6 18.4766V22.7734ZM38.35 33.0859C38.35 33.7981 37.855 34.375 37.2438 34.375H33.5563C32.945 34.375 32.45 33.7981 32.45 33.0859V28.7891C32.45 28.0769 32.945 27.5 33.5563 27.5H37.2438C37.855 27.5 38.35 28.0769 38.35 28.7891V33.0859ZM38.35 22.7734C38.35 23.4856 37.855 24.0625 37.2438 24.0625H33.5563C32.945 24.0625 32.45 23.4856 32.45 22.7734V18.4766C32.45 17.7644 32.945 17.1875 33.5563 17.1875H37.2438C37.855 17.1875 38.35 17.7644 38.35 18.4766V22.7734ZM38.35 12.4609C38.35 13.1731 37.855 13.75 37.2438 13.75H33.5563C32.945 13.75 32.45 13.1731 32.45 12.4609V8.16406C32.45 7.45186 32.945 6.875 33.5563 6.875H37.2438C37.855 6.875 38.35 7.45186 38.35 8.16406V12.4609ZM53.1 43.3984C53.1 44.1106 52.605 44.6875 51.9938 44.6875H48.3063C47.695 44.6875 47.2 44.1106 47.2 43.3984V39.1016C47.2 38.3894 47.695 37.8125 48.3063 37.8125H51.9938C52.605 37.8125 53.1 38.3894 53.1 39.1016V43.3984ZM53.1 33.0859C53.1 33.7981 52.605 34.375 51.9938 34.375H48.3063C47.695 34.375 47.2 33.7981 47.2 33.0859V28.7891C47.2 28.0769 47.695 27.5 48.3063 27.5H51.9938C52.605 27.5 53.1 28.0769 53.1 28.7891V33.0859Z" fill="#414141"/>
</svg>
