<svg width="306" height="306" viewBox="0 0 306 306" fill="none" xmlns="http://www.w3.org/2000/svg">
<path d="M12.6723 95.415C6.06234 109.997 -2.88501 140.619 1.04949 175.333C6.09732 219.872 30.2464 252.272 54.5529 272.003C135.219 337.479 282.888 295.185 302.444 233.504C305.988 222.315 304.992 211.523 303.762 198.241C299.862 156.011 283.273 140.35 269.447 95.5082C256.862 54.6949 267.961 52.2403 256.192 34.0958C230.661 -5.26572 156.932 -7.30638 106.232 11.561C86.7576 18.8083 36.8739 42.0719 12.6723 95.415Z" fill="#FFF2CD"/>
<path d="M138.833 60.1229C138.833 49.7622 134.595 34.3406 114.206 35.2735C115.354 22.1607 104.192 4.13288 79.8795 5.7829C68.1401 6.57585 65.7327 15.7997 64.462 15.3391C48.0945 9.40946 28.1188 23.3618 32.5721 44.4506C23.479 45.4535 15.9364 53.0156 16.1521 63.2306C16.2862 69.8715 20.0516 74.9732 26.1603 74.9732H125.106C132.485 74.9732 138.635 68.6354 138.827 60.6185C138.833 60.4494 138.833 60.2862 138.833 60.1229Z" fill="#FFF2CD"/>
<path d="M141.701 61.9246C141.701 51.8321 135.732 32.0318 115.762 32.9471C111.431 13.0477 102.263 7.2289 85.9534 7.08314C70.023 6.93738 67.0911 18.6275 65.867 18.1202C48.73 11.0537 32.8346 27.0409 36.3203 45.5876C27.4138 46.5671 20.4657 54.7006 20.4657 64.595C20.4657 64.6358 20.4657 64.6824 20.4657 64.7291C20.5065 71.1951 25.4028 76.3959 31.3832 76.3959H128.265C135.487 76.3959 141.514 70.2214 141.695 62.4085C141.701 62.2453 141.701 62.0879 141.701 61.9246Z" fill="white"/>
<path d="M22.8438 55.5577C22.7564 55.5577 22.669 55.5344 22.5874 55.4878C22.3192 55.342 22.2143 55.0097 22.36 54.7415C25.187 49.4824 30.13 45.9199 35.6732 45.1095C34.0936 35.6466 37.3811 26.3179 44.3291 20.6507C50.5019 15.6248 58.3535 14.4937 65.9077 17.5372C66.0942 17.3506 66.4323 16.855 66.7296 16.4177C68.7639 13.4267 73.5203 6.4243 85.9591 6.52924C94.7841 6.61087 101.056 8.40083 105.696 12.179C110.685 16.2312 114.025 22.6563 116.205 32.3757C123.188 32.1659 129.029 34.4222 133.57 39.0925C133.785 39.314 133.779 39.6638 133.558 39.8796C133.342 40.0895 132.993 40.0895 132.783 39.8679C128.364 35.326 122.646 33.1862 115.786 33.501C115.523 33.5127 115.284 33.3261 115.226 33.0637C111.222 14.6803 103.283 7.79446 85.9475 7.63703C85.8484 7.6312 85.7551 7.6312 85.656 7.6312C74.039 7.6312 69.7257 13.9806 67.6447 17.0416C66.8462 18.2135 66.3624 18.919 65.6571 18.6333C58.4409 15.6598 50.9216 16.7093 45.0286 21.5077C38.2496 27.035 35.1195 36.2239 36.8623 45.4827C36.8856 45.6343 36.8507 45.7917 36.7632 45.9141C36.67 46.0366 36.5301 46.1182 36.3785 46.1357C30.9635 46.7304 26.0847 50.1412 23.3335 55.2662C23.2344 55.4469 23.042 55.5577 22.8438 55.5577Z" fill="#717171"/>
<path d="M100.456 76.9498H56.2784C55.9694 76.9498 55.7246 76.6991 55.7246 76.3959C55.7246 76.0928 55.9694 75.842 56.2784 75.842H100.456C100.764 75.842 101.009 76.0928 101.009 76.3959C101.009 76.6991 100.764 76.9498 100.456 76.9498Z" fill="#717171"/>
<path d="M229.432 64.385C223.62 64.624 218.712 60.0937 218.467 54.2691C218.228 48.4444 222.746 43.5294 228.563 43.2903C234.374 43.0454 239.282 47.5699 239.527 53.4004C239.766 59.225 235.243 64.1401 229.432 64.385ZM250.235 55.0037L250.072 50.9049L245.671 50.1061C245.461 49.1616 245.181 48.252 244.826 47.3775L247.973 44.2115L245.782 40.7482L241.573 42.2525C240.932 41.5528 240.227 40.9056 239.481 40.3226L240.629 35.9905L237.003 34.0898L234.112 37.5006C233.215 37.2149 232.282 37.0109 231.326 36.8768L230.166 32.5564L226.074 32.7255L225.276 37.1275C224.331 37.3374 223.422 37.6231 222.548 37.9787L219.388 34.8186L215.932 37.0167L217.436 41.2321C216.736 41.8793 216.089 42.579 215.506 43.3369L211.187 42.1825L209.287 45.8149L212.691 48.7126C212.411 49.6105 212.201 50.5434 212.073 51.4996L207.754 52.6657L207.929 56.7587L212.324 57.5633C212.534 58.5079 212.813 59.4174 213.169 60.292L210.016 63.4579L212.207 66.9212L216.421 65.417C217.063 66.1166 217.762 66.7638 218.514 67.3469L217.366 71.6789L220.991 73.5796L223.877 70.1688C224.78 70.4545 225.707 70.6586 226.663 70.7927L227.829 75.113L231.915 74.944L232.719 70.5361C233.658 70.3321 234.573 70.0464 235.441 69.6907L238.606 72.8508L242.063 70.6527L240.559 66.4373C241.258 65.7901 241.9 65.0846 242.488 64.3383L246.808 65.4869L248.708 61.8545L245.304 58.9626C245.583 58.0589 245.787 57.126 245.922 56.1698L250.235 55.0037Z" fill="#FFC21A"/>
<path d="M227.899 42.7249C227.764 42.7249 227.619 42.7249 227.479 42.7307C224.815 42.8415 222.349 43.9843 220.548 45.955C218.741 47.9198 217.803 50.4678 217.914 53.1381C218.024 55.8085 219.167 58.2748 221.125 60.0822C223.09 61.8955 225.637 62.8342 228.307 62.7176C230.97 62.6126 233.43 61.464 235.237 59.4992C237.044 57.5343 237.977 54.9806 237.872 52.3102C237.755 49.6398 236.619 47.1735 234.654 45.3661C232.795 43.6519 230.411 42.7249 227.899 42.7249ZM227.881 63.837C225.095 63.837 222.443 62.805 220.379 60.8985C218.199 58.8928 216.934 56.1466 216.812 53.1848C216.69 50.2229 217.727 47.3834 219.732 45.2028C221.737 43.0164 224.471 41.7512 227.432 41.6229C230.393 41.5063 233.22 42.5441 235.4 44.5498C237.58 46.5613 238.845 49.3017 238.973 52.2694C239.096 55.2313 238.058 58.0649 236.053 60.2513C234.042 62.4319 231.308 63.7029 228.353 63.8254C228.19 63.8312 228.038 63.837 227.881 63.837ZM222.775 68.5073C222.827 68.5073 222.886 68.5189 222.944 68.5306C223.801 68.8046 224.71 69.0087 225.631 69.1369C225.853 69.1603 226.033 69.3235 226.092 69.5393L227.141 73.434L230.347 73.2999L231.069 69.3294C231.11 69.1136 231.279 68.9387 231.495 68.8921C232.404 68.688 233.29 68.414 234.13 68.07C234.339 67.9883 234.573 68.035 234.73 68.1924L237.575 71.0377L240.291 69.3177L238.933 65.5104C238.857 65.3005 238.915 65.0673 239.078 64.9215C239.755 64.2977 240.378 63.6155 240.944 62.8867C241.084 62.7118 241.311 62.636 241.527 62.6943L245.414 63.7321L246.907 60.881L243.841 58.2748C243.672 58.129 243.602 57.8958 243.672 57.6859C243.94 56.823 244.144 55.9134 244.272 54.9864C244.295 54.7648 244.458 54.5841 244.674 54.5258L248.562 53.4763L248.428 50.2637L244.47 49.5407C244.249 49.4999 244.074 49.3308 244.027 49.1151C243.823 48.1997 243.549 47.3135 243.205 46.4739C243.124 46.2698 243.17 46.0366 243.328 45.8792L246.166 43.0222L244.453 40.3111L240.652 41.6637C240.448 41.7395 240.209 41.6812 240.063 41.518C239.44 40.8417 238.758 40.212 238.035 39.6464C237.86 39.5123 237.784 39.2849 237.843 39.0692L238.874 35.1686L236.03 33.676L233.43 36.7487C233.284 36.9177 233.051 36.9819 232.841 36.9177C231.979 36.6495 231.075 36.4455 230.148 36.3172C229.933 36.288 229.746 36.1306 229.688 35.9149L228.645 32.0201L225.433 32.1484L224.71 36.119C224.669 36.3405 224.506 36.5154 224.285 36.5621C223.381 36.7661 222.489 37.0402 221.656 37.3842C221.446 37.4658 221.213 37.4192 221.055 37.2617L218.205 34.4165L215.495 36.1365L216.853 39.9379C216.929 40.1478 216.864 40.381 216.701 40.5326C216.031 41.1565 215.401 41.8387 214.836 42.5616C214.702 42.7424 214.475 42.8182 214.259 42.7599L210.365 41.722L208.879 44.5673L211.945 47.1794C212.114 47.3251 212.178 47.5525 212.114 47.7683C211.846 48.6312 211.642 49.5407 211.514 50.4619C211.484 50.6835 211.327 50.8642 211.111 50.9225L207.218 51.972L207.352 55.1846L211.315 55.9134C211.537 55.9542 211.712 56.1175 211.758 56.3332C211.957 57.2486 212.236 58.1348 212.574 58.9744C212.662 59.1785 212.615 59.4175 212.458 59.575L209.613 62.4319L211.333 65.1431L215.127 63.7846C215.337 63.7146 215.57 63.7671 215.722 63.9362C216.34 64.6125 217.022 65.2422 217.75 65.8019C217.925 65.9418 218.001 66.1692 217.943 66.385L216.905 70.2856L219.75 71.7782L222.355 68.7055C222.46 68.5772 222.618 68.5073 222.775 68.5073ZM226.721 74.5593C226.476 74.5593 226.255 74.3902 226.191 74.1512L225.118 70.1748C224.384 70.0582 223.661 69.9007 222.961 69.6967L220.309 72.8276C220.14 73.0259 219.86 73.0842 219.627 72.9617L216.002 71.061C215.774 70.9386 215.658 70.6762 215.722 70.4255L216.783 66.4491C216.212 65.9827 215.67 65.4812 215.157 64.9507L211.292 66.3383C211.047 66.4199 210.773 66.3325 210.639 66.1109L208.442 62.6476C208.308 62.4319 208.337 62.1404 208.517 61.9596L211.42 59.0502C211.158 58.3681 210.936 57.6626 210.762 56.9338L206.722 56.1991C206.466 56.1466 206.279 55.9368 206.268 55.6744L206.098 51.5814C206.087 51.319 206.256 51.0858 206.506 51.0217L210.47 49.9489C210.587 49.2142 210.75 48.4912 210.954 47.7857L207.824 45.127C207.626 44.958 207.573 44.6781 207.69 44.4449L209.59 40.8183C209.712 40.5851 209.975 40.4685 210.219 40.5385L214.195 41.5996C214.655 41.0282 215.157 40.4802 215.687 39.9729L214.306 36.0956C214.218 35.8508 214.311 35.5767 214.533 35.4368L217.989 33.2445C218.205 33.1046 218.491 33.1338 218.671 33.3203L221.58 36.2239C222.262 35.9615 222.967 35.74 223.69 35.5651L224.43 31.5187C224.471 31.2622 224.687 31.0756 224.949 31.0639L229.041 30.8949C229.297 30.8832 229.525 31.0523 229.595 31.303L230.661 35.2735C231.396 35.3902 232.119 35.5534 232.818 35.7575L235.476 32.6207C235.645 32.4283 235.925 32.37 236.152 32.4924L239.778 34.3931C240.011 34.5156 240.128 34.778 240.058 35.0228L239.003 39.005C239.574 39.4657 240.116 39.9671 240.623 40.5035L244.493 39.1158C244.738 39.0284 245.006 39.1217 245.146 39.3432L247.338 42.8065C247.478 43.0222 247.443 43.3079 247.262 43.4945L244.365 46.4039C244.627 47.0861 244.843 47.7916 245.024 48.5146L249.063 49.255C249.314 49.3017 249.506 49.5174 249.512 49.7798L249.687 53.8728C249.693 54.1351 249.524 54.3625 249.279 54.4325L245.309 55.4995C245.193 56.2399 245.036 56.9629 244.831 57.6626L247.956 60.3271C248.154 60.4904 248.212 60.776 248.09 61.0034L246.195 64.6358C246.073 64.869 245.811 64.9798 245.56 64.9157L241.591 63.8545C241.124 64.4259 240.623 64.974 240.093 65.4812L241.48 69.3585C241.561 69.6034 241.468 69.8716 241.253 70.0115L237.796 72.2096C237.58 72.3437 237.295 72.3146 237.108 72.1338L234.205 69.2302C233.523 69.4868 232.818 69.7083 232.095 69.8891L231.355 73.9354C231.308 74.192 231.093 74.3785 230.836 74.3902L226.744 74.5593C226.739 74.5593 226.727 74.5593 226.721 74.5593Z" fill="#717171"/>
<path d="M180.16 49.4126C171.959 50.6895 164.276 45.063 163.005 36.8421C161.735 28.6269 167.354 20.9307 175.555 19.6597C183.756 18.3828 191.439 24.015 192.71 32.2302C193.98 40.4453 188.361 48.1415 180.16 49.4126ZM208.15 32.7899L207.253 27.0119L200.893 26.5804C200.444 25.2744 199.897 24.0267 199.255 22.8489L203.219 17.8522L199.558 13.2928L193.835 16.1031C192.809 15.2168 191.713 14.4122 190.553 13.7009L191.497 7.38068L186.053 5.27004L182.497 10.5641C181.18 10.3076 179.828 10.1676 178.452 10.1327L176.115 4.19141L170.344 5.08347L169.913 11.462C168.613 11.9051 167.365 12.4532 166.188 13.1004L161.204 9.12982L156.652 12.7914L159.462 18.5285C158.57 19.5605 157.765 20.6567 157.06 21.8169L150.753 20.8724L148.643 26.3297L153.93 29.8863C153.673 31.2098 153.528 32.5625 153.499 33.9385L147.565 36.2824L148.462 42.0604L154.822 42.4976C155.265 43.7978 155.813 45.0456 156.46 46.2291L152.496 51.2259L156.157 55.7795L161.881 52.9692C162.906 53.8554 164.002 54.6658 165.162 55.3713L164.218 61.6916L169.668 63.8022L173.218 58.5081C174.535 58.7647 175.887 58.9104 177.263 58.9396L179.6 64.8867L185.371 63.9888L185.802 57.6161C187.102 57.1671 188.344 56.6191 189.527 55.9777L194.511 59.9424L199.063 56.2809L196.259 50.5437C197.145 49.5175 197.944 48.4156 198.655 47.2553L204.962 48.1998L207.072 42.7425L201.785 39.1859C202.042 37.8624 202.187 36.5097 202.216 35.1337L208.15 32.7899Z" fill="#FFC21A"/>
<path d="M176.295 20.4002C175.549 20.4002 174.797 20.4585 174.045 20.5751C170.222 21.1698 166.858 23.2163 164.579 26.3414C162.294 29.4666 161.362 33.303 161.956 37.1278C162.551 40.9584 164.597 44.3226 167.715 46.614C170.84 48.8995 174.658 49.8324 178.481 49.2377C186.368 48.0133 191.789 40.5853 190.565 32.685C189.976 28.8544 187.93 25.4902 184.806 23.1988C182.305 21.3622 179.344 20.4002 176.295 20.4002ZM176.231 50.5204C172.95 50.5204 169.761 49.4826 167.062 47.5061C163.705 45.0398 161.502 41.419 160.866 37.2969C159.549 28.7961 165.384 20.7966 173.876 19.4848C177.986 18.8434 182.107 19.8463 185.458 22.3067C188.822 24.7672 191.019 28.3938 191.66 32.5159C192.978 41.0226 187.137 49.0103 178.65 50.3338C177.84 50.4563 177.03 50.5204 176.231 50.5204ZM171.621 58.3274C171.656 58.3274 171.691 58.3274 171.726 58.3332C173.002 58.584 174.337 58.7239 175.678 58.7589C175.899 58.7647 176.097 58.8988 176.179 59.1087L178.359 64.636L183.255 63.878L183.657 57.9484C183.669 57.7211 183.815 57.5345 184.03 57.4587C185.295 57.0214 186.519 56.485 187.668 55.8611C187.86 55.7562 188.105 55.7737 188.274 55.9136L192.914 59.6043L196.778 56.4966L194.167 51.1559C194.068 50.9577 194.097 50.7128 194.243 50.5496C195.111 49.5467 195.898 48.4681 196.586 47.337C196.702 47.1504 196.918 47.0454 197.14 47.0804L203.015 47.955L204.805 43.3256L199.885 40.0139C199.698 39.8915 199.605 39.6699 199.646 39.4483C199.897 38.1656 200.042 36.8363 200.071 35.4894C200.077 35.2679 200.211 35.0696 200.421 34.988L205.941 32.8074L205.183 27.904L199.261 27.4959C199.04 27.4842 198.847 27.3384 198.777 27.1285C198.34 25.8517 197.804 24.6273 197.18 23.4787C197.07 23.2863 197.093 23.0472 197.233 22.8723L200.917 18.2254L197.816 14.354L192.482 16.9718C192.284 17.071 192.045 17.036 191.876 16.8961C190.879 16.0215 189.801 15.2344 188.67 14.5464C188.484 14.4298 188.379 14.2082 188.414 13.9925L189.288 8.10952L184.666 6.31374L181.361 11.2405C181.238 11.4271 181.017 11.5204 180.801 11.4795C179.519 11.2288 178.19 11.0889 176.843 11.0539C176.628 11.0481 176.424 10.914 176.342 10.7041L174.168 5.17096L169.272 5.93475L168.869 11.8643C168.852 12.0859 168.706 12.2783 168.496 12.3483C167.231 12.7856 166.002 13.3278 164.859 13.9517C164.661 14.0566 164.422 14.0391 164.247 13.8992L159.607 10.2085L155.749 13.3161L158.36 18.6569C158.459 18.8609 158.424 19.0941 158.284 19.2632C157.416 20.2661 156.629 21.3447 155.935 22.4758C155.819 22.6624 155.603 22.7732 155.381 22.7324L149.512 21.8578L147.722 26.4872L152.642 29.7989C152.828 29.9213 152.916 30.1429 152.875 30.3645C152.63 31.6472 152.484 32.9765 152.455 34.3233C152.449 34.5449 152.31 34.7431 152.106 34.8248L146.586 37.0054L147.343 41.9088L153.265 42.3111C153.487 42.3286 153.679 42.4744 153.749 42.6842C154.186 43.9611 154.723 45.1855 155.346 46.3283C155.451 46.5265 155.434 46.7656 155.294 46.9405L151.61 51.5874L154.711 55.4588L160.044 52.8409C160.243 52.7418 160.482 52.7768 160.651 52.9167C161.647 53.7855 162.726 54.5784 163.851 55.2664C164.043 55.383 164.142 55.6046 164.113 55.8203L163.239 61.7033L167.855 63.4991L171.166 58.5665C171.265 58.4149 171.44 58.3274 171.621 58.3274ZM178.003 65.8079C177.782 65.8079 177.578 65.668 177.49 65.4581L175.281 59.855C174.133 59.8084 172.985 59.6859 171.877 59.4877L168.526 64.4844C168.386 64.6943 168.106 64.7818 167.867 64.6885L162.428 62.5778C162.184 62.4846 162.038 62.2338 162.079 61.9773L162.965 56.0186C162.003 55.4122 161.076 54.73 160.202 53.9954L154.804 56.6482C154.571 56.759 154.291 56.6949 154.128 56.4966L150.468 51.9372C150.304 51.739 150.304 51.4475 150.468 51.2492L154.204 46.5382C153.679 45.5354 153.219 44.48 152.828 43.3956L146.83 42.9816C146.568 42.9641 146.358 42.7717 146.317 42.5152L145.426 36.7372C145.385 36.4806 145.531 36.2299 145.769 36.1366L151.359 33.9269C151.406 32.7724 151.523 31.6238 151.727 30.5102L146.737 27.1577C146.527 27.0119 146.44 26.7379 146.533 26.4988L148.643 21.0473C148.736 20.8025 148.981 20.6567 149.238 20.6975L155.189 21.5838C155.795 20.6217 156.471 19.6947 157.212 18.8201L154.559 13.4094C154.449 13.1762 154.513 12.8963 154.711 12.7331L159.263 9.06572C159.462 8.90247 159.747 8.90247 159.951 9.06572L164.655 12.8089C165.652 12.2841 166.707 11.8177 167.791 11.4271L168.199 5.41584C168.217 5.1593 168.409 4.9494 168.665 4.90859L174.436 4.0107C174.692 3.97571 174.937 4.11565 175.036 4.35469L177.24 9.95778C178.394 10.0044 179.536 10.1269 180.65 10.3251L183.995 5.32838C184.141 5.11266 184.415 5.03103 184.654 5.12432L190.098 7.23495C190.337 7.32824 190.483 7.57895 190.442 7.83549L189.562 13.7942C190.524 14.4064 191.451 15.0828 192.319 15.8174L197.722 13.1645C197.956 13.0538 198.235 13.1121 198.399 13.3161L202.053 17.8756C202.217 18.0738 202.217 18.3595 202.059 18.5636L198.323 23.2746C198.847 24.2774 199.308 25.3328 199.698 26.4172L205.696 26.8254C205.953 26.8487 206.169 27.0411 206.203 27.2976L207.101 33.0756C207.142 33.3322 206.996 33.577 206.757 33.6762L201.161 35.8859C201.121 37.0403 200.998 38.189 200.8 39.2967L205.784 42.6551C205.999 42.8009 206.087 43.0749 205.994 43.3139L203.884 48.7654C203.79 49.0103 203.54 49.1561 203.283 49.1153L197.338 48.229C196.726 49.1911 196.05 50.1181 195.315 50.9927L197.961 56.4034C198.078 56.6366 198.014 56.9164 197.816 57.0797L193.263 60.7471C193.065 60.9045 192.774 60.9103 192.576 60.7471L187.872 57.0039C186.875 57.5286 185.82 57.9951 184.736 58.3857L184.328 64.3911C184.304 64.6535 184.112 64.8634 183.861 64.9042L178.091 65.7963C178.062 65.8021 178.032 65.8079 178.003 65.8079Z" fill="#717171"/>
<path d="M72.238 86.0162C71.929 86.0162 71.6842 85.7714 71.6842 85.4623V82.6054C71.6842 82.2964 71.929 82.0515 72.238 82.0515C72.5411 82.0515 72.7859 82.2964 72.7859 82.6054V85.4623C72.7859 85.7714 72.5411 86.0162 72.238 86.0162Z" fill="black"/>
<path d="M72.2322 92.6805C71.929 92.6805 71.6842 92.4357 71.6842 92.1266V89.2697C71.6842 88.9607 71.929 88.7158 72.2322 88.7158C72.5411 88.7158 72.7859 88.9607 72.7859 89.2697V92.1266C72.7859 92.4357 72.5411 92.6805 72.2322 92.6805Z" fill="black"/>
<path d="M70.3378 87.9169H67.4816C67.1785 87.9169 66.9279 87.672 66.9279 87.363C66.9279 87.0598 67.1785 86.8149 67.4816 86.8149H70.3378C70.6409 86.8149 70.8915 87.0598 70.8915 87.363C70.8915 87.672 70.6409 87.9169 70.3378 87.9169Z" fill="black"/>
<path d="M76.9885 87.9169H74.1323C73.8292 87.9169 73.5786 87.672 73.5786 87.363C73.5786 87.0598 73.8292 86.8149 74.1323 86.8149H76.9885C77.2916 86.8149 77.5422 87.0598 77.5422 87.363C77.5422 87.672 77.2916 87.9169 76.9885 87.9169Z" fill="black"/>
<path d="M224.168 281.541C223.9 281.541 223.661 281.343 223.626 281.063L223.253 278.224C223.212 277.921 223.422 277.647 223.731 277.606C224.028 277.565 224.308 277.781 224.349 278.084L224.716 280.917C224.757 281.221 224.547 281.501 224.244 281.541C224.215 281.541 224.197 281.541 224.168 281.541Z" fill="black"/>
<path d="M225.037 288.153C224.763 288.153 224.524 287.949 224.489 287.669L224.116 284.836C224.075 284.532 224.291 284.253 224.594 284.212C224.897 284.171 225.171 284.387 225.212 284.69L225.585 287.523C225.625 287.827 225.41 288.107 225.113 288.147C225.083 288.147 225.06 288.153 225.037 288.153Z" fill="black"/>
<path d="M219.703 284.048C219.435 284.048 219.196 283.844 219.161 283.564C219.12 283.267 219.33 282.987 219.633 282.946L222.466 282.573C222.769 282.533 223.043 282.748 223.084 283.051C223.125 283.355 222.909 283.634 222.606 283.675L219.779 284.043C219.756 284.048 219.727 284.048 219.703 284.048Z" fill="black"/>
<path d="M226.302 283.18C226.028 283.18 225.789 282.976 225.754 282.702C225.713 282.398 225.923 282.118 226.226 282.078L229.059 281.704C229.362 281.67 229.641 281.879 229.676 282.183C229.717 282.486 229.507 282.766 229.204 282.806L226.371 283.174C226.348 283.18 226.325 283.18 226.302 283.18Z" fill="black"/>
<path d="M132.34 8.72167C131.442 8.72167 130.573 9.18227 130.096 10.016C129.379 11.2579 129.804 12.8496 131.04 13.5668C132.281 14.2839 133.867 13.8583 134.584 12.6164C134.933 12.0159 135.021 11.3162 134.846 10.6457C134.665 9.97522 134.234 9.41549 133.634 9.06566C133.226 8.83244 132.783 8.72167 132.34 8.72167ZM132.334 15.0186C131.704 15.0186 131.069 14.8612 130.492 14.523C128.726 13.5027 128.12 11.2288 129.134 9.46214C130.154 7.6955 132.421 7.08913 134.187 8.10947C135.044 8.60506 135.656 9.40383 135.913 10.36C136.163 11.3162 136.035 12.3132 135.54 13.1703C134.858 14.3539 133.61 15.0186 132.334 15.0186Z" fill="black"/>
<path d="M211.776 287.558C211.438 287.558 211.1 287.628 210.779 287.756C210.144 288.025 209.643 288.52 209.38 289.162C208.832 290.485 209.462 292.007 210.779 292.555C211.42 292.823 212.126 292.823 212.767 292.561C213.408 292.293 213.904 291.797 214.172 291.156C214.434 290.514 214.434 289.809 214.172 289.167C213.904 288.526 213.408 288.025 212.767 287.762C212.446 287.628 212.108 287.558 211.776 287.558ZM211.776 293.867C211.292 293.867 210.814 293.768 210.36 293.581C208.477 292.8 207.579 290.625 208.36 288.736C208.739 287.826 209.45 287.115 210.36 286.736C211.275 286.357 212.277 286.357 213.192 286.736C214.102 287.115 214.813 287.826 215.192 288.742C215.571 289.657 215.571 290.666 215.192 291.575C214.813 292.491 214.102 293.202 213.187 293.581C212.732 293.768 212.254 293.867 211.776 293.867Z" fill="black"/>
<path d="M10.5739 157.352C10.2766 157.352 10.0318 157.119 10.0259 156.821C9.44305 138.869 12.6723 121.413 19.3755 106.335C19.4979 106.055 19.8243 105.927 20.1041 106.055C20.3839 106.178 20.5063 106.504 20.3839 106.784C13.7506 121.71 10.5505 138.998 11.1276 156.781C11.1393 157.09 10.9003 157.346 10.5913 157.352C10.5855 157.352 10.5797 157.352 10.5739 157.352Z" fill="black"/>
<path d="M5.23465 148.886C4.93155 148.886 4.68673 148.641 4.68673 148.338C4.51769 131.721 7.47294 116.148 13.4767 102.056C14.2053 100.347 14.9806 98.6566 15.7908 97.0183C15.9248 96.7443 16.2571 96.6335 16.5311 96.7676C16.7992 96.9017 16.9158 97.234 16.7817 97.508C15.9773 99.1289 15.2137 100.802 14.4909 102.487C8.55129 116.44 5.61935 131.861 5.78839 148.326C5.79422 148.635 5.54941 148.886 5.24048 148.886C5.24048 148.886 5.24048 148.886 5.23465 148.886Z" fill="black"/>
<path d="M263.245 35.3669C263.035 35.3669 262.831 35.2445 262.738 35.0404C256.041 20.4992 241.876 10.9372 231.775 7.17074C231.489 7.05996 231.344 6.74512 231.454 6.45943C231.559 6.17373 231.88 6.02797 232.165 6.13292C242.453 9.9752 256.903 19.7296 263.746 34.5798C263.875 34.8597 263.752 35.1862 263.472 35.3145C263.402 35.3494 263.321 35.3669 263.245 35.3669Z" fill="black"/>
<path d="M267.967 33.2445C267.722 33.2445 267.5 33.0871 267.436 32.8422C264.434 22.1433 254.012 11.7883 240.233 5.80627C239.953 5.68383 239.825 5.35732 239.947 5.07746C240.069 4.7976 240.396 4.66933 240.676 4.79177C254.747 10.9021 265.408 21.5311 268.497 32.539C268.579 32.8364 268.41 33.1454 268.112 33.227C268.066 33.2387 268.013 33.2445 267.967 33.2445Z" fill="black"/>
<mask id="mask0_117_4880" style="mask-type:luminance" maskUnits="userSpaceOnUse" x="106" y="46" width="200" height="168">
<path d="M106.523 46.3572H306V213.529H106.523V46.3572Z" fill="white"/>
</mask>
<g mask="url(#mask0_117_4880)">
<path d="M115.558 188.358C111.082 187.787 107.73 183.968 107.73 179.449L107.141 56.0358L109.345 51.2781C109.345 51.2781 113.326 48.6136 115.418 47.4241C116.677 46.707 118.175 46.3747 119.738 46.5729L297.466 69.2768C301.937 69.8482 305.295 73.6671 305.295 78.1857V200.527C305.079 208.03 295.012 212.555 295.012 212.555L115.558 188.358Z" fill="#717171"/>
</g>
<path d="M291.078 213.313L112.282 190.469C107.777 189.892 104.408 186.055 104.408 181.508V58.4263C104.408 54.1992 108.109 50.9283 112.3 51.4647L291.095 74.3085C295.601 74.8857 298.976 78.7222 298.976 83.27V206.351C298.976 210.578 295.269 213.849 291.078 213.313Z" fill="white"/>
<path d="M284.678 207.517L118.688 186.312C114.509 185.776 111.373 182.213 111.373 177.992V63.7262C111.373 59.7965 114.812 56.7646 118.7 57.2602L284.695 78.4656C288.875 79.0021 292.005 82.5645 292.005 86.7857V201.051C292.005 204.981 288.566 208.013 284.678 207.517Z" fill="#FFC21A"/>
<path d="M181.431 81.8764C181.366 81.8764 181.302 81.8706 181.238 81.8648L121.888 74.2793C121.078 74.1802 120.507 73.4397 120.612 72.6293C120.717 71.8247 121.451 71.2475 122.261 71.3524L181.611 78.9379C182.421 79.037 182.993 79.7775 182.888 80.5879C182.795 81.3342 182.159 81.8764 181.431 81.8764Z" fill="#FFF2CD"/>
<path d="M181.425 92.593C181.366 92.593 181.302 92.5871 181.238 92.5813L156.559 89.427C155.748 89.3279 155.183 88.5874 155.282 87.777C155.387 86.9724 156.122 86.3952 156.932 86.5001L181.611 89.6544C182.416 89.7594 182.987 90.4998 182.888 91.3044C182.795 92.0507 182.159 92.593 181.425 92.593Z" fill="#FFF2CD"/>
<path d="M181.431 103.309C181.367 103.309 181.302 103.303 181.238 103.298L121.888 95.7122C121.084 95.6131 120.513 94.8726 120.612 94.068C120.717 93.2575 121.451 92.6803 122.262 92.7853L181.611 100.371C182.416 100.476 182.987 101.21 182.888 102.021C182.795 102.767 182.159 103.309 181.431 103.309Z" fill="#FFF2CD"/>
<path d="M181.431 114.026C181.367 114.026 181.302 114.026 181.238 114.014L135.464 108.166C134.66 108.061 134.088 107.326 134.193 106.516C134.292 105.711 135.033 105.134 135.837 105.239L181.611 111.087C182.416 111.192 182.993 111.933 182.888 112.737C182.795 113.483 182.159 114.026 181.431 114.026Z" fill="#FFF2CD"/>
<path d="M181.431 145.272C181.367 145.272 181.308 145.272 181.244 145.26L121.889 137.68C121.084 137.575 120.513 136.841 120.618 136.03C120.723 135.22 121.457 134.648 122.262 134.753L181.617 142.339C182.422 142.438 182.993 143.178 182.888 143.989C182.795 144.729 182.159 145.272 181.431 145.272Z" fill="#FFF2CD"/>
<path d="M164.469 154.076C164.405 154.076 164.34 154.07 164.282 154.064L121.889 148.647C121.084 148.542 120.513 147.808 120.618 146.997C120.723 146.187 121.457 145.615 122.262 145.72L164.655 151.137C165.46 151.242 166.031 151.977 165.926 152.787C165.833 153.533 165.197 154.076 164.469 154.076Z" fill="#FFF2CD"/>
<path d="M181.431 166.961C181.367 166.961 181.308 166.955 181.244 166.949L121.889 159.364C121.084 159.259 120.513 158.524 120.618 157.714C120.717 156.909 121.457 156.332 122.262 156.437L181.617 164.022C182.422 164.121 182.993 164.862 182.888 165.672C182.795 166.413 182.159 166.961 181.431 166.961Z" fill="#FFF2CD"/>
<path d="M181.431 177.677C181.367 177.677 181.308 177.671 181.244 177.665L121.889 170.08C121.084 169.975 120.513 169.24 120.618 168.43C120.723 167.625 121.457 167.048 122.262 167.153L181.617 174.738C182.422 174.838 182.993 175.578 182.888 176.388C182.795 177.135 182.159 177.677 181.431 177.677Z" fill="#FFF2CD"/>
<path d="M281.991 94.2604C281.938 94.2604 281.892 94.2545 281.833 94.2487L236.759 89.4269C235.948 89.3394 235.366 88.6106 235.453 87.8002C235.535 86.9898 236.263 86.4009 237.073 86.4883L282.148 91.316C282.958 91.4034 283.541 92.1322 283.454 92.9427C283.378 93.7006 282.737 94.2604 281.991 94.2604Z" fill="#FFF2CD"/>
<path d="M271.417 104.067C271.365 104.067 271.312 104.067 271.26 104.061L234.829 100.137C234.019 100.05 233.436 99.3212 233.524 98.5108C233.611 97.7003 234.334 97.1173 235.144 97.2047L271.569 101.129C272.379 101.216 272.968 101.945 272.88 102.75C272.799 103.507 272.157 104.067 271.417 104.067Z" fill="#FFF2CD"/>
<path d="M291.97 213.925C291.649 213.925 291.329 213.902 291.014 213.861L112.212 191.017C107.45 190.411 103.854 186.324 103.854 181.508V173.368C103.854 173.059 104.104 172.814 104.407 172.814C104.711 172.814 104.961 173.059 104.961 173.368V181.508C104.961 185.764 108.138 189.379 112.352 189.921L291.154 212.765C292.99 212.998 294.843 212.427 296.236 211.202C297.63 209.972 298.428 208.205 298.428 206.345V83.2699C298.428 79.0137 295.246 75.3929 291.031 74.8565L112.23 52.0127C110.394 51.7795 108.54 52.3451 107.147 53.5753C105.754 54.7997 104.961 56.5663 104.961 58.4263V133.896C104.961 134.205 104.711 134.45 104.407 134.45C104.104 134.45 103.854 134.205 103.854 133.896V58.4263C103.854 56.2515 104.786 54.1817 106.418 52.7415C108.045 51.3072 110.213 50.6367 112.37 50.9108L291.171 73.7604C295.933 74.3668 299.53 78.4539 299.53 83.2699V206.345C299.53 208.52 298.597 210.596 296.965 212.03C295.578 213.255 293.794 213.925 291.97 213.925Z" fill="black"/>
<path d="M186.857 282.532L4.08069 258.919C2.64679 258.732 1.8424 257.531 1.85988 256.336C1.87154 255.508 1.94149 249.678 1.94149 249.678L98.5846 194.329C103.428 191.554 109.694 190.487 115.226 191.192L295.7 214.52C296.785 214.66 297.717 215.365 298.149 216.374L298.434 217.056C298.434 217.056 298.283 221.919 298.347 223.05C298.393 223.936 297.997 224.857 297.07 225.388L202.846 279.355C198.002 282.13 192.389 283.244 186.857 282.532Z" fill="#717171"/>
<path d="M186.857 276.043L4.73343 252.476C2.31443 252.167 1.67909 248.955 3.79497 247.742L97.512 194.119C102.35 191.35 107.963 190.236 113.495 190.942L295.625 214.514C298.044 214.823 298.679 218.036 296.563 219.248L202.846 272.871C198.002 275.641 192.389 276.754 186.857 276.043Z" fill="white"/>
<path d="M222.518 246.278L64.5903 225.697C62.4044 225.417 61.8332 222.513 63.7451 221.417L100.875 200.387C105.253 197.886 110.318 196.877 115.313 197.518L273.247 218.106C275.427 218.385 275.999 221.289 274.087 222.379L236.957 243.416C232.579 245.917 227.514 246.92 222.518 246.278Z" fill="#FFF2CD"/>
<path d="M129.839 258.365L85.8833 252.675C85.3004 252.599 85.1488 251.823 85.6618 251.532L106.896 239.9C108.068 239.229 109.42 238.961 110.755 239.13L154.711 244.821C155.294 244.897 155.451 245.672 154.938 245.964L133.698 257.595C132.532 258.266 131.18 258.534 129.839 258.365Z" fill="#FFF2CD"/>
<path d="M190.081 276.801C188.979 276.801 187.883 276.737 186.787 276.597L85.8658 263.531C85.5627 263.496 85.347 263.216 85.3878 262.913C85.4286 262.61 85.7026 262.394 86.0057 262.435L186.933 275.495C192.307 276.189 197.862 275.081 202.572 272.387L296.283 218.77C297.198 218.246 297.385 217.33 297.251 216.654C297.111 215.972 296.598 215.196 295.555 215.062L113.425 191.495C108.045 190.807 102.49 191.909 97.7859 194.603L88.1041 200.142C87.836 200.294 87.4979 200.2 87.3463 199.932C87.2006 199.67 87.2881 199.332 87.5562 199.18L97.238 193.641C102.152 190.831 107.951 189.676 113.565 190.393L295.694 213.966C297.035 214.141 298.073 215.109 298.335 216.438C298.597 217.762 298.009 219.056 296.837 219.727L203.12 273.349C199.156 275.618 194.627 276.801 190.081 276.801Z" fill="black"/>
<path d="M38.8324 257.438C38.8091 257.438 38.7858 257.438 38.7624 257.438L4.66339 253.024C3.32274 252.855 2.2852 251.881 2.0229 250.558C1.7606 249.223 2.34931 247.934 3.52092 247.264L32.0884 230.915C32.3565 230.764 32.6946 230.857 32.8403 231.119C32.9918 231.387 32.9044 231.726 32.6363 231.877L4.06884 248.226C3.1537 248.745 2.97301 249.66 3.10707 250.336C3.24114 251.019 3.75408 251.794 4.80328 251.928L38.9023 256.342C39.2054 256.377 39.4211 256.657 39.3803 256.96C39.3453 257.24 39.1063 257.438 38.8324 257.438Z" fill="black"/>
<path d="M232.993 219.721C232.97 219.721 232.946 219.721 232.923 219.715L166.858 211.669C166.555 211.634 166.34 211.36 166.375 211.056C166.415 210.753 166.689 210.538 166.992 210.573L233.057 218.619C233.36 218.654 233.576 218.933 233.541 219.231C233.506 219.517 233.267 219.721 232.993 219.721Z" fill="black"/>
<path d="M204.105 226.21C204.082 226.21 204.064 226.21 204.041 226.204L184.858 223.872C184.555 223.831 184.339 223.557 184.38 223.254C184.415 222.951 184.689 222.735 184.992 222.77L204.175 225.108C204.478 225.143 204.694 225.423 204.653 225.72C204.624 226.006 204.385 226.21 204.105 226.21Z" fill="black"/>
<path d="M135.709 227.376C135.685 227.376 135.662 227.376 135.639 227.376L116.462 225.038C116.159 225.003 115.943 224.723 115.978 224.42C116.019 224.117 116.293 223.907 116.596 223.936L135.773 226.274C136.076 226.315 136.292 226.589 136.257 226.892C136.222 227.172 135.983 227.376 135.709 227.376Z" fill="#FFC21A"/>
<path d="M128.971 111.956L147.938 102.446C163.373 94.7036 177.624 84.9784 190.355 73.504L190.973 67.6094C190.973 67.6094 197.594 67.6852 199.005 67.6035C200.806 67.4986 202.683 68.1283 204.146 69.4751C219.511 83.6082 236.759 95.5374 255.341 104.878L268.491 111.49C271.545 113.029 272.793 115.74 272.128 119.629L259.52 189.589C253.4 209.156 225.69 235.346 210.021 248.984C207.171 251.462 203.586 252.675 199.943 252.651C198.329 252.64 191.649 252.849 191.649 252.849C191.649 252.849 190.069 250.051 188.087 248.162C172.431 233.242 144.808 204.521 138.227 181.898L125.858 119.372C124.984 116.381 126.278 113.309 128.971 111.956Z" fill="#717171"/>
<path d="M121.603 112.335L140.418 102.896C155.731 95.2168 169.878 85.5615 182.503 74.1804L187.248 69.9067C189.713 67.6853 193.601 67.8019 196.189 70.1866C211.432 84.203 228.551 96.0389 246.988 105.315L260.033 111.874C263.064 113.396 264.609 116.854 263.641 119.944L251.132 189.356C245.059 208.777 217.267 235.008 201.721 248.535C195.705 253.771 186.373 253.304 180.253 247.48C164.719 232.676 137.312 204.177 130.783 181.735L118.508 119.687C117.645 116.725 118.927 113.676 121.603 112.335Z" fill="white"/>
<path d="M131.32 181.601C137.807 203.868 164.999 232.18 180.638 247.077C186.502 252.669 195.607 253.124 201.36 248.121C217.168 234.361 244.569 208.427 250.596 189.227L263.099 119.851C263.099 119.821 263.111 119.804 263.117 119.781C264.003 116.953 262.569 113.763 259.783 112.37L246.743 105.805C228.243 96.5053 211.111 84.6519 195.816 70.5888C193.456 68.4199 189.853 68.2974 187.621 70.3148L182.876 74.5885C170.216 85.9988 156.017 95.6948 140.663 103.385L121.848 112.825C119.405 114.055 118.245 116.813 119.038 119.536C119.044 119.553 119.044 119.565 119.05 119.582L131.32 181.601ZM191.829 252.692C187.569 252.692 183.226 251.071 179.874 247.882C164.154 232.898 136.805 204.404 130.253 181.887C130.247 181.875 130.247 181.858 130.241 181.84L117.971 119.816C117.045 116.585 118.432 113.303 121.358 111.839L140.174 102.4C155.434 94.7445 169.551 85.1125 182.136 73.7664L186.881 69.4927C189.579 67.0614 193.741 67.1838 196.562 69.7725C211.782 83.7715 228.831 95.5607 247.239 104.82L260.284 111.379C263.531 113.011 265.204 116.749 264.178 120.078L251.675 189.455C251.675 189.478 251.669 189.501 251.663 189.525C245.572 208.987 217.99 235.113 202.082 248.955C199.209 251.456 195.548 252.692 191.829 252.692Z" fill="black"/>
<path d="M133.977 120.573L149.558 112.76C162.236 106.399 173.952 98.4117 184.409 88.9838L188.332 85.4447C190.372 83.6023 193.595 83.7072 195.735 85.6721C208.36 97.2806 222.53 107.082 237.796 114.76L248.597 120.189C251.109 121.454 252.386 124.316 251.587 126.876L241.229 184.347C236.199 200.428 213.186 222.146 200.316 233.346C195.332 237.684 187.609 237.299 182.544 232.472C169.679 220.216 146.988 196.62 141.584 178.038L131.419 126.666C130.702 124.206 131.768 121.687 133.977 120.573Z" fill="#FFF2CD"/>
<path d="M202.77 139.283L202.788 120.818C202.753 114.854 198.095 109.618 192.132 108.895C185.563 108.096 180.008 113.052 180.049 119.629L180.078 139.219C180.078 139.219 172.973 139.954 172.973 138.111L173.159 119.524C173.095 108.959 181.71 100.936 192.616 102.207V102.213C201.628 103.263 209.747 111.798 209.812 121.454L209.724 140.088L202.77 139.283Z" fill="white"/>
<path d="M203.318 138.788L209.176 139.47L209.258 121.448C209.2 112.37 201.552 103.811 192.552 102.767C192.517 102.761 192.488 102.755 192.453 102.744C187.429 102.184 182.713 103.63 179.175 106.813C175.619 110.003 173.678 114.516 173.713 119.524L173.527 138.117C173.527 138.135 173.527 138.17 173.602 138.234C174.296 138.864 177.321 138.893 179.525 138.712L179.496 119.629C179.478 116.34 180.836 113.233 183.226 111.099C185.633 108.947 188.903 107.945 192.202 108.347C198.41 109.099 203.301 114.58 203.336 120.818L203.318 138.788ZM209.724 140.642C209.707 140.642 209.683 140.642 209.66 140.642L202.7 139.831C202.426 139.797 202.217 139.563 202.217 139.283L202.234 120.818C202.199 115.134 197.734 110.131 192.068 109.443C189.043 109.07 186.164 109.956 183.96 111.921C181.775 113.874 180.586 116.609 180.603 119.623L180.632 139.219C180.632 139.499 180.416 139.738 180.137 139.767C179.163 139.866 174.238 140.31 172.856 139.056C172.577 138.799 172.425 138.473 172.425 138.111L172.612 119.518C172.577 114.201 174.646 109.391 178.435 105.986C182.241 102.569 187.3 101.035 192.68 101.659C192.715 101.659 192.75 101.665 192.785 101.677C202.263 102.837 210.301 111.869 210.36 121.448L210.278 140.094C210.278 140.251 210.208 140.403 210.091 140.502C209.992 140.595 209.858 140.642 209.724 140.642Z" fill="black"/>
<path d="M198.492 187.956L190.687 188.259C179.845 187.991 169.516 175.141 169.668 160.034L169.907 135.873L215.914 135.505C220 135.488 223.632 139.103 223.585 143.149L223.352 163.561C223.224 177.292 212.353 187.956 198.492 187.956Z" fill="#717171"/>
<path d="M190.932 187.577C175.677 187.577 162.871 174.762 163.017 159.655L163.25 136.228H211.922C214.16 136.228 216.043 138.112 216.019 140.327L215.792 163.183C215.658 176.913 204.787 187.577 190.932 187.577Z" fill="white"/>
<path d="M190.932 188.131C184.415 188.131 177.992 185.788 172.856 181.531C167.791 177.339 164.299 171.59 163.017 165.334C162.953 165.031 163.145 164.739 163.448 164.681C163.746 164.617 164.037 164.809 164.101 165.107C166.66 177.602 178.19 187.024 190.932 187.024C204.431 187.024 215.11 176.546 215.244 163.177L215.465 140.199C215.477 139.319 215.127 138.473 214.48 137.814C213.828 137.156 212.942 136.782 212.044 136.782H167.062C165.232 136.782 163.781 138.199 163.763 140.007L163.734 143.208C163.728 143.517 163.483 143.761 163.18 143.761C163.18 143.761 163.18 143.761 163.174 143.761C162.871 143.756 162.627 143.505 162.632 143.196L162.662 140.001C162.685 137.575 164.62 135.675 167.062 135.675H212.044C213.233 135.675 214.405 136.17 215.261 137.039C216.118 137.902 216.585 139.033 216.573 140.211L216.346 163.189C216.206 177.17 205.043 188.131 190.932 188.131Z" fill="black"/>
<path d="M189.463 172.756C188.221 172.756 187.172 171.712 187.178 170.482L187.289 152.274C187.294 151.148 188.186 150.274 189.323 150.274C190.564 150.274 191.608 151.312 191.602 152.542L191.491 170.756C191.485 171.881 190.594 172.756 189.463 172.756Z" fill="black"/>
<path d="M197.04 153.93C197.297 158.273 193.951 161.795 189.579 161.795C185.202 161.795 181.448 158.273 181.198 153.93C180.941 149.586 184.287 146.064 188.659 146.064C193.036 146.064 196.79 149.586 197.04 153.93Z" fill="black"/>
<path d="M114.795 171.538C114.8 171.065 88.3489 166.879 86.641 162.034C84.0996 154.81 80.9229 146.123 80.9229 146.123L74.3187 150.303L78.568 171.089L114.795 171.538Z" fill="white"/>
<path d="M79.0229 170.541L109.817 170.92C98.1125 168.407 87.3174 165.602 86.1225 162.221C84.0066 156.203 81.4185 149.102 80.6375 146.956L74.9368 150.565L79.0229 170.541ZM114.795 172.092C114.795 172.092 114.795 172.092 114.789 172.092L78.5624 171.643C78.3059 171.637 78.0844 171.456 78.032 171.199L73.7769 150.414C73.7302 150.186 73.8293 149.953 74.0217 149.831L80.6258 145.656C80.7715 145.563 80.9406 145.545 81.1038 145.598C81.2612 145.65 81.3836 145.773 81.4419 145.93C81.471 146.018 84.6478 154.705 87.1658 161.847C88.3491 165.212 104.14 168.582 110.884 170.022C115.354 170.972 115.354 170.972 115.349 171.538C115.349 171.689 115.29 171.829 115.185 171.934C115.08 172.033 114.941 172.092 114.795 172.092Z" fill="black"/>
<path d="M39.363 123.786C45.6699 121.722 55.2759 120.241 66.7646 123.908C70.9498 125.244 73.9575 128.94 74.4763 133.313L83.8317 187.286C84.2921 191.21 79.0578 195.023 75.3739 196.422C71.521 197.886 65.6921 199.273 57.4501 199.273C48.6076 199.273 42.1842 199.78 38.5994 198.212C35.6209 196.906 31.1384 193.746 30.9927 190.498L31.6397 135.016C31.4066 129.961 34.56 125.354 39.363 123.786Z" fill="#717171"/>
<path d="M83.5459 146.974C83.5459 146.974 76.0791 126.246 67.703 124.258L71.9581 153.626L83.5459 146.974Z" fill="#717171"/>
<path d="M21.9403 157.171C21.9403 157.171 22.7622 143.307 23.9571 137.943C26.4752 126.672 37.2062 124.97 37.2062 124.97L38.5061 155.247L21.9403 157.171Z" fill="#717171"/>
<path d="M24.0328 156.594C24.0328 156.594 23.2285 167.171 27.4078 174.272C32.4031 182.756 57.6015 171.334 57.6015 171.334L60.5334 169.666C62.5152 168.547 64.8759 168.302 67.0443 169.002L71.7773 170.535C71.7773 170.535 67.8662 165.841 64.5437 164.046C62.9874 163.2 60.9647 163.999 59.2569 165.078C56.3191 166.943 52.8684 167.818 49.3886 167.713L39.3687 167.416C37.6841 167.363 36.3027 166.063 36.157 164.378L35.3992 155.632L24.0328 156.594Z" fill="white"/>
<path d="M24.5576 157.107C24.4702 159.212 24.3303 167.958 27.8859 173.992C29.1275 176.103 31.768 176.878 34.9797 176.878C43.723 176.878 56.7215 171.118 57.351 170.838L60.2596 169.188C62.3697 167.993 64.9052 167.73 67.2135 168.477L70.0055 169.38C68.5949 167.87 66.31 165.626 64.2815 164.53C62.8884 163.777 60.9416 164.669 59.5543 165.55C56.5757 167.439 53.0551 168.378 49.3771 168.267L39.3513 167.969C37.387 167.911 35.7782 166.389 35.6092 164.43L34.8981 156.233L24.5576 157.107ZM35.0496 177.951C31.4357 177.951 28.4047 177.048 26.9358 174.552C22.7098 167.386 23.4501 156.991 23.4851 156.553C23.5026 156.279 23.7182 156.064 23.9864 156.04L35.3527 155.078C35.6558 155.055 35.924 155.282 35.9473 155.586L36.7109 164.331C36.8333 165.731 37.9816 166.821 39.3863 166.862L49.4062 167.159C52.8686 167.264 56.1735 166.384 58.9598 164.611C61.3438 163.101 63.3081 162.745 64.8061 163.556C68.1869 165.381 72.0398 169.987 72.203 170.179C72.3604 170.372 72.3721 170.64 72.238 170.844C72.0981 171.048 71.8416 171.135 71.6085 171.06L66.8754 169.532C64.8586 168.879 62.6494 169.106 60.8017 170.15L57.8756 171.812C57.8581 171.823 57.8464 171.829 57.829 171.835C57.077 172.173 44.1952 177.951 35.0496 177.951Z" fill="black"/>
<path d="M62.7019 272.912L57.2402 289.237C57.2402 289.237 63.1857 288.73 63.7569 288.841C64.3282 288.952 71.2879 273.95 71.2879 273.95L62.7019 272.912Z" fill="white"/>
<path d="M63.8326 288.293C63.8443 288.299 63.8559 288.299 63.8618 288.299C63.8501 288.299 63.8443 288.299 63.8326 288.293ZM63.0807 273.513L58.027 288.619C59.6941 288.479 62.5503 288.27 63.5645 288.275C64.4272 287.109 68.0702 279.541 70.4659 274.41L63.0807 273.513ZM57.2401 289.791C57.0711 289.791 56.9079 289.715 56.803 289.581C56.6864 289.436 56.6573 289.237 56.7155 289.062L62.1772 272.737C62.2588 272.486 62.5036 272.329 62.7659 272.364L71.3519 273.402C71.5268 273.425 71.6842 273.524 71.7658 273.682C71.8532 273.839 71.859 274.02 71.7832 274.183C71.7658 274.224 70.0229 277.979 68.2334 281.681C64.4213 289.535 64.1824 289.488 63.6519 289.383C63.2672 289.331 60.1138 289.546 57.2868 289.791C57.2693 289.791 57.2518 289.791 57.2401 289.791Z" fill="black"/>
<path d="M58.4876 285.652C58.4876 285.652 66.7064 282.276 68.2219 286.509C70.1571 291.896 73.1764 300.111 73.1764 300.111C73.6894 301.545 72.7043 303.073 71.1946 303.19C68.1927 303.435 63.7103 303.627 61.6236 302.898C58.3302 301.738 52.8686 291.296 52.8686 291.296L54.5531 282.41C54.5531 282.41 57.5317 281.99 58.4876 285.652Z" fill="#FFC21A"/>
<path d="M53.4455 291.208C55.0193 294.182 59.3268 301.499 61.81 302.374C63.3313 302.91 66.6479 303.003 71.1479 302.642C71.6958 302.595 72.1854 302.304 72.4827 301.843C72.7799 301.382 72.8441 300.817 72.6575 300.304C72.6284 300.222 69.6148 292.024 67.703 286.701C67.4698 286.042 67.0385 285.582 66.3856 285.29C63.751 284.118 58.7498 286.142 58.6973 286.165C58.5516 286.223 58.3826 286.217 58.2427 286.147C58.0969 286.077 57.992 285.943 57.9571 285.792C57.3217 283.36 55.7479 282.987 55.0135 282.946L53.4455 291.208ZM66.3565 303.965C64.4155 303.965 62.5969 303.825 61.4427 303.417C58.0445 302.222 52.95 292.642 52.3788 291.552C52.3205 291.441 52.303 291.313 52.3263 291.191L54.0109 282.311C54.0575 282.072 54.244 281.897 54.4772 281.862C54.5122 281.862 57.6131 281.465 58.843 284.923C60.3178 284.398 64.3164 283.162 66.8286 284.282C67.7613 284.696 68.4083 285.384 68.7405 286.322C70.6524 291.645 73.6659 299.843 73.6951 299.925C73.9982 300.77 73.8933 301.691 73.4095 302.444C72.9257 303.196 72.1329 303.674 71.2353 303.744C69.7314 303.866 68.0002 303.965 66.3565 303.965Z" fill="black"/>
<path d="M71.0722 300.187H62.6378C62.3289 300.187 62.084 299.942 62.084 299.633C62.084 299.33 62.3289 299.079 62.6378 299.079H71.0722C71.3753 299.079 71.626 299.33 71.626 299.633C71.626 299.942 71.3753 300.187 71.0722 300.187Z" fill="black"/>
<path d="M47.2086 276.924L49.068 293.348L56.5348 291.296L55.9578 276.498L47.2086 276.924Z" fill="white"/>
<path d="M47.8263 277.449L49.5459 292.643L55.9635 290.876L55.4272 277.075L47.8263 277.449ZM49.0679 293.902C48.9571 293.902 48.8522 293.867 48.759 293.803C48.6249 293.716 48.5375 293.57 48.52 293.412L46.6606 276.988C46.6431 276.836 46.6897 276.679 46.7888 276.562C46.8879 276.446 47.0336 276.376 47.1852 276.37L55.9343 275.944C56.0801 275.938 56.2258 275.991 56.3307 276.09C56.4414 276.189 56.5056 276.329 56.5114 276.475L57.0885 291.273C57.0943 291.529 56.9252 291.762 56.6804 291.832L49.2136 293.879C49.167 293.896 49.1145 293.902 49.0679 293.902Z" fill="black"/>
<path d="M48.3628 305.446H60.178C61.7751 305.446 63.005 304.029 62.7718 302.443C62.3755 299.773 61.0931 295.336 57.2402 289.237C56.8147 288.573 56.0802 288.17 55.2992 288.17H51.7027C51.0849 288.17 50.5661 288.637 50.502 289.255L50.228 291.849L48.6659 289.78C48.6659 289.78 45.8738 295.674 45.7398 302.776C45.7165 304.245 46.8997 305.446 48.3628 305.446Z" fill="#FFC21A"/>
<path d="M48.7999 290.876C48.0479 292.741 46.3925 297.441 46.2934 302.787C46.2818 303.347 46.4916 303.872 46.888 304.274C47.2785 304.671 47.8031 304.892 48.3627 304.892H60.1779C60.7782 304.892 61.3495 304.636 61.7458 304.175C62.1364 303.72 62.3112 303.12 62.2238 302.525C61.8391 299.93 60.5801 295.569 56.7738 289.535C56.4532 289.033 55.8878 288.724 55.2991 288.724H51.7026C51.3646 288.724 51.0848 288.975 51.0498 289.313L50.7758 291.908C50.7525 292.135 50.5952 292.322 50.3795 292.386C50.158 292.444 49.9248 292.368 49.7908 292.188L48.7999 290.876ZM60.1779 306H48.3627C47.5058 306 46.7014 305.662 46.0952 305.05C45.4949 304.437 45.1743 303.627 45.1918 302.764C45.32 295.628 48.0479 289.791 48.1645 289.546C48.2461 289.371 48.4151 289.249 48.6075 289.231C48.7999 289.214 48.9864 289.296 49.103 289.447L49.8257 290.398L49.9481 289.197C50.0472 288.299 50.7992 287.616 51.7026 287.616H55.2991C56.2783 287.616 57.1818 288.112 57.7064 288.946C61.6176 295.144 62.9174 299.662 63.3138 302.362C63.4479 303.277 63.1797 304.198 62.5794 304.898C61.979 305.598 61.0988 306 60.1779 306Z" fill="black"/>
<path d="M61.6234 303.172H47.4825C47.1794 303.172 46.9346 302.927 46.9346 302.618C46.9346 302.315 47.1794 302.064 47.4825 302.064H61.6234C61.9323 302.064 62.1771 302.315 62.1771 302.618C62.1771 302.927 61.9323 303.172 61.6234 303.172Z" fill="black"/>
<path d="M75.2515 178.284C74.9425 177.526 74.3188 176.948 73.5378 176.704C69.2185 175.345 54.1567 171.765 38.6518 181.729C37.9232 182.196 37.4511 182.983 37.3928 183.852C36.8332 191.746 34.7406 233.009 47.7682 281.862L56.5465 281.238L58.336 197.705C58.336 197.705 71.3344 228.327 60.7666 277.064L69.8947 278.754C69.8947 278.754 83.2545 261.158 85.6444 234.262C87.7603 210.474 77.6238 184.062 75.2515 178.284Z" fill="black"/>
<path d="M50.0064 243.247C50.0005 243.247 49.9889 243.247 49.9831 243.247C41.6885 242.885 40.7559 231.627 40.7443 231.516C40.7209 231.207 40.9483 230.944 41.2572 230.921C41.5661 230.898 41.8226 231.125 41.8459 231.434C41.8517 231.533 42.7203 241.824 50.0297 242.139C50.3328 242.156 50.5718 242.413 50.5601 242.716C50.5426 243.013 50.2978 243.247 50.0064 243.247Z" fill="white"/>
<path d="M59.0996 205.914C58.8024 205.914 58.5576 205.681 58.5459 205.378L58.237 194.93C58.2311 194.743 58.3186 194.568 58.4701 194.463L63.9435 190.609C64.1941 190.434 64.538 190.493 64.7129 190.743C64.8877 190.994 64.8295 191.338 64.5788 191.513L59.3503 195.198L59.6534 205.343C59.6592 205.652 59.4202 205.908 59.1171 205.914C59.1113 205.914 59.1055 205.914 59.0996 205.914Z" fill="white"/>
<path d="M54.9785 103.968C58.3127 101.088 59.0762 100.697 60.0497 99.0529C60.8424 97.7061 62.6086 94.7092 61.4136 91.5374C60.3761 88.7913 57.5199 87.1354 54.8911 86.9955C52.5304 86.8672 50.805 87.9867 49.8957 88.5756C49.4935 88.8379 45.9845 91.1818 45.2909 95.0182C45.0986 96.0561 45.2443 96.5342 44.7663 97.1872C43.6996 98.6565 41.7703 97.9102 40.4354 99.1229C38.7509 100.656 39.532 103.916 39.5961 104.172C40.4704 107.653 44.2242 109.956 47.2844 109.635C49.0447 109.449 48.8582 109.239 54.9785 103.968Z" fill="black"/>
<path d="M45.7805 121.168C47.3951 120.101 48.3336 118.264 48.2928 116.329L48.1062 108.289C48.0538 108.236 47.9955 108.189 47.943 108.137C47.943 108.137 44.7313 108.353 44.2592 106.708C43.7929 105.07 46.0661 104.755 46.0661 104.755C46.0661 104.755 43.9211 100.231 49.476 100.283C50.9682 100.295 51.4987 97.817 53.9468 97.2631C53.9468 97.2631 55.1592 97.1581 56.3833 100.342L59.0704 104.324L57.7298 105.064C58.0562 106.58 58.2019 108.248 57.9979 110.02C57.9396 110.527 57.5899 110.959 57.1002 111.116C56.698 111.245 56.156 111.385 55.5148 111.46L55.9461 116.842C56.1326 119.197 57.3684 121.343 59.2977 122.701C61.163 124.013 62.8883 124.94 62.8883 124.94C62.8883 124.94 52.985 126.299 41.5954 123.693C41.5954 123.693 43.7929 122.486 45.7805 121.168Z" fill="white"/>
<path d="M43.1284 123.454C50.9974 125.051 58.0213 124.795 61.1222 124.556C60.5102 124.183 59.7583 123.705 58.983 123.157C56.9079 121.693 55.5964 119.413 55.3924 116.889L54.9611 111.507C54.9378 111.21 55.1534 110.947 55.4507 110.913C55.9578 110.854 56.4591 110.743 56.9313 110.592C57.211 110.499 57.4151 110.248 57.45 109.956C57.6307 108.4 57.5433 106.79 57.1877 105.181C57.1353 104.942 57.246 104.697 57.4617 104.575L58.2719 104.132L55.9287 100.651C55.9054 100.616 55.8821 100.581 55.8704 100.54C54.9728 98.2137 54.1567 97.8756 53.9818 97.8231C52.9035 98.0971 52.2623 98.8026 51.6445 99.4906C51.0382 100.155 50.4087 100.855 49.4703 100.837C47.9431 100.814 46.9289 101.164 46.4859 101.858C45.8272 102.896 46.5558 104.505 46.5675 104.516C46.6433 104.68 46.6374 104.866 46.55 105.018C46.4684 105.175 46.3168 105.28 46.142 105.304C45.8913 105.339 45.1161 105.537 44.848 105.957C44.778 106.056 44.7022 106.231 44.7897 106.557C45.0753 107.542 47.1912 107.63 47.9081 107.583C48.0655 107.577 48.2112 107.63 48.3278 107.735L48.4794 107.881C48.5901 107.986 48.6542 108.126 48.6601 108.277L48.8408 116.317C48.8932 118.469 47.8615 120.451 46.0837 121.629C45.052 122.317 43.9445 122.982 43.1284 123.454ZM56.2784 125.839C52.3497 125.839 47.0746 125.512 41.473 124.229C41.2515 124.183 41.0825 123.996 41.0475 123.769C41.0184 123.541 41.1291 123.32 41.3331 123.209C41.3506 123.191 43.5365 121.996 45.4775 120.708C46.9347 119.74 47.7799 118.113 47.7391 116.341L47.5642 108.703C47.5526 108.703 47.5409 108.703 47.5351 108.703C46.515 108.703 44.2009 108.516 43.7288 106.86C43.5714 106.306 43.6355 105.782 43.9212 105.35C44.2709 104.814 44.8654 104.522 45.3318 104.365C45.1044 103.613 44.8829 102.318 45.5591 101.263C46.2177 100.225 47.5409 99.7122 49.4761 99.7297C49.4819 99.7297 49.4819 99.7297 49.4878 99.7297C49.9133 99.7297 50.2747 99.3565 50.8226 98.7443C51.5046 97.9922 52.3497 97.0593 53.8245 96.7211C53.8478 96.7211 53.8711 96.7153 53.9002 96.7095C54.1684 96.6803 55.5731 96.7445 56.8788 100.079L59.5309 104.015C59.6184 104.143 59.6417 104.301 59.6067 104.452C59.5718 104.604 59.4727 104.738 59.3386 104.808L58.3535 105.35C58.6566 106.948 58.7266 108.54 58.5459 110.085C58.4643 110.808 57.963 111.42 57.2693 111.641C56.8963 111.764 56.5058 111.863 56.1036 111.933L56.4941 116.801C56.6748 118.994 57.8114 120.982 59.6184 122.247C61.4312 123.524 63.1332 124.439 63.1507 124.451C63.3605 124.567 63.4713 124.801 63.4305 125.04C63.3897 125.273 63.1973 125.454 62.9642 125.489C62.9117 125.495 60.3062 125.839 56.2784 125.839Z" fill="black"/>
<path d="M55.5147 111.461C55.5147 111.461 51.9882 111.583 50.5893 109.665L55.5147 111.461Z" fill="white"/>
<path d="M55.3692 112.014C54.6172 112.014 51.5338 111.898 50.1407 109.991C49.96 109.74 50.0182 109.396 50.2631 109.216C50.5079 109.035 50.8576 109.093 51.0325 109.338C52.0409 110.72 54.5939 110.936 55.4916 110.906C55.8063 110.889 56.057 111.14 56.0628 111.443C56.0745 111.746 55.8355 112.003 55.5324 112.014C55.5149 112.014 55.4566 112.014 55.3692 112.014Z" fill="black"/>
<path d="M120.67 169.445H86.9501L111.944 130.928C112.726 129.727 114.089 128.999 115.553 128.999H142.913C144.656 128.999 145.711 130.858 144.784 132.287L120.67 169.445Z" fill="black"/>
<path d="M127.863 142.502C126.767 144.187 124.412 145.557 122.6 145.557C120.787 145.557 120.21 144.187 121.3 142.502C122.401 140.811 124.756 139.447 126.563 139.447C128.376 139.447 128.959 140.811 127.863 142.502Z" fill="#FFF2CD"/>
<path d="M119.703 172.657H58.7673C58.1669 172.657 57.6831 172.173 57.6831 171.573V169.165H120.793V171.573C120.793 172.173 120.303 172.657 119.703 172.657Z" fill="black"/>
<path d="M118.916 170.034H89.9577C89.6546 170.034 89.404 169.783 89.404 169.48C89.404 169.171 89.6546 168.926 89.9577 168.926H118.916C119.219 168.926 119.469 169.171 119.469 169.48C119.469 169.783 119.219 170.034 118.916 170.034Z" fill="white"/>
<path d="M250.037 282.27H276.063C276.063 282.27 279.63 304.006 264.096 305.744C248.568 307.481 250.037 282.27 250.037 282.27Z" fill="#717171"/>
<path d="M257.842 276.958C255.982 277.011 252.019 277.069 248.288 274.521C246.907 273.583 243.118 270.994 243.473 267.595C243.777 264.68 247.041 261.992 251.471 261.508C246.213 262.132 241.987 258.19 241.981 254.115C241.975 250.99 244.447 247.894 248.102 246.867C242.442 242.582 239.463 235.673 240.402 228.816C241.323 222.152 245.927 215.587 252.887 213.558C253.761 213.307 261.322 211.232 266.766 215.878C271.33 219.779 271.388 225.831 271.417 229.953C271.481 237.294 268.544 242.874 266.766 245.672C267.133 245.643 270.893 244.407 274.402 247.532C277.981 250.721 278.161 258.039 276.413 260.936C274.588 263.968 270.193 263.327 269.406 263.548C272.7 266.458 272.583 268.883 272.548 269.344C272.175 274.078 263.606 276.789 257.842 276.958Z" fill="#FFC21A"/>
<path d="M259.724 280.398C259.701 280.398 259.672 280.398 259.649 280.392C259.346 280.352 259.136 280.077 259.177 279.774C262.487 255.263 254.747 227.592 254.665 227.318C254.583 227.026 254.752 226.717 255.05 226.635C255.341 226.548 255.644 226.717 255.732 227.014C255.807 227.294 263.612 255.176 260.272 279.92C260.232 280.2 259.993 280.398 259.724 280.398Z" fill="white"/>
<path d="M263.472 278.09C262.878 276.638 260.319 269.95 263.636 264.312C264.318 263.152 266.602 259.281 269.919 259.555C272.391 259.759 273.947 262.143 274.297 262.703C273.3 259.065 275.084 255.386 278.068 254.109C281.594 252.611 286.275 254.686 287.575 259.042C288.443 258.797 290.798 258.26 293.176 259.38C296.301 260.861 298.183 264.61 297.758 268.738C296.452 273.163 292.419 275.868 288.589 275.367C284.433 274.819 282.451 270.732 282.311 270.434C282.958 271.455 283.908 273.355 283.331 275.198C282.346 278.294 277.485 279.833 273.994 278.935C270.753 278.107 269.814 275.472 267.203 275.705C265.483 275.863 264.207 277.157 263.472 278.09Z" fill="#FFC21A"/>
<path d="M263.21 280.119C263.181 280.119 263.146 280.113 263.111 280.113C262.814 280.054 262.61 279.769 262.668 279.471C262.738 279.046 264.603 269.058 273.918 265.507C280.609 262.959 286.613 265.507 288.298 266.347C288.566 266.487 288.677 266.819 288.542 267.093C288.403 267.361 288.076 267.472 287.802 267.338C286.223 266.551 280.58 264.155 274.308 266.545C265.577 269.874 263.822 279.261 263.752 279.658C263.706 279.932 263.472 280.119 263.21 280.119Z" fill="#FFF2CD"/>
<path d="M48.0188 58.6596L4.15638 57.9832C2.04049 57.9482 0.303473 59.5633 0.268501 61.5806L0.000371263 78.9321C-0.0287729 80.9553 1.66161 82.617 3.7775 82.652L36.6175 83.1592L46.0836 90.3365L46.1886 83.3108L47.6341 83.3283C49.75 83.3633 51.4929 81.7541 51.522 79.7309L51.7901 62.3794C51.8193 60.3562 50.1289 58.6945 48.0188 58.6596Z" fill="#FFC21A"/>
<path d="M6.11487 71.3641L3.08968 70.4896L3.63176 68.8104L6.62782 69.9765L6.48209 66.5598H8.25991L8.10836 70.0348L11.0578 68.892L11.594 70.6003L8.51638 71.4749L10.504 74.1219L9.0643 75.1714L7.27482 72.3087L5.50867 75.084L4.05727 74.0695L6.11487 71.3641Z" fill="#717171"/>
<path d="M15.0973 71.3641L12.0721 70.4896L12.6142 68.8104L15.6161 69.9765L15.4645 66.5598H17.2423L17.0908 70.0348L20.0402 68.892L20.5765 70.6003L17.4988 71.4749L19.4865 74.1219L18.0467 75.1714L16.2572 72.3087L14.4911 75.084L13.0455 74.0695L15.0973 71.3641Z" fill="#717171"/>
<path d="M24.0794 71.3641L21.0542 70.4896L21.6022 68.8104L24.5982 69.9765L24.4467 66.5598H26.2245L26.0788 70.0348L29.0223 68.892L29.5586 70.6003L26.4809 71.4749L28.4686 74.1219L27.0289 75.1714L25.2394 72.3087L23.4732 75.084L22.0277 74.0695L24.0794 71.3641Z" fill="#717171"/>
<path d="M33.0619 71.3641L30.0367 70.4896L30.5846 68.8104L33.5807 69.9765L33.4291 66.5598H35.2069L35.0612 70.0348L38.0048 68.892L38.541 70.6003L35.4634 71.4749L37.451 74.1219L36.0113 75.1714L34.2277 72.3087L32.4557 75.084L31.0101 74.0695L33.0619 71.3641Z" fill="#717171"/>
<path d="M42.0443 71.3641L39.0191 70.4896L39.567 68.8104L42.5631 69.9765L42.4115 66.5598H44.1893L44.0436 70.0348L46.9872 68.892L47.5235 70.6003L44.4458 71.4749L46.4335 74.1219L44.9937 75.1714L43.2101 72.3087L41.4439 75.084L39.9925 74.0695L42.0443 71.3641Z" fill="#717171"/>
</svg>
