<svg width="310" height="309" viewBox="0 0 310 309" fill="none" xmlns="http://www.w3.org/2000/svg">
<path d="M122.922 9.14078C116.203 11.2293 86.3853 20.9481 56.6093 46.7345C49.3958 52.9845 20.2395 78.2345 7.78117 112.182C-13.422 169.969 11.9478 257.875 85.026 293.203C170.146 334.354 277.672 283.703 302.193 215.922C313.068 185.86 313.557 136.005 286.161 103.13C264.109 76.672 226.401 64.0991 227.859 39.0783C228.562 27.0262 237.677 23.6929 235.151 16.0991C229.156 -1.90089 170.417 -5.64047 122.922 9.14078Z" fill="#FFF2CD"/>
<path d="M267.464 52.3856L33.7501 43.3804C28.1928 43.3804 23.6667 47.896 23.6667 53.4429V216.302C23.6667 221.849 28.1928 226.365 33.7501 226.365L118.198 220.651L107.354 260.156L95.8855 260.245C92.3074 260.245 89.3959 263.151 89.3959 266.719C89.3959 270.292 92.3074 273.193 95.8855 273.193L191.958 268.62C195.537 268.62 188.839 226.365 188.839 226.365C188.839 226.365 273.026 52.3856 267.464 52.3856Z" fill="black"/>
<path d="M187.328 205.542H127.729L110.823 267.141H204.24L187.328 205.542Z" fill="white"/>
<path d="M111.557 266.583H203.505L186.906 206.099H128.156L111.557 266.583ZM204.24 267.698H110.823C110.651 267.698 110.484 267.615 110.38 267.479C110.276 267.339 110.24 267.161 110.286 266.995L127.193 205.396C127.26 205.151 127.479 204.984 127.729 204.984H187.328C187.583 204.984 187.802 205.151 187.87 205.396L204.776 266.995C204.823 267.161 204.786 267.339 204.682 267.479C204.578 267.615 204.411 267.698 204.24 267.698Z" fill="black"/>
<path d="M276.521 43.948H38.5469C33.2917 43.948 29.0312 48.198 29.0312 53.4428V216.302C29.0312 221.542 33.2917 225.792 38.5469 225.792H276.521C281.771 225.792 286.031 221.542 286.031 216.302V53.4428C286.031 48.198 281.771 43.948 276.521 43.948Z" fill="white"/>
<path d="M38.5468 44.5052C33.6093 44.5052 29.5937 48.5156 29.5937 53.4427V216.302C29.5937 221.229 33.6093 225.234 38.5468 225.234H276.521C281.453 225.234 285.469 221.229 285.469 216.302V53.4427C285.469 48.5156 281.453 44.5052 276.521 44.5052H38.5468ZM276.521 226.349H38.5468C32.9947 226.349 28.4739 221.844 28.4739 216.302V53.4427C28.4739 47.901 32.9947 43.3906 38.5468 43.3906H276.521C282.068 43.3906 286.588 47.901 286.588 53.4427V216.302C286.588 221.844 282.068 226.349 276.521 226.349Z" fill="black"/>
<path d="M214.385 260.812H100.677C97.4115 260.812 94.7605 263.458 94.7605 266.719C94.7605 269.984 97.4115 272.625 100.677 272.625H214.385C217.651 272.625 220.302 269.984 220.302 266.719C220.302 263.458 217.651 260.812 214.385 260.812Z" fill="white"/>
<path d="M100.677 261.37C97.724 261.37 95.3177 263.771 95.3177 266.719C95.3177 269.672 97.724 272.068 100.677 272.068H214.385C217.339 272.068 219.74 269.672 219.74 266.719C219.74 263.771 217.339 261.37 214.385 261.37H100.677ZM214.385 273.182H100.677C97.1094 273.182 94.2031 270.281 94.2031 266.719C94.2031 263.156 97.1094 260.255 100.677 260.255H214.385C217.953 260.255 220.859 263.156 220.859 266.719C220.859 270.281 217.953 273.182 214.385 273.182Z" fill="black"/>
<path d="M37.4895 173.505V212.635C37.4895 215.24 39.6041 217.354 42.2187 217.354H272.844C275.458 217.354 277.573 215.24 277.573 212.635V148.469L37.4895 173.505Z" fill="white"/>
<path d="M272.844 217.912H42.2136C39.3022 217.912 36.9324 215.547 36.9324 212.636V173.505C36.9324 173.198 37.1772 172.948 37.4897 172.948C37.797 172.948 38.047 173.198 38.047 173.505V212.636C38.047 214.932 39.9167 216.797 42.2136 216.797H272.844C275.146 216.797 277.016 214.932 277.016 212.636V148.469C277.016 148.162 277.266 147.912 277.573 147.912C277.88 147.912 278.13 148.162 278.13 148.469V212.636C278.13 215.547 275.76 217.912 272.844 217.912Z" fill="black"/>
<path d="M37.4897 75.6251C37.1772 75.6251 36.9324 75.3751 36.9324 75.0678V65.0522C36.9324 64.7449 37.1772 64.4949 37.4897 64.4949C37.797 64.4949 38.047 64.7449 38.047 65.0522V75.0678C38.047 75.3751 37.797 75.6251 37.4897 75.6251Z" fill="black"/>
<path d="M55.9322 52.3855H42.2187C39.6041 52.3855 37.4895 54.5001 37.4895 57.1095L55.9322 52.3855Z" fill="white"/>
<path d="M37.4897 57.6616C37.1772 57.6616 36.9324 57.4168 36.9324 57.1095C36.9324 54.1981 39.3022 51.8335 42.2136 51.8335H55.9324C56.2397 51.8335 56.4897 52.0783 56.4897 52.3856C56.4897 52.6929 56.2397 52.9429 55.9324 52.9429H42.2136C39.9167 52.9429 38.047 54.8127 38.047 57.1095C38.047 57.4168 37.797 57.6616 37.4897 57.6616Z" fill="black"/>
<path d="M244.458 216.74H66.5051V0H244.458V216.74Z" fill="#FFF2CD"/>
<path d="M165.552 18.3646H79.6458V12.9531H165.552V18.3646Z" fill="#FFC21A"/>
<path d="M208.958 27.7606H108.542V22.1304H208.958V27.7606Z" fill="white"/>
<path d="M231.318 37.047H130.906V31.4167H231.318V37.047Z" fill="white"/>
<path d="M219.208 46.3334H167.307V40.698H219.208V46.3334Z" fill="white"/>
<path d="M165.552 92.6458H79.6458V87.2344H165.552V92.6458Z" fill="#FFC21A"/>
<path d="M208.958 102.042H108.542V96.4116H208.958V102.042Z" fill="white"/>
<path d="M231.318 111.328H130.906V105.693H231.318V111.328Z" fill="white"/>
<path d="M231.318 120.609H167.307V114.979H231.318V120.609Z" fill="white"/>
<path d="M208.958 55.6146H108.542V49.9844H208.958V55.6146Z" fill="white"/>
<path d="M231.318 64.9012H130.906V59.271H231.318V64.9012Z" fill="white"/>
<path d="M207.104 83.474H167.307V77.8386H207.104V83.474Z" fill="white"/>
<path d="M231.318 74.1877H167.307V68.5522H231.318V74.1877Z" fill="white"/>
<path d="M165.552 129.786H79.6458V124.375H165.552V129.786Z" fill="#FFC21A"/>
<path d="M208.958 139.182H108.542V133.547H208.958V139.182Z" fill="white"/>
<path d="M228.089 148.469H130.906V142.833H228.089V148.469Z" fill="white"/>
<path d="M231.318 157.75H167.307V152.12H231.318V157.75Z" fill="#FFC21A"/>
<path d="M185.161 204.177H130.906V198.547H185.161V204.177Z" fill="#FFC21A"/>
<path d="M208.958 167.036H108.542V161.406H208.958V167.036Z" fill="white"/>
<path d="M231.318 176.323H130.906V170.693H231.318V176.323Z" fill="white"/>
<path d="M231.318 194.891H167.307V189.26H231.318V194.891Z" fill="white"/>
<path d="M203.953 185.604H167.307V179.974H203.953V185.604Z" fill="white"/>
<path d="M252.182 293.261H57.5156V214.318H252.182V293.261Z" fill="black"/>
<path d="M196.255 218.599H49.5676V178.396H196.255V218.599Z" fill="#FFC010"/>
<path d="M50.1251 218.042H195.698V178.948H50.1251V218.042ZM196.255 219.156H49.5678C49.2553 219.156 49.0105 218.906 49.0105 218.599V178.396C49.0105 178.089 49.2553 177.839 49.5678 177.839H196.255C196.563 177.839 196.813 178.089 196.813 178.396V218.599C196.813 218.906 196.563 219.156 196.255 219.156Z" fill="black"/>
<path d="M260.13 218.599H113.443V178.396H260.13V218.599Z" fill="#FFC010"/>
<path d="M114 218.042H259.573V178.948H114V218.042ZM260.13 219.156H113.443C113.135 219.156 112.885 218.906 112.885 218.599V178.396C112.885 178.089 113.135 177.839 113.443 177.839H260.13C260.438 177.839 260.688 178.089 260.688 178.396V218.599C260.688 218.906 260.438 219.156 260.13 219.156Z" fill="black"/>
<path d="M251.365 181.396H122.208C119.026 181.396 116.448 183.969 116.448 187.146V209.844C116.448 213.026 119.026 215.599 122.208 215.599H251.365C254.547 215.599 257.125 213.026 257.125 209.844V187.146C257.125 183.969 254.547 181.396 251.365 181.396Z" fill="#FFC21A"/>
<path d="M136.672 198.495C136.672 200.469 135.073 202.063 133.099 202.063C131.125 202.063 129.521 200.469 129.521 198.495C129.521 196.526 131.125 194.932 133.099 194.932C135.073 194.932 136.672 196.526 136.672 198.495Z" fill="white"/>
<path d="M148.094 198.495C148.094 200.469 146.495 202.063 144.521 202.063C142.547 202.063 140.948 200.469 140.948 198.495C140.948 196.526 142.547 194.932 144.521 194.932C146.495 194.932 148.094 196.526 148.094 198.495Z" fill="white"/>
<path d="M159.516 198.495C159.516 200.469 157.917 202.063 155.943 202.063C153.969 202.063 152.37 200.469 152.37 198.495C152.37 196.526 153.969 194.932 155.943 194.932C157.917 194.932 159.516 196.526 159.516 198.495Z" fill="white"/>
<path d="M59.8333 189.125H103.26C103.823 189.125 104.276 188.672 104.276 188.115C104.276 187.552 103.823 187.099 103.26 187.099H59.8333C59.276 187.099 58.8176 187.552 58.8176 188.115C58.8176 188.672 59.276 189.125 59.8333 189.125Z" fill="black"/>
<path d="M103.26 194.021H59.8333C59.276 194.021 58.8176 194.479 58.8176 195.037C58.8176 195.594 59.276 196.047 59.8333 196.047H103.26C103.823 196.047 104.276 195.594 104.276 195.037C104.276 194.479 103.823 194.021 103.26 194.021Z" fill="black"/>
<path d="M103.26 200.943H59.8333C59.276 200.943 58.8176 201.401 58.8176 201.958C58.8176 202.516 59.276 202.969 59.8333 202.969H103.26C103.823 202.969 104.276 202.516 104.276 201.958C104.276 201.401 103.823 200.943 103.26 200.943Z" fill="black"/>
<path d="M103.26 207.87H59.8333C59.276 207.87 58.8176 208.323 58.8176 208.88C58.8176 209.438 59.276 209.891 59.8333 209.891H103.26C103.823 209.891 104.276 209.438 104.276 208.88C104.276 208.323 103.823 207.87 103.26 207.87Z" fill="black"/>
<path d="M196.255 262.875H49.5676V222.672H196.255V262.875Z" fill="#FFC010"/>
<path d="M50.1251 262.318H195.698V223.229H50.1251V262.318ZM196.255 263.432H49.5678C49.2553 263.432 49.0105 263.182 49.0105 262.875V222.672C49.0105 222.365 49.2553 222.115 49.5678 222.115H196.255C196.563 222.115 196.813 222.365 196.813 222.672V262.875C196.813 263.182 196.563 263.432 196.255 263.432Z" fill="black"/>
<path d="M260.13 262.875H113.443V222.672H260.13V262.875Z" fill="#FFC010"/>
<path d="M114 262.318H259.573V223.229H114V262.318ZM260.13 263.432H113.443C113.135 263.432 112.885 263.182 112.885 262.875V222.672C112.885 222.365 113.135 222.115 113.443 222.115H260.13C260.438 222.115 260.688 222.365 260.688 222.672V262.875C260.688 263.182 260.438 263.432 260.13 263.432Z" fill="black"/>
<path d="M251.365 225.672H122.208C119.026 225.672 116.448 228.245 116.448 231.422V254.125C116.448 257.302 119.026 259.875 122.208 259.875H251.365C254.547 259.875 257.125 257.302 257.125 254.125V231.422C257.125 228.245 254.547 225.672 251.365 225.672Z" fill="#FFC21A"/>
<path d="M136.672 242.776C136.672 244.745 135.073 246.344 133.099 246.344C131.125 246.344 129.521 244.745 129.521 242.776C129.521 240.802 131.125 239.203 133.099 239.203C135.073 239.203 136.672 240.802 136.672 242.776Z" fill="white"/>
<path d="M148.094 242.776C148.094 244.745 146.495 246.344 144.521 246.344C142.547 246.344 140.948 244.745 140.948 242.776C140.948 240.802 142.547 239.203 144.521 239.203C146.495 239.203 148.094 240.802 148.094 242.776Z" fill="white"/>
<path d="M159.516 242.776C159.516 244.745 157.917 246.344 155.943 246.344C153.969 246.344 152.37 244.745 152.37 242.776C152.37 240.802 153.969 239.203 155.943 239.203C157.917 239.203 159.516 240.802 159.516 242.776Z" fill="white"/>
<path d="M59.8333 233.401H103.26C103.823 233.401 104.276 232.948 104.276 232.391C104.276 231.833 103.823 231.375 103.26 231.375H59.8333C59.276 231.375 58.8176 231.833 58.8176 232.391C58.8176 232.948 59.276 233.401 59.8333 233.401Z" fill="black"/>
<path d="M103.26 238.302H59.8333C59.276 238.302 58.8176 238.75 58.8176 239.313C58.8176 239.87 59.276 240.323 59.8333 240.323H103.26C103.823 240.323 104.276 239.87 104.276 239.313C104.276 238.75 103.823 238.302 103.26 238.302Z" fill="black"/>
<path d="M103.26 245.224H59.8333C59.276 245.224 58.8176 245.677 58.8176 246.235C58.8176 246.797 59.276 247.245 59.8333 247.245H103.26C103.823 247.245 104.276 246.797 104.276 246.235C104.276 245.677 103.823 245.224 103.26 245.224Z" fill="black"/>
<path d="M103.26 252.146H59.8333C59.276 252.146 58.8176 252.599 58.8176 253.156C58.8176 253.714 59.276 254.172 59.8333 254.172H103.26C103.823 254.172 104.276 253.714 104.276 253.156C104.276 252.599 103.823 252.146 103.26 252.146Z" fill="black"/>
<path d="M196.255 307.151H49.5676V266.948H196.255V307.151Z" fill="#FFC010"/>
<path d="M50.1251 306.599H195.698V267.505H50.1251V306.599ZM196.255 307.708H49.5678C49.2553 307.708 49.0105 307.464 49.0105 307.151V266.948C49.0105 266.641 49.2553 266.391 49.5678 266.391H196.255C196.563 266.391 196.813 266.641 196.813 266.948V307.151C196.813 307.464 196.563 307.708 196.255 307.708Z" fill="black"/>
<path d="M260.13 307.151H113.443V266.948H260.13V307.151Z" fill="#FFC010"/>
<path d="M114 306.599H259.573V267.505H114V306.599ZM260.13 307.708H113.443C113.135 307.708 112.885 307.464 112.885 307.151V266.948C112.885 266.641 113.135 266.391 113.443 266.391H260.13C260.438 266.391 260.688 266.641 260.688 266.948V307.151C260.688 307.464 260.438 307.708 260.13 307.708Z" fill="black"/>
<path d="M251.365 269.948H122.208C119.026 269.948 116.448 272.526 116.448 275.703V298.401C116.448 301.578 119.026 304.151 122.208 304.151H251.365C254.547 304.151 257.125 301.578 257.125 298.401V275.703C257.125 272.526 254.547 269.948 251.365 269.948Z" fill="#FFC21A"/>
<path d="M136.672 287.052C136.672 289.021 135.073 290.62 133.099 290.62C131.125 290.62 129.521 289.021 129.521 287.052C129.521 285.078 131.125 283.484 133.099 283.484C135.073 283.484 136.672 285.078 136.672 287.052Z" fill="white"/>
<path d="M148.094 287.052C148.094 289.021 146.495 290.62 144.521 290.62C142.547 290.62 140.948 289.021 140.948 287.052C140.948 285.078 142.547 283.484 144.521 283.484C146.495 283.484 148.094 285.078 148.094 287.052Z" fill="white"/>
<path d="M159.516 287.052C159.516 289.021 157.917 290.62 155.943 290.62C153.969 290.62 152.37 289.021 152.37 287.052C152.37 285.078 153.969 283.484 155.943 283.484C157.917 283.484 159.516 285.078 159.516 287.052Z" fill="white"/>
<path d="M59.8333 277.677H103.26C103.823 277.677 104.276 277.224 104.276 276.667C104.276 276.109 103.823 275.656 103.26 275.656H59.8333C59.276 275.656 58.8176 276.109 58.8176 276.667C58.8176 277.224 59.276 277.677 59.8333 277.677Z" fill="black"/>
<path d="M103.26 282.578H59.8333C59.276 282.578 58.8176 283.031 58.8176 283.589C58.8176 284.151 59.276 284.604 59.8333 284.604H103.26C103.823 284.604 104.276 284.151 104.276 283.589C104.276 283.031 103.823 282.578 103.26 282.578Z" fill="black"/>
<path d="M103.26 289.5H59.8333C59.276 289.5 58.8176 289.953 58.8176 290.51C58.8176 291.068 59.276 291.526 59.8333 291.526H103.26C103.823 291.526 104.276 291.068 104.276 290.51C104.276 289.953 103.823 289.5 103.26 289.5Z" fill="black"/>
<path d="M103.26 296.422H59.8333C59.276 296.422 58.8176 296.875 58.8176 297.432C58.8176 297.995 59.276 298.448 59.8333 298.448H103.26C103.823 298.448 104.276 297.995 104.276 297.432C104.276 296.875 103.823 296.422 103.26 296.422Z" fill="black"/>
<path d="M237.953 202.755L234.411 214.281L243.047 214.318L248.182 204.886L237.953 202.755Z" fill="white"/>
<path d="M235.167 213.729L242.714 213.755L247.333 205.281L238.339 203.401L235.167 213.729ZM243.047 214.875C243.042 214.875 243.042 214.875 243.042 214.875L234.406 214.839C234.234 214.839 234.068 214.75 233.964 214.609C233.859 214.469 233.828 214.287 233.88 214.12L237.422 202.594C237.505 202.318 237.786 202.146 238.068 202.208L248.297 204.344C248.469 204.38 248.62 204.495 248.688 204.651C248.766 204.813 248.76 205 248.677 205.151L243.536 214.583C243.438 214.76 243.25 214.875 243.047 214.875Z" fill="black"/>
<path d="M191.755 223.396L186.63 240.391C186.63 240.391 192.526 246.646 192.182 246.182C191.844 245.714 202.463 227.943 202.463 227.943L191.755 223.396Z" fill="white"/>
<path d="M187.255 240.245C188.786 241.865 190.922 244.12 191.953 245.182C192.49 244.005 193.797 241.635 196.713 236.609C198.766 233.068 200.87 229.531 201.661 228.203L192.109 224.151L187.255 240.245ZM192.213 246.771C191.958 246.771 191.74 246.552 191.547 246.359C191.391 246.203 191.172 245.974 190.906 245.698C190.38 245.156 189.682 244.427 188.99 243.698C187.604 242.24 186.224 240.771 186.224 240.771C186.083 240.63 186.036 240.422 186.094 240.229L191.224 223.234C191.266 223.083 191.375 222.958 191.521 222.891C191.661 222.823 191.828 222.823 191.974 222.88L202.682 227.432C202.833 227.49 202.948 227.615 203 227.771C203.047 227.922 203.026 228.088 202.943 228.229C199.172 234.536 193.151 244.849 192.745 246.146C192.76 246.328 192.698 246.516 192.552 246.635C192.432 246.734 192.323 246.771 192.213 246.771Z" fill="black"/>
<path d="M231.026 222.443C231.026 222.443 230.901 216.245 234.526 212.104L242.328 213.328L244.724 212.104C244.724 212.104 259.906 217.698 260.583 222.443H231.026Z" fill="#FFC010"/>
<path d="M256.135 221.016H232.568C232.26 221.016 232.01 220.76 232.01 220.458C232.01 220.146 232.26 219.901 232.568 219.901H256.135C256.443 219.901 256.693 220.146 256.693 220.458C256.693 220.76 256.443 221.016 256.135 221.016Z" fill="black"/>
<path d="M245.802 217.828C245.682 217.828 245.563 217.792 245.458 217.708C245.214 217.516 245.177 217.167 245.37 216.927L247.745 213.932C247.938 213.693 248.292 213.651 248.531 213.844C248.771 214.036 248.813 214.385 248.62 214.625L246.24 217.62C246.13 217.755 245.969 217.828 245.802 217.828Z" fill="black"/>
<path d="M250.703 218.651C250.609 218.651 250.51 218.625 250.427 218.573C250.156 218.422 250.068 218.083 250.219 217.818L251.318 215.896C251.469 215.63 251.813 215.536 252.078 215.687C252.349 215.838 252.438 216.182 252.287 216.448L251.188 218.37C251.083 218.547 250.896 218.651 250.703 218.651Z" fill="black"/>
<path d="M180.359 244.443C180.359 244.443 182.292 257.948 186.927 265.656C187.708 266.953 189.583 266.995 190.443 265.75C190.943 265.026 191.526 264.037 192.182 262.682C194.646 257.62 194.422 242.245 194.422 242.245L192.521 240.859C191.854 240.375 190.911 240.573 190.495 241.281L189.932 242.245L188.115 239.156C187.698 238.453 186.781 238.234 186.099 238.682C184.714 239.599 182.437 241.406 180.359 244.443Z" fill="#FFC010"/>
<path d="M189.188 265.412C188.984 265.412 188.787 265.297 188.693 265.104C184.266 256.302 182.151 244.115 182.13 243.995C182.078 243.693 182.287 243.406 182.589 243.354C182.891 243.302 183.182 243.505 183.229 243.807C183.25 243.927 185.339 255.953 189.688 264.604C189.828 264.88 189.714 265.214 189.438 265.354C189.359 265.391 189.276 265.412 189.188 265.412Z" fill="black"/>
<path d="M193.188 255.427H189.375C189.062 255.427 188.812 255.177 188.812 254.865C188.812 254.563 189.062 254.312 189.375 254.312H193.188C193.495 254.312 193.745 254.563 193.745 254.865C193.745 255.177 193.495 255.427 193.188 255.427Z" fill="black"/>
<path d="M193.115 251.011H188.318C188.01 251.011 187.76 250.761 187.76 250.453C187.76 250.146 188.01 249.896 188.318 249.896H193.115C193.422 249.896 193.672 250.146 193.672 250.453C193.672 250.761 193.422 251.011 193.115 251.011Z" fill="black"/>
<path d="M201.76 145.969C201.76 145.969 243.182 135.042 268.661 144.432C271.172 145.36 272.875 147.714 272.969 150.386C273.229 158.099 270.448 176.365 247.359 208.714L234.318 208.224L246.422 166.464L196.031 172.646L201.76 145.969Z" fill="black"/>
<path d="M154.937 147.432C154.937 147.432 148.995 154.505 151.833 168.724C152.766 173.412 156.594 176.99 161.338 177.62L202.906 183.156C202.906 183.156 188.505 209.875 189.932 228.37C189.932 228.37 194.984 232.87 201.245 234.797C201.245 234.797 226.745 194.479 237.422 173.13C239.604 168.76 238.443 163.443 234.578 160.448C228.255 155.547 216.297 149.438 195.937 149.385C161.932 149.302 154.937 147.432 154.937 147.432Z" fill="black"/>
<path d="M204.469 181.135C204.375 181.135 204.286 181.115 204.198 181.068C203.927 180.922 203.833 180.583 203.979 180.312L211.417 166.812C211.568 166.542 211.906 166.443 212.177 166.594C212.448 166.74 212.547 167.078 212.396 167.349L204.958 180.849C204.854 181.031 204.667 181.135 204.469 181.135Z" fill="#FFF2CD"/>
<path d="M237.953 166.995C237.672 166.995 237.427 166.781 237.401 166.495C236.495 158.021 223.104 154.62 222.969 154.583C222.672 154.511 222.49 154.208 222.562 153.912C222.635 153.615 222.937 153.432 223.234 153.505C223.818 153.646 237.521 157.136 238.51 166.38C238.542 166.682 238.318 166.958 238.01 166.99C237.99 166.995 237.974 166.995 237.953 166.995Z" fill="#FFF2CD"/>
<path d="M228.771 114.531C228.771 114.531 241.13 142.354 263.359 143.354C264.359 143.401 264.563 144.781 263.609 145.099L240.911 152.661C240.911 152.661 222.573 133.641 219.323 125C216.073 116.365 228.771 114.531 228.771 114.531Z" fill="white"/>
<path d="M228.443 115.156C226.969 115.437 221.906 116.62 220.047 119.76C219.198 121.198 219.13 122.896 219.844 124.807C222.818 132.708 238.891 149.734 241.068 152.021L263.437 144.573C263.677 144.49 263.677 144.292 263.667 144.208C263.651 144.125 263.594 143.922 263.333 143.911C254.083 143.495 245.083 138.312 237.297 128.922C232.245 122.823 229.198 116.74 228.443 115.156ZM240.911 153.219C240.76 153.219 240.614 153.156 240.51 153.047C239.76 152.266 222.057 133.844 218.802 125.198C217.958 122.953 218.052 120.937 219.088 119.193C221.536 115.057 228.396 114.026 228.687 113.984C228.932 113.948 229.177 114.078 229.276 114.307C229.401 114.583 241.76 141.823 263.385 142.802C264.104 142.833 264.672 143.349 264.771 144.057C264.87 144.755 264.463 145.401 263.786 145.63L241.088 153.187C241.031 153.208 240.969 153.219 240.911 153.219Z" fill="black"/>
<path d="M214.146 145.312C214.146 145.312 199.568 151.297 182.682 153.198C165.797 155.099 151.068 153.198 151.068 153.198C151.068 153.198 161.203 103.958 197.078 101.698C209.682 100.906 227.088 103.021 225.151 109.255C220.234 125.052 214.146 145.312 214.146 145.312Z" fill="#FFC010"/>
<path d="M236.089 122.354L223.807 105.672L215.234 131.005L226.745 140.052L236.089 122.354Z" fill="#FFC010"/>
<path d="M217.875 133.438C217.849 133.438 217.823 133.432 217.797 133.427C217.49 133.386 217.281 133.104 217.323 132.802L219.719 116.052C219.766 115.75 220.047 115.542 220.349 115.583C220.656 115.625 220.87 115.906 220.823 116.214L218.427 132.958C218.385 133.234 218.151 133.438 217.875 133.438Z" fill="black"/>
<path d="M268.896 153.521H208.333C206.318 153.521 204.688 151.896 204.688 149.885H272.542C272.542 151.896 270.911 153.521 268.896 153.521Z" fill="#FFC21A"/>
<path d="M205.297 150.443C205.562 151.875 206.818 152.969 208.333 152.969H268.896C270.411 152.969 271.672 151.875 271.932 150.443H205.297ZM268.896 154.078H208.333C206.016 154.078 204.13 152.198 204.13 149.885C204.13 149.578 204.38 149.328 204.687 149.328H272.542C272.849 149.328 273.099 149.578 273.099 149.885C273.099 152.198 271.213 154.078 268.896 154.078Z" fill="black"/>
<path d="M272.542 149.953H233.719L246.052 113.708C246.792 112.573 248.078 111.885 249.458 111.885H282.281C283.771 111.885 284.729 113.328 284.24 114.599C284.047 115.109 283.839 115.604 283.672 116.12L272.542 149.953Z" fill="#FFC21A"/>
<path d="M234.495 149.396H272.141L283.141 115.948C283.266 115.563 283.411 115.187 283.557 114.828C283.609 114.687 283.667 114.547 283.719 114.401C283.885 113.969 283.823 113.49 283.552 113.094C283.266 112.682 282.802 112.443 282.281 112.443H249.458C248.281 112.443 247.203 113.005 246.557 113.953L234.495 149.396ZM272.542 150.51H233.719C233.536 150.51 233.37 150.422 233.266 150.276C233.161 150.13 233.13 149.943 233.188 149.771L245.526 113.526C245.542 113.484 245.563 113.443 245.583 113.401C246.432 112.104 247.88 111.328 249.458 111.328H282.281C283.172 111.328 283.974 111.745 284.469 112.464C284.948 113.156 285.057 114.026 284.76 114.797C284.708 114.943 284.651 115.089 284.594 115.229C284.453 115.599 284.318 115.943 284.203 116.297L273.073 150.125C272.995 150.354 272.781 150.51 272.542 150.51Z" fill="black"/>
<path d="M258.135 130.427C257.672 131.964 258.38 133.531 259.714 133.932C261.047 134.333 262.505 133.417 262.969 131.886C263.427 130.354 262.724 128.787 261.391 128.38C260.052 127.979 258.599 128.896 258.135 130.427Z" fill="white"/>
<path d="M202.693 98.7136L191.109 102.646C208.49 107.818 216.318 103.63 216.318 103.63L211.792 101.49L212.911 98.9115C214.057 99.448 215.135 100.042 215.948 99.7136C217.823 98.948 218.849 95.8386 218.849 95.8386L219.698 95.9428C219.823 95.9584 219.948 95.922 220.042 95.8386C220.141 95.7553 220.198 95.6355 220.203 95.5105C220.25 93.823 220.188 92.5626 220.667 91.1251C221.146 89.7136 221.51 89.7292 221.953 86.2865L214.224 81.1042L210.297 86.8595C210.297 86.8595 209.62 85.3022 208.172 85.8334C207.12 86.224 206.646 89.5417 207.625 90.2032L202.693 98.7136Z" fill="white"/>
<path d="M192.974 102.599C205.182 105.922 212.307 104.432 214.917 103.578L211.552 101.995C211.281 101.865 211.156 101.547 211.281 101.271L212.401 98.6876C212.458 98.5469 212.573 98.4428 212.713 98.3907C212.859 98.3334 213.016 98.3438 213.151 98.4063L213.469 98.5574C214.333 98.974 215.229 99.4011 215.734 99.198C217.078 98.6511 218.052 96.4584 218.318 95.6667C218.401 95.4115 218.651 95.2501 218.917 95.2865L219.646 95.3751C219.651 95.1459 219.656 94.9219 219.661 94.7032C219.687 93.3751 219.708 92.2292 220.141 90.948C220.276 90.5521 220.396 90.2709 220.516 90.0001C220.807 89.323 221.057 88.7344 221.354 86.5574L214.37 81.8751L210.755 87.1771C210.641 87.3438 210.443 87.4376 210.24 87.4167C210.036 87.3959 209.865 87.2709 209.781 87.0834C209.703 86.9063 209.26 86.0313 208.37 86.3594C208.161 86.4324 207.802 87.0834 207.682 88.0574C207.568 89.0105 207.766 89.6251 207.937 89.7396C208.182 89.9011 208.26 90.224 208.109 90.4792L203.177 98.9896C203.109 99.1094 203 99.198 202.875 99.2396L192.974 102.599ZM206.958 105.802C202.963 105.802 197.661 105.177 190.948 103.182C190.713 103.109 190.552 102.901 190.552 102.656C190.542 102.417 190.698 102.198 190.927 102.12L202.318 98.2553L206.937 90.2813C206.437 89.5313 206.526 88.3282 206.578 87.9219C206.703 86.8646 207.141 85.6251 207.984 85.3126C209.016 84.9324 209.802 85.3438 210.297 85.8699L213.76 80.7917C213.932 80.5365 214.276 80.4688 214.531 80.6407L222.266 85.823C222.437 85.9428 222.531 86.1459 222.505 86.3594C222.172 88.9688 221.865 89.6824 221.542 90.4376C221.432 90.6928 221.318 90.9532 221.198 91.3021C220.823 92.4219 220.802 93.4376 220.776 94.724C220.771 94.9844 220.766 95.2501 220.755 95.5261C220.75 95.8126 220.62 96.0782 220.406 96.2605C220.193 96.448 219.906 96.5313 219.625 96.4949L219.213 96.4428C218.838 97.3803 217.818 99.5521 216.156 100.229C215.25 100.594 214.25 100.167 213.193 99.6615L212.516 101.219L216.557 103.125C216.75 103.214 216.87 103.401 216.875 103.615C216.885 103.823 216.771 104.021 216.583 104.12C216.385 104.224 213.323 105.802 206.958 105.802Z" fill="black"/>
<path d="M207.682 85.9478C207.682 85.9478 210.141 85.7343 209.969 86.8437C209.724 88.3906 209.417 88.6978 209.703 89.3072C209.854 89.6353 210.266 89.8645 210.609 89.8697C211.333 89.8801 211.573 88.677 212.849 87.3437C213.391 86.7812 213.958 86.3593 214.281 86.1718C216.76 84.7031 219.573 88.0208 222.588 87.0676C224.594 86.4322 226.182 84.0676 225.786 82.4739C225.625 81.8072 225.062 81.0572 220.12 79.4478C215.114 77.8124 212.614 76.9947 211.12 77.7447C207.604 79.5051 207.672 85.5051 207.682 85.9478Z" fill="black"/>
<path d="M212.912 99.4636C212.802 99.4636 212.693 99.4324 212.594 99.3647L210.609 97.9793C209.604 97.2761 209.083 96.0782 209.26 94.8647L209.339 94.323C209.38 94.0157 209.662 93.8074 209.969 93.849C210.271 93.8907 210.484 94.1772 210.443 94.4793L210.365 95.0209C210.25 95.823 210.589 96.6043 211.25 97.0678L213.234 98.4532C213.484 98.6303 213.547 98.9793 213.37 99.2293C213.26 99.3855 213.089 99.4636 212.912 99.4636Z" fill="black"/>
<path d="M166.109 120.917C166.109 120.917 166.911 144.36 172.297 153.474C178.734 164.365 211.208 149.698 211.208 149.698L214.984 147.563C217.536 146.12 220.583 145.813 223.375 146.714L229.474 148.677C229.474 148.677 224.438 142.646 220.151 140.344C218.146 139.261 215.542 140.281 213.339 141.672C209.557 144.068 205.104 145.188 200.625 145.057L187.708 144.672C185.542 144.61 183.766 142.932 183.573 140.776L181.63 113.693L166.109 120.917Z" fill="white"/>
<path d="M166.677 121.266C166.812 124.276 167.885 144.917 172.781 153.193C178.823 163.417 209.948 149.651 210.953 149.203L214.708 147.078C217.391 145.568 220.609 145.239 223.547 146.182L227.703 147.521C225.937 145.599 222.719 142.354 219.891 140.833C218.026 139.828 215.458 140.989 213.641 142.146C209.828 144.552 205.328 145.75 200.609 145.609L187.693 145.229C185.239 145.156 183.234 143.26 183.021 140.823L181.13 114.536L166.677 121.266ZM182.141 158.052C177.536 158.052 173.682 156.911 171.818 153.76C166.417 144.625 165.583 121.901 165.547 120.937C165.542 120.713 165.667 120.505 165.87 120.411L181.391 113.187C181.557 113.109 181.755 113.12 181.911 113.213C182.068 113.302 182.172 113.469 182.187 113.651L184.13 140.734C184.297 142.604 185.838 144.057 187.724 144.114L200.646 144.5C205.135 144.63 209.422 143.489 213.042 141.203C216.057 139.297 218.542 138.844 220.417 139.849C224.745 142.182 229.693 148.068 229.901 148.318C230.062 148.51 230.073 148.781 229.937 148.989C229.797 149.193 229.536 149.281 229.302 149.208L223.203 147.239C220.568 146.391 217.672 146.687 215.26 148.052L211.479 150.182C211.463 150.193 211.453 150.198 211.437 150.208C210.469 150.641 193.87 158.052 182.141 158.052Z" fill="black"/>
<path d="M191.75 101.776C176.411 102.255 163.948 111.349 160.833 133.599L186 130.964L191.75 101.776Z" fill="#FFC010"/>
<path d="M186 131.521C185.693 131.521 185.443 131.276 185.443 130.974L185.203 113.271C185.198 112.964 185.443 112.708 185.75 112.703C185.755 112.703 185.755 112.703 185.76 112.703C186.063 112.703 186.313 112.948 186.318 113.255L186.557 130.958C186.563 131.266 186.318 131.516 186.005 131.521H186Z" fill="black"/>
<path d="M108.932 147.37H40.0521C37.3646 147.37 35.1875 149.547 35.1875 152.229V228.083C35.1875 230.766 37.3646 232.943 40.0521 232.943H108.932C111.62 232.943 113.797 230.766 113.797 228.083V152.229C113.797 149.547 111.62 147.37 108.932 147.37Z" fill="white"/>
<path d="M40.052 147.927C37.677 147.927 35.7447 149.859 35.7447 152.229V228.083C35.7447 230.458 37.677 232.385 40.052 232.385H108.932C111.307 232.385 113.24 230.458 113.24 228.083V152.229C113.24 149.859 111.307 147.927 108.932 147.927H40.052ZM108.932 233.5H40.052C37.0624 233.5 34.6301 231.073 34.6301 228.083V152.229C34.6301 149.245 37.0624 146.812 40.052 146.812H108.932C111.922 146.812 114.354 149.245 114.354 152.229V228.083C114.354 231.073 111.922 233.5 108.932 233.5Z" fill="black"/>
<path d="M109.995 155.901H39.0574C38.7449 155.901 38.4949 155.651 38.4949 155.344C38.4949 155.037 38.7449 154.787 39.0574 154.787H109.995C110.302 154.787 110.552 155.037 110.552 155.344C110.552 155.651 110.302 155.901 109.995 155.901Z" fill="black"/>
<path d="M41.5522 151.11C41.5522 151.797 40.9897 152.354 40.3022 152.354C39.6147 152.354 39.0574 151.797 39.0574 151.11C39.0574 150.422 39.6147 149.865 40.3022 149.865C40.9897 149.865 41.5522 150.422 41.5522 151.11Z" fill="#FFC21A"/>
<path d="M46.5417 151.11C46.5417 151.797 45.9844 152.354 45.2917 152.354C44.6042 152.354 44.0469 151.797 44.0469 151.11C44.0469 150.422 44.6042 149.865 45.2917 149.865C45.9844 149.865 46.5417 150.422 46.5417 151.11Z" fill="#FFC21A"/>
<path d="M51.5312 151.11C51.5312 151.797 50.9739 152.354 50.2864 152.354C49.5937 152.354 49.0364 151.797 49.0364 151.11C49.0364 150.422 49.5937 149.865 50.2864 149.865C50.9739 149.865 51.5312 150.422 51.5312 151.11Z" fill="#FFC21A"/>
<path d="M109.995 151.662H102.964C102.656 151.662 102.406 151.417 102.406 151.11C102.406 150.802 102.656 150.552 102.964 150.552H109.995C110.302 150.552 110.552 150.802 110.552 151.11C110.552 151.417 110.302 151.662 109.995 151.662Z" fill="black"/>
<path d="M99.802 151.662H70.6874C70.3801 151.662 70.1301 151.417 70.1301 151.11C70.1301 150.802 70.3801 150.552 70.6874 150.552H99.802C100.109 150.552 100.359 150.802 100.359 151.11C100.359 151.417 100.109 151.662 99.802 151.662Z" fill="black"/>
<path d="M63.0313 151.662H56.8334C56.5261 151.662 56.2761 151.417 56.2761 151.11C56.2761 150.802 56.5261 150.552 56.8334 150.552H63.0313C63.3386 150.552 63.5886 150.802 63.5886 151.11C63.5886 151.417 63.3386 151.662 63.0313 151.662Z" fill="black"/>
<path d="M62.5678 187.958C64.8334 183.995 69.0522 181.198 73.9584 180.693L74.297 161.328C60.2136 161.375 47.7813 169.302 42.1199 181.01L62.5678 187.958Z" fill="#FFC21A"/>
<path d="M42.9009 180.688L62.3176 187.287C64.6874 183.432 68.7759 180.823 73.4114 180.198L73.7291 161.896C60.5936 162.141 48.6041 169.453 42.9009 180.688ZM62.5676 188.516C62.5051 188.516 62.4426 188.505 62.3853 188.484L41.9374 181.537C41.7864 181.484 41.6666 181.37 41.6041 181.224C41.5416 181.073 41.5468 180.906 41.6197 180.766C47.4686 168.667 60.2968 160.823 74.2968 160.776C74.4478 160.776 74.5884 160.833 74.6978 160.938C74.802 161.047 74.8593 161.188 74.8541 161.339L74.5155 180.703C74.5103 180.984 74.2968 181.219 74.0155 181.245C69.3801 181.729 65.2811 184.339 63.052 188.234C62.9478 188.412 62.7603 188.516 62.5676 188.516Z" fill="black"/>
<path d="M61.6042 167.151C61.3803 167.151 61.1719 167.021 61.0834 166.802C60.9688 166.516 61.1094 166.193 61.3959 166.078C64.5938 164.786 67.9636 163.979 71.4167 163.682C71.724 163.656 71.9948 163.88 72.0209 164.187C72.0469 164.495 71.823 164.766 71.5157 164.792C68.1719 165.078 64.9063 165.859 61.8125 167.109C61.7448 167.135 61.6719 167.151 61.6042 167.151Z" fill="black"/>
<path d="M50.3803 174.62C50.2397 174.62 50.0991 174.563 49.9897 174.458C49.7709 174.245 49.7657 173.891 49.9845 173.672C52.4011 171.208 55.2032 169.135 58.3178 167.5C58.5886 167.359 58.9272 167.464 59.0678 167.734C59.2136 168.005 59.1095 168.344 58.8334 168.484C55.823 170.063 53.1147 172.068 50.7814 174.448C50.672 174.563 50.5261 174.62 50.3803 174.62Z" fill="black"/>
<path d="M89.7397 196.542C88.5834 202.901 82.7761 207.901 75.6667 208.125C73.5417 208.188 71.5157 207.823 69.6772 207.109L58.573 224.271C63.7345 226.594 69.5678 227.734 75.6667 227.385C93.4011 226.365 107.344 213.042 108.891 197L89.7397 196.542Z" fill="#FFC21A"/>
<path d="M59.4011 224.021C64.4376 226.177 70.0365 227.151 75.6355 226.828C92.5157 225.859 106.438 213.318 108.276 197.542L90.1928 197.109C88.7761 203.625 82.7501 208.458 75.6824 208.682C73.6824 208.745 71.7449 208.443 69.9011 207.787L59.4011 224.021ZM73.5366 228C68.2709 228 63.0574 226.901 58.3438 224.776C58.198 224.708 58.0886 224.583 58.0418 224.427C57.9949 224.271 58.0209 224.104 58.1095 223.969L69.2084 206.807C69.3543 206.583 69.6355 206.495 69.8803 206.589C71.7084 207.302 73.6459 207.63 75.6459 207.568C82.3647 207.359 88.0574 202.677 89.1928 196.443C89.2397 196.172 89.4741 195.969 89.7553 195.984L108.906 196.443C109.063 196.443 109.208 196.516 109.307 196.63C109.412 196.745 109.464 196.896 109.448 197.052C107.844 213.646 93.3334 226.927 75.698 227.938C74.9793 227.979 74.2553 228 73.5366 228Z" fill="black"/>
<path d="M73.5001 225.224C69.7345 225.224 66.0574 224.63 62.573 223.453C62.2813 223.359 62.1251 223.042 62.2241 222.75C62.323 222.458 62.6407 222.302 62.9324 222.401C66.3022 223.536 69.8595 224.115 73.5001 224.115C74.1563 224.115 74.823 224.094 75.4741 224.057C75.7813 224.036 76.047 224.271 76.0626 224.578C76.0782 224.885 75.8438 225.151 75.5366 225.167C74.8647 225.208 74.1772 225.224 73.5001 225.224Z" fill="black"/>
<path d="M82.5156 224.026C82.2708 224.026 82.0468 223.865 81.9791 223.62C81.8958 223.323 82.0729 223.016 82.3697 222.932C93.9374 219.787 102.875 210.62 105.13 199.589C105.193 199.287 105.484 199.089 105.792 199.151C106.088 199.214 106.286 199.511 106.224 199.807C103.885 211.25 94.6354 220.75 82.6614 224.005C82.6145 224.021 82.5624 224.026 82.5156 224.026Z" fill="black"/>
<path d="M55.0989 222.464L66.3072 205.25C62.953 202.776 60.7968 198.922 60.7968 194.547C60.7968 193.495 60.927 192.464 61.1666 191.474L40.6405 184.604C39.5416 187.828 38.9426 191.26 38.9426 194.818C38.9426 206.589 45.4166 216.729 55.0989 222.464Z" fill="#FFC21A"/>
<path d="M40.9949 185.312C40.0053 188.385 39.5001 191.583 39.5001 194.818C39.5001 205.766 45.2553 215.781 54.9272 221.708L65.5574 205.38C62.172 202.693 60.2397 198.776 60.2397 194.547C60.2397 193.641 60.3334 192.729 60.5105 191.838L40.9949 185.312ZM55.099 223.021C55.0053 223.021 54.9063 222.995 54.8178 222.943C44.5261 216.849 38.3855 206.333 38.3855 194.818C38.3855 191.276 38.9688 187.781 40.1147 184.427C40.2136 184.135 40.5261 183.979 40.8178 184.078L61.3438 190.943C61.6147 191.036 61.7761 191.323 61.7084 191.599C61.474 192.568 61.3595 193.557 61.3595 194.547C61.3595 198.588 63.2813 202.323 66.6355 204.807C66.8751 204.979 66.9324 205.307 66.7709 205.557L55.5678 222.766C55.4636 222.932 55.2813 223.021 55.099 223.021Z" fill="black"/>
<path d="M80.323 179.964C86.797 180.922 91.7813 185.932 92.3699 192.125L123.693 193.031C123.693 193.021 123.693 193.005 123.693 192.99C123.693 170.057 105.385 150.432 80.8803 147.906L80.323 179.964Z" fill="#FFC21A"/>
<path d="M92.8699 191.583L123.13 192.458C122.854 169.984 105.063 151.245 81.4272 148.526L80.8855 179.49C87.2345 180.636 92.0678 185.516 92.8699 191.583ZM123.688 193.589C123.682 193.589 123.677 193.589 123.672 193.589L92.3542 192.682C92.073 192.677 91.8438 192.458 91.8178 192.177C91.2501 186.24 86.4897 181.443 80.2397 180.511C79.9636 180.469 79.7605 180.229 79.7605 179.953L80.323 147.896C80.3282 147.74 80.3959 147.594 80.5105 147.49C80.6303 147.386 80.7813 147.339 80.9376 147.349C92.8803 148.583 103.87 153.932 111.88 162.417C119.854 170.859 124.25 181.719 124.25 192.99C124.25 193.146 124.188 193.307 124.078 193.412C123.974 193.516 123.833 193.589 123.688 193.589Z" fill="black"/>
<path d="M45.2084 180.745H4.21362C2.19279 180.745 0.557373 182.38 0.557373 184.396V238.76C0.557373 240.781 2.19279 242.412 4.21362 242.412H45.2084C47.224 242.412 48.8647 240.781 48.8647 238.76V184.396C48.8647 182.38 47.224 180.745 45.2084 180.745Z" fill="white"/>
<path d="M4.21354 181.302C2.50521 181.302 1.11458 182.688 1.11458 184.396V238.76C1.11458 240.469 2.50521 241.859 4.21354 241.859H45.2083C46.9167 241.859 48.3073 240.469 48.3073 238.76V184.396C48.3073 182.688 46.9167 181.302 45.2083 181.302H4.21354ZM45.2083 242.969H4.21354C1.89062 242.969 0 241.083 0 238.76V184.396C0 182.073 1.89062 180.188 4.21354 180.188H45.2083C47.5312 180.188 49.4219 182.073 49.4219 184.396V238.76C49.4219 241.083 47.5312 242.969 45.2083 242.969Z" fill="black"/>
<path d="M16.8229 232.885H6.29688V198.37H16.8229V232.885Z" fill="#FFF2CD"/>
<path d="M29.9688 232.885H19.448V188.844H29.9688V232.885Z" fill="#FFF2CD"/>
<path d="M43.1197 232.885H32.5989V212.307H43.1197V232.885Z" fill="#FFF2CD"/>
<path d="M8.29167 219.583C7.98437 219.583 7.73438 219.333 7.73438 219.026V197.198C7.73438 196.896 7.98437 196.646 8.29167 196.646H18.8177C19.125 196.646 19.375 196.896 19.375 197.198V207.078C19.375 207.386 19.125 207.636 18.8177 207.636C18.5104 207.636 18.2604 207.386 18.2604 207.078V197.755H8.84896V219.026C8.84896 219.333 8.59896 219.583 8.29167 219.583Z" fill="black"/>
<path d="M31.9636 227.037C31.6563 227.037 31.4063 226.787 31.4063 226.479V188.234H22.0001V219.115C22.0001 219.422 21.7501 219.672 21.4428 219.672C21.1355 219.672 20.8855 219.422 20.8855 219.115V187.677C20.8855 187.37 21.1355 187.12 21.4428 187.12H31.9636C32.2761 187.12 32.5209 187.37 32.5209 187.677V226.479C32.5209 226.787 32.2761 227.037 31.9636 227.037Z" fill="black"/>
<path d="M34.5937 228.594C34.2864 228.594 34.0364 228.344 34.0364 228.037V211.141C34.0364 210.833 34.2864 210.583 34.5937 210.583H45.1145C45.4218 210.583 45.6718 210.833 45.6718 211.141V223.011C45.6718 223.318 45.4218 223.568 45.1145 223.568C44.8072 223.568 44.5572 223.318 44.5572 223.011V211.698H35.151V228.037C35.151 228.344 34.901 228.594 34.5937 228.594Z" fill="black"/>
<path d="M80.0156 59.271C80.0156 79.0991 63.9115 95.172 44.0469 95.172C24.1823 95.172 8.07812 79.0991 8.07812 59.271C8.07812 39.4377 24.1823 23.3647 44.0469 23.3647C63.9115 23.3647 80.0156 39.4377 80.0156 59.271Z" fill="#FFC010"/>
<path d="M44.0468 23.9219C24.5208 23.9219 8.63534 39.7812 8.63534 59.2708C8.63534 78.7604 24.5208 94.6146 44.0468 94.6146C63.5728 94.6146 79.4583 78.7604 79.4583 59.2708C79.4583 39.7812 63.5728 23.9219 44.0468 23.9219ZM44.0468 95.7292C23.9062 95.7292 7.52075 79.375 7.52075 59.2708C7.52075 39.1667 23.9062 22.8125 44.0468 22.8125C64.1874 22.8125 80.5728 39.1667 80.5728 59.2708C80.5728 79.375 64.1874 95.7292 44.0468 95.7292Z" fill="black"/>
<path d="M21.0782 59.2084L33.3282 63.8542V68.8907L15.948 61.1615V57.1563L33.3282 49.448V54.4845L21.0782 59.2084Z" fill="white"/>
<path d="M40.2656 74.8802H36.2969L48.1979 42.1094H52.1615L40.2656 74.8802Z" fill="white"/>
<path d="M68.5677 59.1095L55.7344 54.4011V49.448L73.6771 57.1563V61.1615L55.7344 68.8699V63.9167L68.5677 59.1095Z" fill="white"/>
<path d="M264.339 72.1406C257.094 74.2812 249.479 70.1614 247.333 62.9323C245.182 55.7031 249.313 48.1041 256.557 45.9583C263.797 43.8125 271.411 47.9375 273.557 55.1666C275.708 62.3958 271.578 69.9948 264.339 72.1406ZM284.021 46.0364C283.891 45.7396 283.568 45.5781 283.255 45.6458L278.682 46.6041C278.417 46.6614 278.146 46.5521 277.984 46.3333C277.448 45.5885 276.87 44.8854 276.25 44.2291C276.063 44.0312 276.01 43.7448 276.115 43.4948L277.917 39.1979C278.042 38.901 277.943 38.5573 277.682 38.3698L274.344 36C274.083 35.8125 273.724 35.8333 273.484 36.0521L270.005 39.1666C269.802 39.3437 269.516 39.3854 269.266 39.276C268.438 38.9062 267.583 38.5937 266.714 38.3281C266.453 38.25 266.266 38.0312 266.229 37.7604L265.635 33.1302C265.594 32.8125 265.339 32.5625 265.016 32.5312L260.948 32.1458C260.625 32.1146 260.323 32.3125 260.224 32.6146L258.776 37.0469C258.688 37.3021 258.458 37.4844 258.188 37.5104C257.292 37.6041 256.396 37.7604 255.505 37.9687C255.24 38.0312 254.964 37.9375 254.797 37.7187L251.964 34.0052C251.771 33.75 251.422 33.6614 251.13 33.7969L247.411 35.4948C247.115 35.6302 246.958 35.9479 247.021 36.2656L247.984 40.8333C248.042 41.0989 247.932 41.3698 247.708 41.526C246.969 42.0625 246.266 42.6406 245.604 43.2552C245.406 43.4427 245.12 43.5 244.87 43.3958L240.568 41.5937C240.271 41.4687 239.927 41.5677 239.74 41.8281L237.37 45.1614C237.182 45.4219 237.203 45.776 237.417 46.0156L240.536 49.4948C240.719 49.6979 240.76 49.9844 240.651 50.2344C240.281 51.0625 239.964 51.9167 239.703 52.7812C239.62 53.0417 239.401 53.2344 239.13 53.2656L234.495 53.8594C234.172 53.901 233.927 54.1562 233.896 54.4791L233.51 58.5416C233.479 58.8646 233.677 59.1614 233.984 59.2604L238.417 60.7135C238.677 60.8021 238.854 61.026 238.88 61.2969C238.979 62.1927 239.13 63.0885 239.344 63.9791C239.406 64.2448 239.313 64.5208 239.094 64.6875L235.375 67.5156C235.12 67.7083 235.031 68.0573 235.167 68.3489L236.87 72.0625C237.005 72.3541 237.323 72.5156 237.641 72.4479L242.208 71.4948C242.474 71.4375 242.75 71.5469 242.906 71.7656C243.448 72.5052 244.026 73.2083 244.641 73.8698C244.828 74.0677 244.88 74.3489 244.776 74.6041L242.974 78.901C242.849 79.1979 242.948 79.5416 243.214 79.7291L246.547 82.0937C246.807 82.2812 247.167 82.2656 247.406 82.0469L250.885 78.9323C251.089 78.75 251.375 78.7083 251.625 78.8177C252.453 79.1875 253.307 79.5052 254.177 79.7708C254.438 79.8489 254.625 80.0677 254.661 80.3385L255.255 84.9687C255.297 85.2864 255.552 85.5364 255.875 85.5677L259.948 85.9531C260.266 85.9844 260.568 85.7864 260.667 85.4791L262.12 81.0521C262.203 80.7969 262.432 80.6146 262.703 80.5885C263.599 80.4948 264.495 80.3385 265.385 80.1302C265.656 80.0677 265.932 80.1614 266.094 80.3802L268.927 84.0885C269.12 84.3489 269.469 84.4323 269.76 84.3021L273.479 82.5989C273.776 82.4687 273.938 82.151 273.87 81.8333L272.906 77.2656C272.854 77 272.958 76.7291 273.182 76.5677C273.927 76.0312 274.63 75.4531 275.286 74.8385C275.484 74.651 275.771 74.5989 276.021 74.7031L280.323 76.5052C280.625 76.6302 280.969 76.5312 281.156 76.2656L283.521 72.9375C283.708 72.6771 283.688 72.3177 283.474 72.0781L280.354 68.5989C280.172 68.401 280.13 68.1146 280.24 67.8646C280.609 67.0364 280.927 66.1823 281.193 65.3177C281.271 65.0573 281.49 64.8646 281.76 64.8281L286.396 64.2396C286.719 64.1979 286.964 63.9427 286.995 63.6198L287.38 59.5521C287.411 59.2344 287.214 58.9323 286.906 58.8333L282.474 57.3802C282.214 57.2969 282.036 57.0677 282.01 56.8021C281.917 55.9062 281.76 55.0104 281.547 54.1146C281.484 53.8489 281.583 53.5729 281.797 53.4114L285.516 50.5833C285.771 50.3906 285.859 50.0416 285.724 49.75L284.021 46.0364Z" fill="#FFC010"/>
<path d="M295.813 31.672C291.609 34.2814 286.083 32.9897 283.474 28.7918C280.859 24.5887 282.151 19.0679 286.354 16.4637C290.557 13.8543 296.083 15.146 298.698 19.3491C301.307 23.547 300.016 29.0679 295.813 31.672ZM307.302 16.0575L305.464 13.1043L301.87 14.3491C301.323 13.7397 300.734 13.1825 300.104 12.6877L301.115 9.03141L298.047 7.39079L295.557 10.2606C294.787 10.0158 294 9.82829 293.198 9.7085L292.245 6.03662L288.766 6.146L288.047 9.86995C287.266 10.0366 286.49 10.271 285.729 10.5731L283.057 7.86995L280.104 9.70329L281.349 13.2918C280.74 13.8387 280.182 14.4272 279.688 15.0522L276.026 14.0418L274.385 17.1095L277.26 19.5939C277.01 20.3647 276.828 21.1512 276.708 21.9481L273.026 22.9064L273.141 26.3804L276.87 27.0939C277.037 27.8804 277.276 28.6512 277.578 29.4116L274.865 32.0783L276.703 35.0314L280.297 33.7866C280.844 34.396 281.438 34.9533 282.063 35.4481L281.052 39.1043L284.125 40.745L286.609 37.8752C287.38 38.12 288.172 38.3075 288.969 38.4272L289.927 42.0991L293.406 41.9897L294.12 38.2658C294.906 38.0991 295.682 37.8647 296.443 37.5627L299.109 40.271L302.068 38.4325L300.823 34.8439C301.427 34.297 301.984 33.7085 302.479 33.0835L306.141 34.0939L307.787 31.0262L304.906 28.5418C305.156 27.771 305.344 26.9845 305.458 26.1877L309.141 25.2293L309.031 21.7554L305.297 21.0418C305.13 20.2554 304.896 19.4845 304.594 18.7241L307.302 16.0575Z" fill="#FFC010"/>
<path d="M301.224 201.917C301.177 201.917 301.13 201.912 301.083 201.901C300.787 201.823 300.609 201.521 300.682 201.224C305.609 182.141 303.807 165.182 301.427 154.307C298.849 142.537 295.073 135.198 295.031 135.13C294.891 134.854 295 134.521 295.271 134.38C295.542 134.234 295.88 134.344 296.021 134.615C296.063 134.688 299.906 142.156 302.516 154.073C304.922 165.063 306.745 182.208 301.766 201.5C301.698 201.75 301.474 201.917 301.224 201.917Z" fill="white"/>
<path d="M6.29681 168.552C6.02598 168.552 5.78639 168.354 5.74473 168.073C2.22389 144.151 10.9374 115.11 11.026 114.818C11.1145 114.526 11.427 114.36 11.7239 114.448C12.0156 114.537 12.1822 114.849 12.0937 115.141C12.0051 115.432 3.36452 144.24 6.84889 167.912C6.89577 168.219 6.68222 168.5 6.38014 168.547C6.3541 168.547 6.32285 168.552 6.29681 168.552Z" fill="white"/>
<path d="M272.542 254.344C272.396 254.344 272.245 254.286 272.135 254.172C271.927 253.948 271.938 253.594 272.156 253.385C272.266 253.281 283.031 243.021 289.958 229.219C290.099 228.948 290.432 228.833 290.708 228.974C290.984 229.109 291.094 229.443 290.953 229.719C283.932 243.703 273.036 254.089 272.927 254.193C272.818 254.297 272.677 254.344 272.542 254.344Z" fill="white"/>
</svg>
