<svg width="49" height="42" viewBox="0 0 49 42" fill="none" xmlns="http://www.w3.org/2000/svg">
<path d="M35.6364 11.0526C27.9979 11.0526 21.4818 15.823 18.9482 22.5259L23.1202 24.0786C25.0205 19.0514 29.9074 15.4737 35.6364 15.4737C37.1917 15.4737 38.6848 15.7374 40.0731 16.2221C45.2727 18.0379 49 22.9554 49 28.7368C49 36.0619 43.0169 42 35.6364 42H13.3636C5.9831 42 0 36.0619 0 28.7368C0 22.9554 3.72725 18.0379 8.927 16.2221C8.9151 15.9741 8.90909 15.7246 8.90909 15.4737C8.90909 6.92781 15.8894 0 24.5 0C31.7208 0 37.7953 4.87198 39.5679 11.4845C38.3031 11.2018 36.9872 11.0526 35.6364 11.0526Z" fill="#414141"/>
</svg>
