<svg width="238" height="111" viewBox="0 0 238 111" fill="none" xmlns="http://www.w3.org/2000/svg">
<path d="M50.7178 42.1169C40.2405 35.7283 36.0241 23.3771 35.2255 18C31.7757 27.1996 31.765 37.3787 32.1909 41.3184L56.9467 58.5676V38.1241C56.5634 38.1241 56.4676 37.5917 56.4676 37.3255C56.4676 38.4754 54.4445 38.337 53.433 38.1241C52.4108 37.7407 51.197 33.5988 50.7178 31.5758V42.1169Z" fill="white"/>
<path d="M63.1444 42.1169C73.6216 35.7283 77.8381 23.3771 78.6367 18C82.0865 27.1996 82.0972 37.3787 81.6713 41.3184L56.9155 58.5676V38.1241C57.2988 38.1241 57.3946 37.5917 57.3946 37.3255C57.3946 38.4754 59.4177 38.337 60.4292 38.1241C61.4514 37.7408 62.6652 33.5988 63.1444 31.5758V42.1169Z" fill="white"/>
<path d="M56.9155 67.5116L32.6388 49.3041V44.8321L56.9155 62.7201L81.1921 44.8321V48.825L56.9155 67.5116Z" fill="white"/>
<path d="M56.9155 76.4556L32.6388 58.2481V53.7761L56.9155 71.6642L81.1921 53.7761V57.769L56.9155 76.4556Z" fill="white"/>
<path d="M56.9155 85.3996L32.6388 67.1922V62.7201L56.9155 80.6082L81.1921 62.7201V66.713L56.9155 85.3996Z" fill="white"/>
<path d="M99.976 49.28C98.632 49.28 97.3627 49.0187 96.168 48.496C94.9733 47.9733 93.928 47.2547 93.032 46.34C92.136 45.4067 91.4267 44.3333 90.904 43.12C90.4 41.888 90.148 40.572 90.148 39.172C90.148 37.772 90.4 36.4653 90.904 35.252C91.4267 34.0387 92.136 32.9747 93.032 32.06C93.9467 31.1267 95.0107 30.408 96.224 29.904C97.456 29.3813 98.7813 29.12 100.2 29.12C101.749 29.12 103.187 29.4187 104.512 30.016C105.837 30.6133 106.948 31.4627 107.844 32.564L105.66 34.748C105.081 33.9267 104.307 33.3013 103.336 32.872C102.365 32.424 101.32 32.2 100.2 32.2C98.856 32.2 97.6707 32.4987 96.644 33.096C95.636 33.6747 94.852 34.4867 94.292 35.532C93.732 36.5773 93.452 37.7907 93.452 39.172C93.452 40.5533 93.732 41.776 94.292 42.84C94.8707 43.8853 95.6453 44.7067 96.616 45.304C97.5867 45.9013 98.688 46.2 99.92 46.2C101.227 46.2 102.347 45.9667 103.28 45.5C104.232 45.0147 104.96 44.3053 105.464 43.372C105.968 42.42 106.22 41.2533 106.22 39.872L108.236 41.328H99.864V38.388H109.552V38.836C109.552 41.1693 109.132 43.1107 108.292 44.66C107.471 46.2093 106.341 47.3667 104.904 48.132C103.467 48.8973 101.824 49.28 99.976 49.28ZM121.992 49.28C120.592 49.28 119.285 49.0187 118.072 48.496C116.858 47.9733 115.794 47.2547 114.88 46.34C113.965 45.4067 113.246 44.3333 112.724 43.12C112.22 41.888 111.968 40.572 111.968 39.172C111.968 37.772 112.22 36.4653 112.724 35.252C113.246 34.0387 113.956 32.9747 114.852 32.06C115.766 31.1267 116.821 30.408 118.016 29.904C119.229 29.3813 120.536 29.12 121.936 29.12C123.336 29.12 124.633 29.3813 125.828 29.904C127.041 30.408 128.105 31.1267 129.02 32.06C129.934 32.9747 130.644 34.048 131.148 35.28C131.67 36.4933 131.932 37.8 131.932 39.2C131.932 40.6 131.67 41.916 131.148 43.148C130.644 44.3613 129.934 45.4253 129.02 46.34C128.124 47.2547 127.069 47.9733 125.856 48.496C124.661 49.0187 123.373 49.28 121.992 49.28ZM121.936 46.2C123.261 46.2 124.418 45.9013 125.408 45.304C126.416 44.7067 127.2 43.8853 127.76 42.84C128.338 41.776 128.628 40.5533 128.628 39.172C128.628 38.1453 128.46 37.212 128.124 36.372C127.806 35.5133 127.349 34.776 126.752 34.16C126.154 33.5253 125.445 33.04 124.624 32.704C123.821 32.368 122.925 32.2 121.936 32.2C120.629 32.2 119.472 32.4987 118.464 33.096C117.474 33.6747 116.69 34.4867 116.112 35.532C115.552 36.5773 115.272 37.7907 115.272 39.172C115.272 40.1987 115.43 41.1507 115.748 42.028C116.084 42.8867 116.541 43.624 117.12 44.24C117.717 44.856 118.426 45.3413 119.248 45.696C120.069 46.032 120.965 46.2 121.936 46.2ZM138.822 49V29.96H142.042V49H138.822ZM132.438 32.34V29.4H148.426V32.34H132.438ZM151.23 49V29.4H154.45V49H151.23ZM163.69 49V29.4H166.91V49H163.69ZM153.442 40.32V37.38H164.39V40.32H153.442ZM169.707 49L177.771 29.4H180.011L188.019 49H184.547L178.275 33.124H179.451L173.123 49H169.707ZM173.683 45.22V42.42H184.071V45.22H173.683ZM190.605 49V29.4H192.845L200.993 42.812H199.537L207.685 29.4H209.925V49H206.705V35.056L207.433 35.252L201.385 45.192H199.145L193.097 35.252L193.825 35.056V49H190.605Z" fill="white"/>
<path d="M97.64 61.434C97.184 61.194 96.692 60.99 96.164 60.822C95.636 60.654 95.126 60.57 94.634 60.57C93.962 60.57 93.428 60.726 93.032 61.038C92.636 61.338 92.438 61.752 92.438 62.28C92.438 62.652 92.57 62.976 92.834 63.252C93.098 63.528 93.44 63.768 93.86 63.972C94.28 64.176 94.724 64.368 95.192 64.548C95.588 64.692 95.978 64.866 96.362 65.07C96.758 65.262 97.112 65.502 97.424 65.79C97.748 66.078 98 66.438 98.18 66.87C98.372 67.29 98.468 67.806 98.468 68.418C98.468 69.114 98.294 69.744 97.946 70.308C97.61 70.872 97.118 71.322 96.47 71.658C95.834 71.982 95.06 72.144 94.148 72.144C93.596 72.144 93.056 72.084 92.528 71.964C92.012 71.832 91.52 71.664 91.052 71.46C90.596 71.244 90.182 71.01 89.81 70.758L90.674 69.264C90.962 69.468 91.292 69.666 91.664 69.858C92.036 70.038 92.42 70.182 92.816 70.29C93.224 70.398 93.608 70.452 93.968 70.452C94.364 70.452 94.754 70.386 95.138 70.254C95.522 70.11 95.84 69.894 96.092 69.606C96.344 69.306 96.47 68.916 96.47 68.436C96.47 68.028 96.356 67.686 96.128 67.41C95.912 67.122 95.618 66.876 95.246 66.672C94.886 66.468 94.496 66.288 94.076 66.132C93.668 65.976 93.254 65.802 92.834 65.61C92.414 65.418 92.024 65.19 91.664 64.926C91.304 64.65 91.01 64.314 90.782 63.918C90.566 63.51 90.458 63.012 90.458 62.424C90.458 61.728 90.62 61.122 90.944 60.606C91.28 60.078 91.742 59.664 92.33 59.364C92.918 59.064 93.596 58.896 94.364 58.86C95.24 58.86 96.002 58.968 96.65 59.184C97.298 59.4 97.874 59.658 98.378 59.958L97.64 61.434ZM111.843 71.01C111.651 71.142 111.363 71.304 110.979 71.496C110.607 71.676 110.163 71.832 109.647 71.964C109.143 72.096 108.585 72.156 107.973 72.144C106.953 72.132 106.035 71.952 105.219 71.604C104.415 71.256 103.731 70.782 103.167 70.182C102.603 69.57 102.165 68.874 101.853 68.094C101.553 67.302 101.403 66.462 101.403 65.574C101.403 64.59 101.559 63.69 101.871 62.874C102.183 62.046 102.627 61.326 103.203 60.714C103.791 60.102 104.475 59.628 105.255 59.292C106.047 58.956 106.911 58.788 107.847 58.788C108.651 58.788 109.377 58.896 110.025 59.112C110.673 59.328 111.219 59.58 111.663 59.868L110.907 61.668C110.559 61.428 110.127 61.2 109.611 60.984C109.107 60.756 108.543 60.642 107.919 60.642C107.307 60.642 106.725 60.768 106.173 61.02C105.633 61.26 105.153 61.602 104.733 62.046C104.325 62.478 104.001 62.988 103.761 63.576C103.521 64.152 103.401 64.782 103.401 65.466C103.401 66.162 103.509 66.804 103.725 67.392C103.941 67.98 104.247 68.49 104.643 68.922C105.051 69.354 105.537 69.69 106.101 69.93C106.665 70.17 107.301 70.29 108.009 70.29C108.681 70.29 109.269 70.188 109.773 69.984C110.289 69.78 110.709 69.546 111.033 69.282L111.843 71.01ZM126.104 58.932V72H124.178V66.366H117.554V72H115.628V58.932H117.554V64.53H124.178V58.932H126.104ZM129.869 65.484C129.869 64.584 130.037 63.732 130.373 62.928C130.721 62.124 131.201 61.41 131.813 60.786C132.425 60.162 133.133 59.676 133.937 59.328C134.741 58.968 135.605 58.788 136.529 58.788C137.441 58.788 138.299 58.968 139.103 59.328C139.907 59.676 140.621 60.162 141.245 60.786C141.869 61.41 142.355 62.124 142.703 62.928C143.051 63.732 143.225 64.584 143.225 65.484C143.225 66.408 143.051 67.272 142.703 68.076C142.355 68.88 141.869 69.588 141.245 70.2C140.633 70.812 139.919 71.292 139.103 71.64C138.299 71.976 137.441 72.144 136.529 72.144C135.605 72.144 134.741 71.976 133.937 71.64C133.133 71.304 132.425 70.836 131.813 70.236C131.201 69.624 130.721 68.916 130.373 68.112C130.037 67.296 129.869 66.42 129.869 65.484ZM131.849 65.484C131.849 66.156 131.969 66.786 132.209 67.374C132.461 67.95 132.803 68.46 133.235 68.904C133.667 69.336 134.165 69.678 134.729 69.93C135.305 70.17 135.923 70.29 136.583 70.29C137.231 70.29 137.837 70.17 138.401 69.93C138.965 69.678 139.457 69.336 139.877 68.904C140.309 68.46 140.645 67.95 140.885 67.374C141.125 66.786 141.245 66.156 141.245 65.484C141.245 64.812 141.119 64.188 140.867 63.612C140.627 63.024 140.291 62.508 139.859 62.064C139.439 61.62 138.941 61.272 138.365 61.02C137.801 60.768 137.195 60.642 136.547 60.642C135.875 60.642 135.257 60.768 134.693 61.02C134.129 61.272 133.631 61.62 133.199 62.064C132.767 62.508 132.431 63.024 132.191 63.612C131.963 64.2 131.849 64.824 131.849 65.484ZM146.185 65.484C146.185 64.584 146.353 63.732 146.689 62.928C147.037 62.124 147.517 61.41 148.129 60.786C148.741 60.162 149.449 59.676 150.253 59.328C151.057 58.968 151.921 58.788 152.845 58.788C153.757 58.788 154.615 58.968 155.419 59.328C156.223 59.676 156.937 60.162 157.561 60.786C158.185 61.41 158.671 62.124 159.019 62.928C159.367 63.732 159.541 64.584 159.541 65.484C159.541 66.408 159.367 67.272 159.019 68.076C158.671 68.88 158.185 69.588 157.561 70.2C156.949 70.812 156.235 71.292 155.419 71.64C154.615 71.976 153.757 72.144 152.845 72.144C151.921 72.144 151.057 71.976 150.253 71.64C149.449 71.304 148.741 70.836 148.129 70.236C147.517 69.624 147.037 68.916 146.689 68.112C146.353 67.296 146.185 66.42 146.185 65.484ZM148.165 65.484C148.165 66.156 148.285 66.786 148.525 67.374C148.777 67.95 149.119 68.46 149.551 68.904C149.983 69.336 150.481 69.678 151.045 69.93C151.621 70.17 152.239 70.29 152.899 70.29C153.547 70.29 154.153 70.17 154.717 69.93C155.281 69.678 155.773 69.336 156.193 68.904C156.625 68.46 156.961 67.95 157.201 67.374C157.441 66.786 157.561 66.156 157.561 65.484C157.561 64.812 157.435 64.188 157.183 63.612C156.943 63.024 156.607 62.508 156.175 62.064C155.755 61.62 155.257 61.272 154.681 61.02C154.117 60.768 153.511 60.642 152.863 60.642C152.191 60.642 151.573 60.768 151.009 61.02C150.445 61.272 149.947 61.62 149.515 62.064C149.083 62.508 148.747 63.024 148.507 63.612C148.279 64.2 148.165 64.824 148.165 65.484ZM163.311 58.932H165.237V70.146H171.771V72H163.311V58.932Z" fill="white"/>
</svg>
