<svg width="177" height="159" viewBox="0 0 177 159" fill="none" xmlns="http://www.w3.org/2000/svg">
<g clip-path="url(#clip0_227_398)">
<mask id="mask0_227_398" style="mask-type:luminance" maskUnits="userSpaceOnUse" x="0" y="0" width="177" height="159">
<path d="M177 0H0V159H177V0Z" fill="white"/>
</mask>
<g mask="url(#mask0_227_398)">
<path d="M74.677 61.082C52.4299 47.6187 43.4769 21.5896 41.7812 10.2581C34.456 29.6452 34.4334 51.0967 35.3378 59.3991L87.9031 95.7499V52.6675C87.0892 52.6675 86.8857 51.5455 86.8857 50.9845C86.8857 53.4078 82.59 53.1163 80.4423 52.6675C78.2718 51.8596 75.6944 43.1309 74.677 38.8675V61.082Z" fill="white"/>
<path d="M101.063 61.082C123.31 47.6187 132.263 21.5896 133.959 10.2581C141.284 29.6452 141.307 51.0967 140.402 59.3991L87.8369 95.7499V52.6675C88.6509 52.6675 88.8543 51.5455 88.8543 50.9845C88.8543 53.4078 93.15 53.1163 95.2979 52.6675C97.4683 51.8596 100.046 43.1309 101.063 38.8675V61.082Z" fill="white"/>
<path d="M87.8369 114.599L36.2888 76.2282V66.8038L87.8369 104.501L139.384 66.8038V75.2184L87.8369 114.599Z" fill="white"/>
<path d="M87.8369 133.447L36.2888 95.0767V85.6525L87.8369 123.35L139.384 85.6525V94.0671L87.8369 133.447Z" fill="white"/>
<path d="M87.8369 152.296L36.2888 113.925V104.501L87.8369 142.199L139.384 104.501V112.916L87.8369 152.296Z" fill="white"/>
</g>
</g>
<defs>
<clipPath id="clip0_227_398">
<rect width="177" height="159" fill="white"/>
</clipPath>
</defs>
</svg>
