<svg width="126" height="165" viewBox="0 0 126 165" fill="none" xmlns="http://www.w3.org/2000/svg">
<path d="M52.8008 39.6363C35.5813 29.1366 28.6516 8.83722 27.3391 0C21.6693 15.1195 21.6518 31.849 22.3518 38.3238L63.038 66.6729V33.074C62.408 33.074 62.2505 32.199 62.2505 31.7615C62.2505 33.6514 58.9256 33.424 57.2632 33.074C55.5832 32.444 53.5883 25.6367 52.8008 22.3118V39.6363Z" fill="white"/>
<path d="M73.2239 39.6363C90.4434 29.1366 97.3732 8.83722 98.6856 0C104.355 15.1195 104.373 31.849 103.673 38.3238L62.9867 66.6729V33.074C63.6167 33.074 63.7742 32.199 63.7742 31.7615C63.7742 33.6514 67.0991 33.424 68.7616 33.074C70.4415 32.444 72.4364 25.6367 73.2239 22.3118V39.6363Z" fill="white"/>
<path d="M62.9867 81.3725L23.0879 51.4484V44.0986L62.9867 73.4977L102.885 44.0986V50.6609L62.9867 81.3725Z" fill="white"/>
<path d="M62.9867 96.072L23.0879 66.1479V58.7982L62.9867 88.1972L102.885 58.7982V65.3605L62.9867 96.072Z" fill="white"/>
<path d="M62.9867 110.772L23.0879 80.8475V73.4977L62.9867 102.897L102.885 73.4977V80.06L62.9867 110.772Z" fill="white"/>
<path d="M9.36 140.26C8.06 140.26 6.838 140.026 5.694 139.558C4.56733 139.073 3.57067 138.397 2.704 137.53C1.85467 136.663 1.18733 135.667 0.702 134.54C0.234 133.396 0 132.165 0 130.848C0 129.513 0.24267 128.283 0.728 127.156C1.21333 126.012 1.88933 125.015 2.756 124.166C3.62267 123.299 4.63667 122.632 5.798 122.164C6.95933 121.679 8.216 121.436 9.568 121.436C11.076 121.436 12.4627 121.722 13.728 122.294C14.9933 122.849 16.042 123.637 16.874 124.66L14.482 127.052C13.91 126.307 13.1993 125.735 12.35 125.336C11.5007 124.937 10.5647 124.738 9.542 124.738C8.38067 124.738 7.34933 124.998 6.448 125.518C5.564 126.021 4.87067 126.731 4.368 127.65C3.86533 128.551 3.614 129.609 3.614 130.822C3.614 132.035 3.85667 133.11 4.342 134.046C4.84467 134.965 5.52067 135.684 6.37 136.204C7.23667 136.724 8.22467 136.984 9.334 136.984C10.478 136.984 11.4573 136.776 12.272 136.36C13.0867 135.927 13.7107 135.303 14.144 134.488C14.5773 133.656 14.794 132.642 14.794 131.446L17.108 133.032L9.126 132.954V129.886H18.434V130.38C18.434 132.564 18.044 134.393 17.264 135.866C16.484 137.322 15.4093 138.423 14.04 139.168C12.688 139.896 11.128 140.26 9.36 140.26ZM32.5288 140.286C31.1942 140.286 29.9462 140.043 28.7848 139.558C27.6408 139.073 26.6355 138.405 25.7688 137.556C24.9195 136.689 24.2522 135.684 23.7668 134.54C23.2815 133.379 23.0388 132.139 23.0388 130.822C23.0388 129.505 23.2728 128.283 23.7408 127.156C24.2262 126.012 24.8935 125.015 25.7428 124.166C26.6095 123.299 27.6148 122.632 28.7588 122.164C29.9028 121.679 31.1422 121.436 32.4768 121.436C33.8288 121.436 35.0768 121.679 36.2208 122.164C37.3648 122.632 38.3615 123.299 39.2108 124.166C40.0775 125.015 40.7535 126.012 41.2388 127.156C41.7242 128.3 41.9668 129.531 41.9668 130.848C41.9668 132.165 41.7242 133.396 41.2388 134.54C40.7535 135.684 40.0775 136.689 39.2108 137.556C38.3615 138.405 37.3648 139.073 36.2208 139.558C35.0942 140.043 33.8635 140.286 32.5288 140.286ZM32.4768 136.984C33.6555 136.984 34.6782 136.724 35.5448 136.204C36.4115 135.684 37.0875 134.965 37.5728 134.046C38.0755 133.127 38.3268 132.053 38.3268 130.822C38.3268 129.921 38.1882 129.097 37.9108 128.352C37.6335 127.607 37.2348 126.965 36.7148 126.428C36.1948 125.873 35.5795 125.449 34.8688 125.154C34.1582 124.859 33.3608 124.712 32.4768 124.712C31.3328 124.712 30.3188 124.972 29.4348 125.492C28.5682 125.995 27.8835 126.705 27.3808 127.624C26.8955 128.543 26.6528 129.609 26.6528 130.822C26.6528 131.741 26.7915 132.581 27.0688 133.344C27.3635 134.107 27.7622 134.757 28.2648 135.294C28.7848 135.831 29.4002 136.247 30.1108 136.542C30.8388 136.837 31.6275 136.984 32.4768 136.984ZM50.802 140V122.112H54.364V140H50.802ZM44.978 124.868V121.722H60.188V124.868H44.978ZM65.2295 140V121.722H68.7655V140H65.2295ZM76.6955 140V121.722H80.2315V140H76.6955ZM67.4655 132.122V129.002H77.6835V132.122H67.4655ZM85.2158 140L92.5738 121.722H95.4598L102.792 140H99.0218L93.3538 124.998H94.6538L88.9078 140H85.2158ZM89.1158 136.594V133.63H98.9438V136.594H89.1158ZM107.551 140V121.722H110.047L117.457 133.578H116.027L123.411 121.722H125.907V140H122.397V127.78L123.073 127.988L117.925 136.256H115.533L110.385 127.988L111.087 127.78V140H107.551Z" fill="white"/>
<path d="M27.678 153.434C27.222 153.194 26.73 152.99 26.202 152.822C25.674 152.654 25.164 152.57 24.672 152.57C24 152.57 23.466 152.726 23.07 153.038C22.674 153.338 22.476 153.752 22.476 154.28C22.476 154.652 22.608 154.976 22.872 155.252C23.136 155.528 23.478 155.768 23.898 155.972C24.318 156.176 24.762 156.368 25.23 156.548C25.626 156.692 26.016 156.866 26.4 157.07C26.796 157.262 27.15 157.502 27.462 157.79C27.786 158.078 28.038 158.438 28.218 158.87C28.41 159.29 28.506 159.806 28.506 160.418C28.506 161.114 28.332 161.744 27.984 162.308C27.648 162.872 27.156 163.322 26.508 163.658C25.872 163.982 25.098 164.144 24.186 164.144C23.634 164.144 23.094 164.084 22.566 163.964C22.05 163.832 21.558 163.664 21.09 163.46C20.634 163.244 20.22 163.01 19.848 162.758L20.712 161.264C21 161.468 21.33 161.666 21.702 161.858C22.074 162.038 22.458 162.182 22.854 162.29C23.262 162.398 23.646 162.452 24.006 162.452C24.402 162.452 24.792 162.386 25.176 162.254C25.56 162.11 25.878 161.894 26.13 161.606C26.382 161.306 26.508 160.916 26.508 160.436C26.508 160.028 26.394 159.686 26.166 159.41C25.95 159.122 25.656 158.876 25.284 158.672C24.924 158.468 24.534 158.288 24.114 158.132C23.706 157.976 23.292 157.802 22.872 157.61C22.452 157.418 22.062 157.19 21.702 156.926C21.342 156.65 21.048 156.314 20.82 155.918C20.604 155.51 20.496 155.012 20.496 154.424C20.496 153.728 20.658 153.122 20.982 152.606C21.318 152.078 21.78 151.664 22.368 151.364C22.956 151.064 23.634 150.896 24.402 150.86C25.278 150.86 26.04 150.968 26.688 151.184C27.336 151.4 27.912 151.658 28.416 151.958L27.678 153.434ZM42.9606 163.01C42.7686 163.142 42.4806 163.304 42.0966 163.496C41.7246 163.676 41.2806 163.832 40.7646 163.964C40.2606 164.096 39.7026 164.156 39.0906 164.144C38.0706 164.132 37.1526 163.952 36.3366 163.604C35.5326 163.256 34.8486 162.782 34.2846 162.182C33.7206 161.57 33.2826 160.874 32.9706 160.094C32.6706 159.302 32.5206 158.462 32.5206 157.574C32.5206 156.59 32.6766 155.69 32.9886 154.874C33.3006 154.046 33.7446 153.326 34.3206 152.714C34.9086 152.102 35.5926 151.628 36.3726 151.292C37.1646 150.956 38.0286 150.788 38.9646 150.788C39.7686 150.788 40.4946 150.896 41.1426 151.112C41.7906 151.328 42.3366 151.58 42.7806 151.868L42.0246 153.668C41.6766 153.428 41.2446 153.2 40.7286 152.984C40.2246 152.756 39.6606 152.642 39.0366 152.642C38.4246 152.642 37.8426 152.768 37.2906 153.02C36.7506 153.26 36.2706 153.602 35.8506 154.046C35.4426 154.478 35.1186 154.988 34.8786 155.576C34.6386 156.152 34.5186 156.782 34.5186 157.466C34.5186 158.162 34.6266 158.804 34.8426 159.392C35.0586 159.98 35.3646 160.49 35.7606 160.922C36.1686 161.354 36.6546 161.69 37.2186 161.93C37.7826 162.17 38.4186 162.29 39.1266 162.29C39.7986 162.29 40.3866 162.188 40.8906 161.984C41.4066 161.78 41.8266 161.546 42.1506 161.282L42.9606 163.01ZM58.3022 150.932V164H56.3762V158.366H49.7522V164H47.8262V150.932H49.7522V156.53H56.3762V150.932H58.3022ZM63.1466 157.484C63.1466 156.584 63.3146 155.732 63.6506 154.928C63.9986 154.124 64.4786 153.41 65.0906 152.786C65.7026 152.162 66.4106 151.676 67.2146 151.328C68.0186 150.968 68.8826 150.788 69.8066 150.788C70.7186 150.788 71.5766 150.968 72.3806 151.328C73.1846 151.676 73.8986 152.162 74.5226 152.786C75.1466 153.41 75.6326 154.124 75.9806 154.928C76.3286 155.732 76.5026 156.584 76.5026 157.484C76.5026 158.408 76.3286 159.272 75.9806 160.076C75.6326 160.88 75.1466 161.588 74.5226 162.2C73.9106 162.812 73.1966 163.292 72.3806 163.64C71.5766 163.976 70.7186 164.144 69.8066 164.144C68.8826 164.144 68.0186 163.976 67.2146 163.64C66.4106 163.304 65.7026 162.836 65.0906 162.236C64.4786 161.624 63.9986 160.916 63.6506 160.112C63.3146 159.296 63.1466 158.42 63.1466 157.484ZM65.1266 157.484C65.1266 158.156 65.2466 158.786 65.4866 159.374C65.7386 159.95 66.0806 160.46 66.5126 160.904C66.9446 161.336 67.4426 161.678 68.0066 161.93C68.5826 162.17 69.2006 162.29 69.8606 162.29C70.5086 162.29 71.1146 162.17 71.6786 161.93C72.2426 161.678 72.7346 161.336 73.1546 160.904C73.5866 160.46 73.9226 159.95 74.1626 159.374C74.4026 158.786 74.5226 158.156 74.5226 157.484C74.5226 156.812 74.3966 156.188 74.1446 155.612C73.9046 155.024 73.5686 154.508 73.1366 154.064C72.7166 153.62 72.2186 153.272 71.6426 153.02C71.0786 152.768 70.4726 152.642 69.8246 152.642C69.1526 152.642 68.5346 152.768 67.9706 153.02C67.4066 153.272 66.9086 153.62 66.4766 154.064C66.0446 154.508 65.7086 155.024 65.4686 155.612C65.2406 156.2 65.1266 156.824 65.1266 157.484ZM80.5426 157.484C80.5426 156.584 80.7106 155.732 81.0466 154.928C81.3946 154.124 81.8746 153.41 82.4866 152.786C83.0986 152.162 83.8066 151.676 84.6106 151.328C85.4146 150.968 86.2786 150.788 87.2026 150.788C88.1146 150.788 88.9726 150.968 89.7766 151.328C90.5806 151.676 91.2946 152.162 91.9186 152.786C92.5426 153.41 93.0286 154.124 93.3766 154.928C93.7246 155.732 93.8986 156.584 93.8986 157.484C93.8986 158.408 93.7246 159.272 93.3766 160.076C93.0286 160.88 92.5426 161.588 91.9186 162.2C91.3066 162.812 90.5926 163.292 89.7766 163.64C88.9726 163.976 88.1146 164.144 87.2026 164.144C86.2786 164.144 85.4146 163.976 84.6106 163.64C83.8066 163.304 83.0986 162.836 82.4866 162.236C81.8746 161.624 81.3946 160.916 81.0466 160.112C80.7106 159.296 80.5426 158.42 80.5426 157.484ZM82.5226 157.484C82.5226 158.156 82.6426 158.786 82.8826 159.374C83.1346 159.95 83.4766 160.46 83.9086 160.904C84.3406 161.336 84.8386 161.678 85.4026 161.93C85.9786 162.17 86.5966 162.29 87.2566 162.29C87.9046 162.29 88.5106 162.17 89.0746 161.93C89.6386 161.678 90.1306 161.336 90.5506 160.904C90.9826 160.46 91.3186 159.95 91.5586 159.374C91.7986 158.786 91.9186 158.156 91.9186 157.484C91.9186 156.812 91.7926 156.188 91.5406 155.612C91.3006 155.024 90.9646 154.508 90.5326 154.064C90.1126 153.62 89.6146 153.272 89.0386 153.02C88.4746 152.768 87.8686 152.642 87.2206 152.642C86.5486 152.642 85.9306 152.768 85.3666 153.02C84.8026 153.272 84.3046 153.62 83.8726 154.064C83.4406 154.508 83.1046 155.024 82.8646 155.612C82.6366 156.2 82.5226 156.824 82.5226 157.484ZM98.7486 150.932H100.675V162.146H107.209V164H98.7486V150.932Z" fill="white"/>
</svg>
