<svg width="42" height="42" viewBox="0 0 42 42" fill="none" xmlns="http://www.w3.org/2000/svg">
<path d="M21 0C9.45 0 0 9.45 0 21C0 32.55 9.45 42 21 42C32.55 42 42 32.55 42 21C42 9.45 32.55 0 21 0ZM21 5.25C29.715 5.25 36.75 12.285 36.75 21C36.75 29.715 29.715 36.75 21 36.75C12.285 36.75 5.25 29.715 5.25 21C5.25 12.285 12.285 5.25 21 5.25ZM21 10.5C15.225 10.5 10.5 15.225 10.5 21C10.5 26.775 15.225 31.5 21 31.5C26.775 31.5 31.5 26.775 31.5 21C31.5 15.225 26.775 10.5 21 10.5ZM21 15.75C23.94 15.75 26.25 18.06 26.25 21C26.25 23.94 23.94 26.25 21 26.25C18.06 26.25 15.75 23.94 15.75 21C15.75 18.06 18.06 15.75 21 15.75Z" fill="#FFC010"/>
</svg>
